<svg width="24" height="24" viewBox="0 0 24 24" fill="none" xmlns="http://www.w3.org/2000/svg">
  <path d="M12.53 18.66c-3.13 0-5.67-2.54-5.67-5.67s2.54-5.67 5.67-5.67v3.34c-1.28 0-2.33 1.04-2.33 2.33s1.04 2.33 2.33 2.33c1.28 0 2.33-1.04 2.33-2.33V2h3.33c0 2.21 1.79 4 4 4v3.33c-1.06 0-2.03-.41-2.76-1.08v6.75c0 3.13-2.54 5.66-5.67 5.66z" fill="#000"/>
  <path d="M12.53 18.66c-3.13 0-5.67-2.54-5.67-5.67s2.54-5.67 5.67-5.67v3.34c-1.28 0-2.33 1.04-2.33 2.33s1.04 2.33 2.33 2.33c1.28 0 2.33-1.04 2.33-2.33V2h3.33c0 2.21 1.79 4 4 4v3.33c-1.06 0-2.03-.41-2.76-1.08v6.75c0 3.13-2.54 5.66-5.67 5.66z" fill="#25F4EE" style="mix-blend-mode: multiply; transform: translate(-1px, -1px);"/>
  <path d="M12.53 18.66c-3.13 0-5.67-2.54-5.67-5.67s2.54-5.67 5.67-5.67v3.34c-1.28 0-2.33 1.04-2.33 2.33s1.04 2.33 2.33 2.33c1.28 0 2.33-1.04 2.33-2.33V2h3.33c0 2.21 1.79 4 4 4v3.33c-1.06 0-2.03-.41-2.76-1.08v6.75c0 3.13-2.54 5.66-5.67 5.66z" fill="#FE2C55" style="mix-blend-mode: multiply; transform: translate(1px, 1px);"/>
</svg>