<svg version="1.1" id="Layer_1" xmlns="http://www.w3.org/2000/svg" xmlns:xlink="http://www.w3.org/1999/xlink" x="0px" y="0px"
	 width="100%" viewBox="0 0 1376 768" enable-background="new 0 0 1376 768" xml:space="preserve">
<path fill="#010101" opacity="1.000000" stroke="none" 
	d="
M878.000000,769.000000 
	C585.367371,769.000000 293.234680,769.000000 1.051016,769.000000 
	C1.051016,513.063843 1.051016,257.127625 1.051016,1.095716 
	C459.549469,1.095716 918.098938,1.095716 1376.824219,1.095716 
	C1376.824219,256.999908 1376.824219,512.999939 1376.824219,769.000000 
	C1210.794067,769.000000 1044.646973,769.000000 878.000000,769.000000 
M589.907776,427.095337 
	C589.907776,427.095337 590.118286,427.114502 590.118286,427.114502 
	C590.118286,427.114502 589.906555,427.181335 589.217834,426.942291 
	C587.499390,425.261139 585.991516,423.257446 584.017151,421.968231 
	C580.294678,419.537506 576.149963,417.749084 572.451111,415.287384 
	C557.943787,405.632202 543.082397,396.424408 529.219360,385.907776 
	C512.541687,373.255829 496.470306,359.758423 480.662537,346.021667 
	C469.411743,336.244934 457.136780,329.361145 442.248138,327.516754 
	C413.536072,323.959900 384.819794,320.436768 356.111847,316.846985 
	C343.983673,315.330414 331.872192,313.680511 319.753113,312.091217 
	C331.213867,324.139465 342.020844,336.062225 360.391968,337.218231 
	C384.043427,338.706543 407.605591,341.718079 431.175262,344.350708 
	C440.809052,345.426758 450.199371,347.757690 458.368408,353.410553 
	C464.776917,357.845154 471.054260,362.469604 477.473480,366.888306 
	C510.536713,389.647736 545.562500,408.833832 582.554932,424.418640 
	C585.028687,425.460846 587.580444,426.318115 589.907776,427.095337 
M1152.738281,332.035278 
	C1164.650879,331.390259 1176.615356,331.228943 1188.461060,329.959869 
	C1199.608154,328.765656 1210.858398,327.259888 1221.660889,324.381287 
	C1246.422607,317.782959 1266.085938,302.452637 1284.569824,285.452515 
	C1284.818237,285.223999 1284.711792,284.609619 1284.775391,284.142548 
	C1284.121826,284.083923 1283.613770,283.946289 1283.131348,284.008179 
	C1252.824829,287.896973 1222.531738,291.890442 1192.213257,295.682739 
	C1156.352295,300.168243 1120.451904,304.343994 1084.613770,309.002075 
	C1078.520142,309.794128 1072.131714,309.350922 1066.783203,314.715088 
	C1059.332886,322.187286 1050.633545,328.418396 1042.424316,335.126251 
	C1040.668701,336.560730 1038.722656,337.762329 1035.763062,339.846924 
	C1075.473511,337.187744 1113.646729,334.631500 1152.738281,332.035278 
M201.056366,330.222473 
	C246.952682,333.360474 292.848999,336.498474 338.754822,339.637146 
	C328.486725,330.202698 318.878143,321.334351 309.197815,312.545044 
	C308.288116,311.719086 306.972961,311.046234 305.767426,310.883026 
	C282.923889,307.789856 260.083984,304.660675 237.211594,301.791870 
	C209.001495,298.253571 180.757050,294.990204 152.537537,291.525726 
	C132.818466,289.104797 113.116371,286.545685 92.359322,283.915588 
	C107.979591,299.587830 124.807922,311.475342 144.042160,319.929749 
	C161.930237,327.792511 180.913055,329.607483 201.056366,330.222473 
M220.296036,376.390259 
	C222.402573,376.045319 224.497116,375.536285 226.617508,375.381439 
	C243.162994,374.173126 259.715698,373.063873 276.261841,371.864166 
	C298.941437,370.219757 321.612793,368.459625 344.296448,366.874847 
	C355.542023,366.089142 366.807251,365.584320 377.331787,364.993469 
	C369.491882,359.363129 361.364868,353.482666 353.166077,347.704041 
	C352.314087,347.103577 351.041473,346.889282 349.955200,346.863129 
	C329.853363,346.379364 309.751617,345.860413 289.646820,345.542755 
	C275.352753,345.316895 261.053375,345.451111 246.757736,345.296509 
	C213.977463,344.941925 181.198120,344.501312 148.418167,344.116089 
	C143.419815,344.057343 138.420181,344.107880 132.029953,344.107880 
	C147.281662,355.772003 162.249863,365.370087 179.452682,369.953705 
	C192.442245,373.414734 206.088806,374.409973 220.296036,376.390259 
M1020.080750,351.610291 
	C1013.572510,355.945465 1007.064270,360.280609 1000.494141,364.657013 
	C1015.028320,365.567200 1029.444946,366.330841 1043.838135,367.405792 
	C1062.770630,368.819824 1081.679321,370.553650 1100.609131,372.006592 
	C1113.713257,373.012421 1126.894409,373.262482 1139.938354,374.751251 
	C1170.178833,378.202637 1198.796509,374.145782 1225.089600,358.001770 
	C1231.994873,353.761902 1238.750732,349.278625 1246.275757,344.458405 
	C1228.617798,344.458405 1212.172363,344.345673 1195.729248,344.485046 
	C1171.620972,344.689392 1147.514893,345.147766 1123.406616,345.358063 
	C1105.109497,345.517700 1086.808594,345.321777 1068.512695,345.548859 
	C1057.224854,345.688934 1045.927734,346.852081 1034.665527,346.517700 
	C1029.040161,346.350677 1024.255005,346.374969 1020.080750,351.610291 
M1091.360962,413.048035 
	C1109.580200,415.301117 1127.469604,414.242279 1144.941162,408.107880 
	C1155.841797,404.280457 1166.169189,399.431763 1176.587402,392.253265 
	C1166.977051,391.179626 1158.486938,390.239624 1149.998901,389.281403 
	C1115.685181,385.407684 1081.369019,381.556458 1047.060425,377.637115 
	C1033.526978,376.091125 1020.029541,374.212830 1006.481567,372.817139 
	C996.955811,371.835785 987.510071,370.145630 979.284546,378.363770 
	C975.329224,382.315430 968.958435,383.849457 962.757935,386.938416 
	C973.070923,389.100769 982.446777,391.139343 991.853333,393.024261 
	C1013.979858,397.458038 1036.130005,401.773560 1058.252319,406.227783 
	C1069.052368,408.402313 1079.811401,410.780060 1091.360962,413.048035 
M378.228027,394.559601 
	C390.223877,392.122437 402.219757,389.685272 414.215607,387.248108 
	C413.446136,385.563843 412.754395,385.211548 412.080811,384.827484 
	C405.049377,380.818146 398.072327,376.708374 390.952179,372.863556 
	C389.350586,371.998718 387.200500,371.568878 385.390656,371.761810 
	C370.084534,373.393463 354.805664,375.279083 339.505157,376.966522 
	C316.890869,379.460571 294.259521,381.799988 271.646729,384.307220 
	C251.316208,386.561371 231.002136,388.963562 210.677551,391.271667 
	C207.858246,391.591827 205.020187,391.746826 202.190811,391.978302 
	C208.118423,396.310516 214.170807,399.670013 220.416885,402.619324 
	C242.320877,412.962036 265.038269,417.118652 289.176727,412.152039 
	C318.532257,406.111969 347.982300,400.531342 378.228027,394.559601 
M917.642151,354.952789 
	C926.490356,348.535797 936.684753,345.458801 947.275208,344.193390 
	C969.986511,341.479736 992.760132,339.281952 1015.517761,336.965881 
	C1024.131348,336.089264 1032.788452,335.701996 1039.858032,329.596893 
	C1045.251465,324.939331 1050.908813,320.588531 1056.387329,316.027222 
	C1057.137695,315.402527 1057.531006,314.349213 1058.348999,313.097595 
	C1055.389893,313.097595 1053.058716,312.868347 1050.785522,313.134827 
	C1036.126465,314.853210 1021.479980,316.678467 1006.829712,318.471405 
	C986.564575,320.951416 966.248779,323.086700 946.054016,326.046783 
	C934.112000,327.797241 921.728943,329.023621 911.243164,335.740936 
	C904.880188,339.817200 899.148193,344.948700 893.424011,349.940155 
	C865.553589,374.242920 836.791992,397.324524 804.652954,415.875946 
	C799.116638,419.071655 793.661133,422.407318 788.168274,425.678345 
	C789.659119,425.972351 791.124390,425.939423 792.357422,425.387543 
	C808.971619,417.951050 826.295837,411.726105 841.975037,402.660187 
	C867.555725,387.869232 892.057983,371.213226 917.642151,354.952789 
M557.419312,351.159485 
	C547.868835,344.146545 538.318359,337.133606 527.520935,329.205048 
	C527.520935,336.698700 527.725403,343.143951 527.469727,349.570862 
	C527.140991,357.835815 530.279602,364.792938 536.374146,369.747650 
	C548.842346,379.883972 561.286255,390.232849 574.763123,398.904266 
	C596.777649,413.068970 620.343140,424.508850 644.631775,434.360535 
	C648.589417,435.965790 652.587769,437.470551 657.061279,439.214325 
	C656.863220,437.839813 656.935791,437.382141 656.749023,437.216125 
	C656.012268,436.561432 655.225098,435.951447 654.401611,435.408325 
	C642.770691,427.737640 635.067627,417.436920 632.375977,403.514801 
	C632.009033,401.616852 630.124634,399.594543 628.400330,398.439880 
	C604.976257,382.754120 581.456299,367.211487 557.419312,351.159485 
M763.678406,421.019165 
	C764.719299,420.517365 765.803284,420.088470 766.794800,419.502991 
	C784.315735,409.156708 802.289185,399.482971 819.163269,388.170013 
	C829.242493,381.412567 837.697693,372.188934 846.630920,363.805359 
	C848.298645,362.240173 849.563843,359.431000 849.653076,357.142822 
	C849.998535,348.282257 849.793518,339.400208 849.793518,329.954010 
	C840.882385,336.602203 832.759460,343.195374 824.113464,349.010864 
	C800.027710,365.211639 775.746582,381.122894 751.483704,397.058716 
	C747.954773,399.376495 745.062988,401.449585 744.588318,406.395599 
	C743.753906,415.089996 739.370911,422.183472 732.549011,427.760773 
	C728.473511,431.092712 724.577698,434.644226 720.601074,438.097046 
	C720.742310,438.487793 720.883545,438.878540 721.024719,439.269287 
	C735.004089,433.274078 748.983398,427.278870 763.678406,421.019165 
M959.207947,395.709473 
	C955.191650,395.303955 950.685242,393.532257 947.255676,394.762451 
	C938.750671,397.813293 930.737671,402.235474 922.523499,406.108429 
	C922.951294,406.314148 923.858887,406.885681 924.848022,407.204346 
	C931.154785,409.236176 937.485291,411.194244 943.797363,413.210144 
	C965.368774,420.099335 987.047974,426.674805 1008.464233,434.017059 
	C1022.392944,438.792297 1036.491699,441.315552 1051.160034,440.903412 
	C1066.339600,440.476898 1080.683838,435.962463 1095.109131,431.866058 
	C1096.782471,431.390869 1098.381226,430.653748 1100.014648,430.038055 
	C1100.010132,429.669373 1100.005493,429.300659 1100.000977,428.931976 
	C1053.342285,417.890808 1006.683533,406.849640 959.207947,395.709473 
M643.208557,355.322937 
	C650.072205,360.266693 656.789185,365.434174 663.856445,370.067261 
	C667.867615,372.696930 668.748291,375.290710 667.083557,379.859772 
	C663.347656,390.113159 660.207031,400.583435 656.824036,410.965424 
	C666.565369,405.033783 675.581116,398.568237 684.309143,391.735199 
	C687.540283,389.205597 689.682678,388.823730 693.166443,391.582916 
	C702.044434,398.614349 711.359680,405.093719 721.287964,412.371704 
	C721.032043,410.695801 721.024414,410.067780 720.836365,409.499390 
	C717.294678,398.792084 713.828552,388.057922 710.102844,377.414703 
	C709.207520,374.856842 709.824280,373.462646 711.848450,372.026764 
	C719.953613,366.277069 728.005859,360.452454 736.055176,354.624512 
	C737.690735,353.440338 739.228699,352.121490 741.647400,350.201202 
	C739.317871,349.824799 738.219543,349.474274 737.129395,349.498077 
	C726.715637,349.725342 716.294983,349.853729 705.894836,350.376740 
	C702.286621,350.558167 701.158508,348.980103 700.180664,345.939026 
	C696.715881,335.162720 692.979492,324.473724 689.194580,313.304657 
	C688.703491,314.266083 688.256714,314.913452 688.023987,315.630310 
	C684.696899,325.878204 681.260925,336.094299 678.177368,346.415497 
	C677.245056,349.535950 675.854187,350.549896 672.627075,350.495789 
	C661.073792,350.302124 649.515381,350.419922 636.616028,350.419922 
	C639.332214,352.420746 640.995972,353.646332 643.208557,355.322937 
M401.630066,423.833374 
	C419.682617,417.941101 437.735199,412.048798 455.347137,406.300323 
	C447.973541,402.713318 440.758606,399.041321 433.387695,395.714996 
	C431.130493,394.696411 428.396759,394.049866 425.967560,394.254974 
	C422.226013,394.570892 418.548462,395.724487 414.861877,396.598907 
	C383.690674,403.992432 352.517914,411.379517 321.357788,418.819519 
	C307.179077,422.204895 293.027832,425.705200 278.864136,429.153351 
	C284.802551,431.981934 290.703125,434.098328 296.727081,435.770447 
	C318.764465,441.887512 340.874054,443.026062 362.986938,436.111145 
	C375.628418,432.158020 388.238312,428.103973 401.630066,423.833374 
M999.825745,443.801147 
	C971.131470,433.442200 942.440369,423.074585 913.733337,412.751038 
	C912.359436,412.256958 910.673950,411.582458 909.423767,411.958008 
	C900.092896,414.761200 890.835266,417.808136 881.642334,420.750641 
	C897.369873,427.816528 913.179504,435.053284 929.103516,442.029266 
	C940.944702,447.216614 952.630676,453.047546 964.924988,456.847015 
	C985.901245,463.329498 1006.896057,458.724335 1029.061890,454.272095 
	C1018.811096,450.576141 1009.697021,447.290070 999.825745,443.801147 
M383.935059,459.821960 
	C396.140747,460.274780 408.345581,459.629669 419.646240,454.805847 
	C445.787262,443.647095 471.692535,431.936188 497.821686,420.392517 
	C491.332703,418.768921 484.667389,418.100891 478.933990,415.431396 
	C470.423737,411.469025 462.980804,413.028687 454.749908,416.088593 
	C425.499390,426.962799 396.056061,437.318390 366.686768,447.873169 
	C361.369446,449.784088 356.056824,451.708099 350.742035,453.626068 
	C350.793671,454.085846 350.845276,454.545593 350.896912,455.005341 
	C361.636078,456.540924 372.375244,458.076477 383.935059,459.821960 
M501.205688,427.818634 
	C477.565247,439.972198 453.924805,452.125763 430.284332,464.279327 
	C431.582489,465.612213 432.619232,466.088654 433.640076,466.056763 
	C441.372742,465.814972 449.196655,466.113800 456.807617,464.992188 
	C465.281555,463.743408 473.965210,462.155670 481.819031,458.921783 
	C490.958374,455.158600 499.351166,449.544281 507.966187,444.557495 
	C515.162598,440.391846 522.212280,435.972717 530.264709,431.098175 
	C523.330383,429.391724 517.643433,428.323212 512.191589,426.536774 
	C508.419312,425.300659 505.149170,425.171722 501.205688,427.818634 
M869.901489,425.308685 
	C863.038025,427.209808 856.174561,429.110931 848.750610,431.167297 
	C858.200745,437.109375 866.672363,442.972198 875.643005,447.932495 
	C885.441956,453.350708 895.243896,459.896606 905.878662,462.381714 
	C919.048523,465.459290 933.075378,464.874084 946.735352,465.822937 
	C947.062500,465.845673 947.429321,465.297821 948.551453,464.390289 
	C922.196655,451.077209 896.334167,438.012848 869.901489,425.308685 
M558.840332,427.461609 
	C553.728149,430.372650 549.175171,434.704102 542.450012,433.391724 
	C541.401672,433.187134 539.981750,434.163452 538.918457,434.871368 
	C528.322327,441.925934 517.746460,449.011292 507.205261,456.147644 
	C502.483673,459.344116 497.853699,462.675873 493.182129,465.946259 
	C493.352051,466.384918 493.521942,466.823608 493.691833,467.262268 
	C498.566132,466.826050 503.448517,466.464386 508.313019,465.937866 
	C518.004517,464.888885 527.461914,462.687103 535.578857,457.132812 
	C546.676575,449.538910 557.410828,441.413269 568.282776,433.490692 
	C570.346863,431.986603 572.326599,430.366791 574.876099,428.388489 
	C569.259399,427.210785 564.820190,422.201477 558.840332,427.461609 
M836.901245,453.448517 
	C850.988586,463.633514 866.767700,467.601105 884.216553,466.280914 
	C883.916870,465.795929 883.775024,465.300903 883.447510,465.074860 
	C869.552368,455.483459 855.659180,445.888916 841.709167,436.377686 
	C839.824951,435.092957 837.558289,433.218018 835.618652,433.382660 
	C829.921143,433.866425 825.568481,431.268860 821.572937,428.114716 
	C815.366150,423.215057 809.844055,424.788574 804.021912,428.925720 
	C814.873657,437.062469 825.574829,445.086365 836.901245,453.448517 
M908.863586,369.430023 
	C905.526611,371.662018 902.189575,373.894012 898.334961,376.472137 
	C904.058960,377.585938 908.926941,378.842682 913.874329,379.428833 
	C923.056030,380.516693 932.315674,380.964111 941.485413,382.130249 
	C955.555176,383.919556 967.032776,377.884399 979.375671,370.844788 
	C977.866272,370.385559 977.464172,370.188477 977.046631,370.146942 
	C959.572449,368.409546 942.083069,366.810974 924.629211,364.890015 
	C918.874878,364.256714 913.794495,364.984833 908.863586,369.430023 
M440.952362,365.803680 
	C427.373169,367.303192 413.793976,368.802734 399.015503,370.434692 
	C409.441345,377.379883 419.687164,382.825958 431.063293,382.318634 
	C447.000549,381.607849 462.846802,378.856110 479.672729,376.866211 
	C469.845764,369.308014 460.970306,362.288544 448.329773,365.179047 
	C446.244415,365.655914 444.035339,365.591949 440.952362,365.803680 
M929.944580,358.286713 
	C945.819824,359.273346 961.726501,359.912842 977.561462,361.345245 
	C993.083313,362.749329 1004.291809,354.444916 1015.717834,346.110718 
	C999.901550,346.451172 984.186890,346.810455 968.576843,348.280579 
	C956.722107,349.397003 944.979919,351.812225 933.235474,353.916748 
	C930.638062,354.382141 928.242310,355.973053 925.753662,357.045685 
	C925.912292,357.440765 926.070862,357.835846 926.229492,358.230927 
	C927.180603,358.230927 928.131714,358.230927 929.944580,358.286713 
M401.820892,347.862610 
	C388.862000,347.023804 375.903076,346.184998 362.944183,345.346161 
	C362.780975,345.882568 362.617767,346.418945 362.454559,346.955322 
	C368.059174,350.371765 373.535339,354.025909 379.302521,357.141449 
	C385.782776,360.642212 392.595123,362.933258 400.277405,361.914459 
	C407.498383,360.956818 414.798462,360.581329 422.068787,360.014282 
	C432.009857,359.239014 441.955658,358.524902 451.899445,357.784607 
	C448.357330,355.569672 444.711060,354.015137 440.943481,352.854279 
	C428.509369,349.023346 415.573395,348.894501 401.820892,347.862610 
M918.484680,387.305298 
	C912.120239,386.208710 905.777954,384.949219 899.382812,384.077911 
	C895.673828,383.572632 891.446228,382.554749 888.221558,383.784912 
	C882.824219,385.843933 878.042480,389.516693 873.001709,392.510254 
	C882.119141,395.480438 891.323853,396.862030 900.291748,399.165497 
	C914.468140,402.806793 926.626587,397.779480 940.119385,391.020721 
	C932.273682,389.691162 925.797119,388.593597 918.484680,387.305298 
M453.681030,397.791779 
	C458.952423,398.861938 464.425171,401.399963 469.455048,400.709869 
	C481.530457,399.053131 493.397919,395.881104 506.415558,393.092102 
	C500.833221,389.814301 496.339233,387.112091 491.773926,384.536224 
	C490.516479,383.826752 488.949707,382.882843 487.688293,383.081909 
	C471.903870,385.573212 456.149567,388.255157 440.387512,390.888245 
	C440.345093,391.288422 440.302673,391.688599 440.260223,392.088806 
	C444.494995,393.881500 448.729736,395.674164 453.681030,397.791779 
M571.568176,458.016418 
	C580.150330,451.306427 588.732422,444.596466 597.502747,437.739410 
	C595.082214,436.700317 593.193665,435.553741 591.150635,435.094421 
	C588.370178,434.469299 584.542786,433.027985 582.770691,434.255524 
	C568.465271,444.164886 554.536743,454.618469 540.493164,464.905884 
	C540.756958,465.406006 541.020752,465.906097 541.284485,466.406219 
	C551.681763,465.810669 561.732666,463.816406 571.568176,458.016418 
M794.502014,448.934265 
	C806.152161,460.145935 819.815186,466.283539 836.833496,465.825104 
	C833.234985,462.890411 830.221680,460.311279 827.082581,457.895569 
	C817.346252,450.402740 807.683472,442.804413 797.737244,435.598938 
	C793.707397,432.679596 785.994019,434.119751 781.319153,438.053619 
	C785.578247,441.543213 789.781494,444.986969 794.502014,448.934265 
M527.737244,408.478729 
	C528.401672,408.176331 529.066162,407.873962 530.515869,407.214203 
	C525.564758,404.364868 521.359619,401.835114 517.036011,399.527313 
	C515.825500,398.881165 514.128357,398.358093 512.887878,398.679535 
	C501.395935,401.657715 489.955078,404.833160 477.495789,408.224518 
	C488.480377,412.263855 498.702209,415.142914 509.378326,413.802734 
	C515.399231,413.046936 521.204102,410.569580 527.737244,408.478729 
M874.645508,401.121735 
	C864.654053,396.798615 856.617981,400.943817 848.877380,406.951202 
	C864.664612,415.643158 886.317932,416.131317 900.272278,407.891937 
	C891.734619,405.665955 883.581238,403.540161 874.645508,401.121735 
M537.484497,425.544800 
	C544.192444,426.556030 549.013611,423.093262 554.445557,418.677368 
	C549.595337,416.337433 545.561523,414.095886 541.292419,412.473358 
	C539.519531,411.799591 537.009155,411.874542 535.240173,412.599670 
	C529.259460,415.051331 523.460632,417.946716 517.592285,420.672546 
	C517.532593,421.045288 517.472961,421.418060 517.413269,421.790833 
	C523.859924,422.990570 530.306641,424.190338 537.484497,425.544800 
M850.124207,424.198395 
	C853.835327,423.332672 857.546387,422.466949 861.257507,421.601227 
	C854.613586,417.710846 848.152649,414.922668 841.619324,412.315826 
	C840.509094,411.872833 838.900085,411.786377 837.843628,412.257507 
	C833.424744,414.228149 829.128662,416.474030 824.850891,418.587708 
	C825.044922,419.271393 825.044250,419.662354 825.239136,419.867737 
	C825.571716,420.218140 826.038635,420.437134 826.429138,420.737213 
	C833.388916,426.084808 841.236694,425.566589 850.124207,424.198395 
M610.932983,449.414337 
	C613.071777,447.283508 615.210571,445.152679 617.349426,443.021851 
	C617.158936,442.529968 616.968506,442.038055 616.778076,441.546173 
	C612.734863,441.546173 607.590759,439.956299 604.858032,441.848694 
	C597.111755,447.212738 590.351685,454.000946 582.358093,460.964661 
	C593.598633,459.843140 602.694763,456.590790 610.932983,449.414337 
M775.884033,455.479431 
	C781.611938,457.235291 787.339783,458.991180 793.067688,460.747070 
	C793.298218,460.191620 793.528809,459.636169 793.759399,459.080719 
	C788.239929,454.385773 782.433716,449.982178 777.283325,444.912292 
	C772.334167,440.040558 767.261658,440.731354 760.518677,443.123749 
	C765.865845,447.495331 770.556824,451.330414 775.884033,455.479431 
M785.493347,426.525848 
	C785.493347,426.525848 785.492615,426.486908 785.493347,426.525848 
M787.525635,427.506683 
	C787.525635,427.506683 787.486694,427.507538 787.525635,427.506683 
z"/>
<path fill="#FBFBFA" opacity="1.000000" stroke="none" 
	d="
M1152.279053,332.055298 
	C1113.646729,334.631500 1075.473511,337.187744 1035.763062,339.846924 
	C1038.722656,337.762329 1040.668701,336.560730 1042.424316,335.126251 
	C1050.633545,328.418396 1059.332886,322.187286 1066.783203,314.715088 
	C1072.131714,309.350922 1078.520142,309.794128 1084.613770,309.002075 
	C1120.451904,304.343994 1156.352295,300.168243 1192.213257,295.682739 
	C1222.531738,291.890442 1252.824829,287.896973 1283.131348,284.008179 
	C1283.613770,283.946289 1284.121826,284.083923 1284.775391,284.142548 
	C1284.711792,284.609619 1284.818237,285.223999 1284.569824,285.452515 
	C1266.085938,302.452637 1246.422607,317.782959 1221.660889,324.381287 
	C1210.858398,327.259888 1199.608154,328.765656 1188.461060,329.959869 
	C1176.615356,331.228943 1164.650879,331.390259 1152.279053,332.055298 
z"/>
<path fill="#FBFBFB" opacity="1.000000" stroke="none" 
	d="
M200.592178,330.201233 
	C180.913055,329.607483 161.930237,327.792511 144.042160,319.929749 
	C124.807922,311.475342 107.979591,299.587830 92.359322,283.915588 
	C113.116371,286.545685 132.818466,289.104797 152.537537,291.525726 
	C180.757050,294.990204 209.001495,298.253571 237.211594,301.791870 
	C260.083984,304.660675 282.923889,307.789856 305.767426,310.883026 
	C306.972961,311.046234 308.288116,311.719086 309.197815,312.545044 
	C318.878143,321.334351 328.486725,330.202698 338.754822,339.637146 
	C292.848999,336.498474 246.952682,333.360474 200.592178,330.201233 
z"/>
<path fill="#FAFAFA" opacity="1.000000" stroke="none" 
	d="
M219.869507,376.446472 
	C206.088806,374.409973 192.442245,373.414734 179.452682,369.953705 
	C162.249863,365.370087 147.281662,355.772003 132.029953,344.107880 
	C138.420181,344.107880 143.419815,344.057343 148.418167,344.116089 
	C181.198120,344.501312 213.977463,344.941925 246.757736,345.296509 
	C261.053375,345.451111 275.352753,345.316895 289.646820,345.542755 
	C309.751617,345.860413 329.853363,346.379364 349.955200,346.863129 
	C351.041473,346.889282 352.314087,347.103577 353.166077,347.704041 
	C361.364868,353.482666 369.491882,359.363129 377.331787,364.993469 
	C366.807251,365.584320 355.542023,366.089142 344.296448,366.874847 
	C321.612793,368.459625 298.941437,370.219757 276.261841,371.864166 
	C259.715698,373.063873 243.162994,374.173126 226.617508,375.381439 
	C224.497116,375.536285 222.402573,376.045319 219.869507,376.446472 
z"/>
<path fill="#FAFAFA" opacity="1.000000" stroke="none" 
	d="
M1020.311462,351.334778 
	C1024.255005,346.374969 1029.040161,346.350677 1034.665527,346.517700 
	C1045.927734,346.852081 1057.224854,345.688934 1068.512695,345.548859 
	C1086.808594,345.321777 1105.109497,345.517700 1123.406616,345.358063 
	C1147.514893,345.147766 1171.620972,344.689392 1195.729248,344.485046 
	C1212.172363,344.345673 1228.617798,344.458405 1246.275757,344.458405 
	C1238.750732,349.278625 1231.994873,353.761902 1225.089600,358.001770 
	C1198.796509,374.145782 1170.178833,378.202637 1139.938354,374.751251 
	C1126.894409,373.262482 1113.713257,373.012421 1100.609131,372.006592 
	C1081.679321,370.553650 1062.770630,368.819824 1043.838135,367.405792 
	C1029.444946,366.330841 1015.028320,365.567200 1000.494141,364.657013 
	C1007.064270,360.280609 1013.572510,355.945465 1020.311462,351.334778 
z"/>
<path fill="#FAFAFA" opacity="1.000000" stroke="none" 
	d="
M1090.974976,413.056946 
	C1079.811401,410.780060 1069.052368,408.402313 1058.252319,406.227783 
	C1036.130005,401.773560 1013.979858,397.458038 991.853333,393.024261 
	C982.446777,391.139343 973.070923,389.100769 962.757935,386.938416 
	C968.958435,383.849457 975.329224,382.315430 979.284546,378.363770 
	C987.510071,370.145630 996.955811,371.835785 1006.481567,372.817139 
	C1020.029541,374.212830 1033.526978,376.091125 1047.060425,377.637115 
	C1081.369019,381.556458 1115.685181,385.407684 1149.998901,389.281403 
	C1158.486938,390.239624 1166.977051,391.179626 1176.587402,392.253265 
	C1166.169189,399.431763 1155.841797,404.280457 1144.941162,408.107880 
	C1127.469604,414.242279 1109.580200,415.301117 1090.974976,413.056946 
z"/>
<path fill="#FBFBFA" opacity="1.000000" stroke="none" 
	d="
M377.809753,394.655792 
	C347.982300,400.531342 318.532257,406.111969 289.176727,412.152039 
	C265.038269,417.118652 242.320877,412.962036 220.416885,402.619324 
	C214.170807,399.670013 208.118423,396.310516 202.190811,391.978302 
	C205.020187,391.746826 207.858246,391.591827 210.677551,391.271667 
	C231.002136,388.963562 251.316208,386.561371 271.646729,384.307220 
	C294.259521,381.799988 316.890869,379.460571 339.505157,376.966522 
	C354.805664,375.279083 370.084534,373.393463 385.390656,371.761810 
	C387.200500,371.568878 389.350586,371.998718 390.952179,372.863556 
	C398.072327,376.708374 405.049377,380.818146 412.080811,384.827484 
	C412.754395,385.211548 413.446136,385.563843 414.215607,387.248108 
	C402.219757,389.685272 390.223877,392.122437 377.809753,394.655792 
z"/>
<path fill="#F8F8F8" opacity="1.000000" stroke="none" 
	d="
M917.328735,355.148438 
	C892.057983,371.213226 867.555725,387.869232 841.975037,402.660187 
	C826.295837,411.726105 808.971619,417.951050 792.357422,425.387543 
	C791.124390,425.939423 789.659119,425.972351 788.168274,425.678345 
	C793.661133,422.407318 799.116638,419.071655 804.652954,415.875946 
	C836.791992,397.324524 865.553589,374.242920 893.424011,349.940155 
	C899.148193,344.948700 904.880188,339.817200 911.243164,335.740936 
	C921.728943,329.023621 934.112000,327.797241 946.054016,326.046783 
	C966.248779,323.086700 986.564575,320.951416 1006.829712,318.471405 
	C1021.479980,316.678467 1036.126465,314.853210 1050.785522,313.134827 
	C1053.058716,312.868347 1055.389893,313.097595 1058.348999,313.097595 
	C1057.531006,314.349213 1057.137695,315.402527 1056.387329,316.027222 
	C1050.908813,320.588531 1045.251465,324.939331 1039.858032,329.596893 
	C1032.788452,335.701996 1024.131348,336.089264 1015.517761,336.965881 
	C992.760132,339.281952 969.986511,341.479736 947.275208,344.193390 
	C936.684753,345.458801 926.490356,348.535797 917.328735,355.148438 
z"/>
<path fill="#F8F8F8" opacity="1.000000" stroke="none" 
	d="
M590.095886,427.261383 
	C587.580444,426.318115 585.028687,425.460846 582.554932,424.418640 
	C545.562500,408.833832 510.536713,389.647736 477.473480,366.888306 
	C471.054260,362.469604 464.776917,357.845154 458.368408,353.410553 
	C450.199371,347.757690 440.809052,345.426758 431.175262,344.350708 
	C407.605591,341.718079 384.043427,338.706543 360.391968,337.218231 
	C342.020844,336.062225 331.213867,324.139465 319.753113,312.091217 
	C331.872192,313.680511 343.983673,315.330414 356.111847,316.846985 
	C384.819794,320.436768 413.536072,323.959900 442.248138,327.516754 
	C457.136780,329.361145 469.411743,336.244934 480.662537,346.021667 
	C496.470306,359.758423 512.541687,373.255829 529.219360,385.907776 
	C543.082397,396.424408 557.943787,405.632202 572.451111,415.287384 
	C576.149963,417.749084 580.294678,419.537506 584.017151,421.968231 
	C585.991516,423.257446 587.499390,425.261139 589.616882,427.064453 
	C590.015930,427.186615 590.095886,427.261383 590.095886,427.261383 
z"/>
<path fill="#FAFAFA" opacity="1.000000" stroke="none" 
	d="
M557.689697,351.396484 
	C581.456299,367.211487 604.976257,382.754120 628.400330,398.439880 
	C630.124634,399.594543 632.009033,401.616852 632.375977,403.514801 
	C635.067627,417.436920 642.770691,427.737640 654.401611,435.408325 
	C655.225098,435.951447 656.012268,436.561432 656.749023,437.216125 
	C656.935791,437.382141 656.863220,437.839813 657.061279,439.214325 
	C652.587769,437.470551 648.589417,435.965790 644.631775,434.360535 
	C620.343140,424.508850 596.777649,413.068970 574.763123,398.904266 
	C561.286255,390.232849 548.842346,379.883972 536.374146,369.747650 
	C530.279602,364.792938 527.140991,357.835815 527.469727,349.570862 
	C527.725403,343.143951 527.520935,336.698700 527.520935,329.205048 
	C538.318359,337.133606 547.868835,344.146545 557.689697,351.396484 
z"/>
<path fill="#FBFBFA" opacity="1.000000" stroke="none" 
	d="
M763.320557,421.151428 
	C748.983398,427.278870 735.004089,433.274078 721.024719,439.269287 
	C720.883545,438.878540 720.742310,438.487793 720.601074,438.097046 
	C724.577698,434.644226 728.473511,431.092712 732.549011,427.760773 
	C739.370911,422.183472 743.753906,415.089996 744.588318,406.395599 
	C745.062988,401.449585 747.954773,399.376495 751.483704,397.058716 
	C775.746582,381.122894 800.027710,365.211639 824.113464,349.010864 
	C832.759460,343.195374 840.882385,336.602203 849.793518,329.954010 
	C849.793518,339.400208 849.998535,348.282257 849.653076,357.142822 
	C849.563843,359.431000 848.298645,362.240173 846.630920,363.805359 
	C837.697693,372.188934 829.242493,381.412567 819.163269,388.170013 
	C802.289185,399.482971 784.315735,409.156708 766.794800,419.502991 
	C765.803284,420.088470 764.719299,420.517365 763.320557,421.151428 
z"/>
<path fill="#FAFAFA" opacity="1.000000" stroke="none" 
	d="
M959.616394,395.758972 
	C1006.683533,406.849640 1053.342285,417.890808 1100.000977,428.931976 
	C1100.005493,429.300659 1100.010132,429.669373 1100.014648,430.038055 
	C1098.381226,430.653748 1096.782471,431.390869 1095.109131,431.866058 
	C1080.683838,435.962463 1066.339600,440.476898 1051.160034,440.903412 
	C1036.491699,441.315552 1022.392944,438.792297 1008.464233,434.017059 
	C987.047974,426.674805 965.368774,420.099335 943.797363,413.210144 
	C937.485291,411.194244 931.154785,409.236176 924.848022,407.204346 
	C923.858887,406.885681 922.951294,406.314148 922.523499,406.108429 
	C930.737671,402.235474 938.750671,397.813293 947.255676,394.762451 
	C950.685242,393.532257 955.191650,395.303955 959.616394,395.758972 
z"/>
<path fill="#F8F8F8" opacity="1.000000" stroke="none" 
	d="
M642.934143,355.097412 
	C640.995972,353.646332 639.332214,352.420746 636.616028,350.419922 
	C649.515381,350.419922 661.073792,350.302124 672.627075,350.495789 
	C675.854187,350.549896 677.245056,349.535950 678.177368,346.415497 
	C681.260925,336.094299 684.696899,325.878204 688.023987,315.630310 
	C688.256714,314.913452 688.703491,314.266083 689.194580,313.304657 
	C692.979492,324.473724 696.715881,335.162720 700.180664,345.939026 
	C701.158508,348.980103 702.286621,350.558167 705.894836,350.376740 
	C716.294983,349.853729 726.715637,349.725342 737.129395,349.498077 
	C738.219543,349.474274 739.317871,349.824799 741.647400,350.201202 
	C739.228699,352.121490 737.690735,353.440338 736.055176,354.624512 
	C728.005859,360.452454 719.953613,366.277069 711.848450,372.026764 
	C709.824280,373.462646 709.207520,374.856842 710.102844,377.414703 
	C713.828552,388.057922 717.294678,398.792084 720.836365,409.499390 
	C721.024414,410.067780 721.032043,410.695801 721.287964,412.371704 
	C711.359680,405.093719 702.044434,398.614349 693.166443,391.582916 
	C689.682678,388.823730 687.540283,389.205597 684.309143,391.735199 
	C675.581116,398.568237 666.565369,405.033783 656.824036,410.965424 
	C660.207031,400.583435 663.347656,390.113159 667.083557,379.859772 
	C668.748291,375.290710 667.867615,372.696930 663.856445,370.067261 
	C656.789185,365.434174 650.072205,360.266693 642.934143,355.097412 
z"/>
<path fill="#FAFAFA" opacity="1.000000" stroke="none" 
	d="
M401.246246,423.964355 
	C388.238312,428.103973 375.628418,432.158020 362.986938,436.111145 
	C340.874054,443.026062 318.764465,441.887512 296.727081,435.770447 
	C290.703125,434.098328 284.802551,431.981934 278.864136,429.153351 
	C293.027832,425.705200 307.179077,422.204895 321.357788,418.819519 
	C352.517914,411.379517 383.690674,403.992432 414.861877,396.598907 
	C418.548462,395.724487 422.226013,394.570892 425.967560,394.254974 
	C428.396759,394.049866 431.130493,394.696411 433.387695,395.714996 
	C440.758606,399.041321 447.973541,402.713318 455.347137,406.300323 
	C437.735199,412.048798 419.682617,417.941101 401.246246,423.964355 
z"/>
<path fill="#F9F9F9" opacity="1.000000" stroke="none" 
	d="
M1000.204346,443.902557 
	C1009.697021,447.290070 1018.811096,450.576141 1029.061890,454.272095 
	C1006.896057,458.724335 985.901245,463.329498 964.924988,456.847015 
	C952.630676,453.047546 940.944702,447.216614 929.103516,442.029266 
	C913.179504,435.053284 897.369873,427.816528 881.642334,420.750641 
	C890.835266,417.808136 900.092896,414.761200 909.423767,411.958008 
	C910.673950,411.582458 912.359436,412.256958 913.733337,412.751038 
	C942.440369,423.074585 971.131470,433.442200 1000.204346,443.902557 
z"/>
<path fill="#F9F9F9" opacity="1.000000" stroke="none" 
	d="
M383.524719,459.716980 
	C372.375244,458.076477 361.636078,456.540924 350.896912,455.005341 
	C350.845276,454.545593 350.793671,454.085846 350.742035,453.626068 
	C356.056824,451.708099 361.369446,449.784088 366.686768,447.873169 
	C396.056061,437.318390 425.499390,426.962799 454.749908,416.088593 
	C462.980804,413.028687 470.423737,411.469025 478.933990,415.431396 
	C484.667389,418.100891 491.332703,418.768921 497.821686,420.392517 
	C471.692535,431.936188 445.787262,443.647095 419.646240,454.805847 
	C408.345581,459.629669 396.140747,460.274780 383.524719,459.716980 
z"/>
<path fill="#F7F7F7" opacity="1.000000" stroke="none" 
	d="
M501.555511,427.664246 
	C505.149170,425.171722 508.419312,425.300659 512.191589,426.536774 
	C517.643433,428.323212 523.330383,429.391724 530.264709,431.098175 
	C522.212280,435.972717 515.162598,440.391846 507.966187,444.557495 
	C499.351166,449.544281 490.958374,455.158600 481.819031,458.921783 
	C473.965210,462.155670 465.281555,463.743408 456.807617,464.992188 
	C449.196655,466.113800 441.372742,465.814972 433.640076,466.056763 
	C432.619232,466.088654 431.582489,465.612213 430.284332,464.279327 
	C453.924805,452.125763 477.565247,439.972198 501.555511,427.664246 
z"/>
<path fill="#F7F7F7" opacity="1.000000" stroke="none" 
	d="
M870.186584,425.128571 
	C896.334167,438.012848 922.196655,451.077209 948.551453,464.390289 
	C947.429321,465.297821 947.062500,465.845673 946.735352,465.822937 
	C933.075378,464.874084 919.048523,465.459290 905.878662,462.381714 
	C895.243896,459.896606 885.441956,453.350708 875.643005,447.932495 
	C866.672363,442.972198 858.200745,437.109375 848.750610,431.167297 
	C856.174561,429.110931 863.038025,427.209808 870.186584,425.128571 
z"/>
<path fill="#F6F6F6" opacity="1.000000" stroke="none" 
	d="
M559.136963,427.259888 
	C564.820190,422.201477 569.259399,427.210785 574.876099,428.388489 
	C572.326599,430.366791 570.346863,431.986603 568.282776,433.490692 
	C557.410828,441.413269 546.676575,449.538910 535.578857,457.132812 
	C527.461914,462.687103 518.004517,464.888885 508.313019,465.937866 
	C503.448517,466.464386 498.566132,466.826050 493.691833,467.262268 
	C493.521942,466.823608 493.352051,466.384918 493.182129,465.946259 
	C497.853699,462.675873 502.483673,459.344116 507.205261,456.147644 
	C517.746460,449.011292 528.322327,441.925934 538.918457,434.871368 
	C539.981750,434.163452 541.401672,433.187134 542.450012,433.391724 
	C549.175171,434.704102 553.728149,430.372650 559.136963,427.259888 
z"/>
<path fill="#F7F7F6" opacity="1.000000" stroke="none" 
	d="
M836.588623,453.279388 
	C825.574829,445.086365 814.873657,437.062469 804.021912,428.925720 
	C809.844055,424.788574 815.366150,423.215057 821.572937,428.114716 
	C825.568481,431.268860 829.921143,433.866425 835.618652,433.382660 
	C837.558289,433.218018 839.824951,435.092957 841.709167,436.377686 
	C855.659180,445.888916 869.552368,455.483459 883.447510,465.074860 
	C883.775024,465.300903 883.916870,465.795929 884.216553,466.280914 
	C866.767700,467.601105 850.988586,463.633514 836.588623,453.279388 
z"/>
<path fill="#F5F5F5" opacity="1.000000" stroke="none" 
	d="
M909.154907,369.214752 
	C913.794495,364.984833 918.874878,364.256714 924.629211,364.890015 
	C942.083069,366.810974 959.572449,368.409546 977.046631,370.146942 
	C977.464172,370.188477 977.866272,370.385559 979.375671,370.844788 
	C967.032776,377.884399 955.555176,383.919556 941.485413,382.130249 
	C932.315674,380.964111 923.056030,380.516693 913.874329,379.428833 
	C908.926941,378.842682 904.058960,377.585938 898.334961,376.472137 
	C902.189575,373.894012 905.526611,371.662018 909.154907,369.214752 
z"/>
<path fill="#F7F7F6" opacity="1.000000" stroke="none" 
	d="
M441.417908,365.790833 
	C444.035339,365.591949 446.244415,365.655914 448.329773,365.179047 
	C460.970306,362.288544 469.845764,369.308014 479.672729,376.866211 
	C462.846802,378.856110 447.000549,381.607849 431.063293,382.318634 
	C419.687164,382.825958 409.441345,377.379883 399.015503,370.434692 
	C413.793976,368.802734 427.373169,367.303192 441.417908,365.790833 
z"/>
<path fill="#F4F4F4" opacity="1.000000" stroke="none" 
	d="
M929.513672,358.258820 
	C928.131714,358.230927 927.180603,358.230927 926.229492,358.230927 
	C926.070862,357.835846 925.912292,357.440765 925.753662,357.045685 
	C928.242310,355.973053 930.638062,354.382141 933.235474,353.916748 
	C944.979919,351.812225 956.722107,349.397003 968.576843,348.280579 
	C984.186890,346.810455 999.901550,346.451172 1015.717834,346.110718 
	C1004.291809,354.444916 993.083313,362.749329 977.561462,361.345245 
	C961.726501,359.912842 945.819824,359.273346 929.513672,358.258820 
z"/>
<path fill="#F4F4F4" opacity="1.000000" stroke="none" 
	d="
M402.289368,347.884399 
	C415.573395,348.894501 428.509369,349.023346 440.943481,352.854279 
	C444.711060,354.015137 448.357330,355.569672 451.899445,357.784607 
	C441.955658,358.524902 432.009857,359.239014 422.068787,360.014282 
	C414.798462,360.581329 407.498383,360.956818 400.277405,361.914459 
	C392.595123,362.933258 385.782776,360.642212 379.302521,357.141449 
	C373.535339,354.025909 368.059174,350.371765 362.454559,346.955322 
	C362.617767,346.418945 362.780975,345.882568 362.944183,345.346161 
	C375.903076,346.184998 388.862000,347.023804 402.289368,347.884399 
z"/>
<path fill="#F7F7F6" opacity="1.000000" stroke="none" 
	d="
M918.902588,387.400696 
	C925.797119,388.593597 932.273682,389.691162 940.119385,391.020721 
	C926.626587,397.779480 914.468140,402.806793 900.291748,399.165497 
	C891.323853,396.862030 882.119141,395.480438 873.001709,392.510254 
	C878.042480,389.516693 882.824219,385.843933 888.221558,383.784912 
	C891.446228,382.554749 895.673828,383.572632 899.382812,384.077911 
	C905.777954,384.949219 912.120239,386.208710 918.902588,387.400696 
z"/>
<path fill="#F6F6F6" opacity="1.000000" stroke="none" 
	d="
M453.322754,397.629333 
	C448.729736,395.674164 444.494995,393.881500 440.260223,392.088806 
	C440.302673,391.688599 440.345093,391.288422 440.387512,390.888245 
	C456.149567,388.255157 471.903870,385.573212 487.688293,383.081909 
	C488.949707,382.882843 490.516479,383.826752 491.773926,384.536224 
	C496.339233,387.112091 500.833221,389.814301 506.415558,393.092102 
	C493.397919,395.881104 481.530457,399.053131 469.455048,400.709869 
	C464.425171,401.399963 458.952423,398.861938 453.322754,397.629333 
z"/>
<path fill="#F5F5F5" opacity="1.000000" stroke="none" 
	d="
M571.248352,458.192688 
	C561.732666,463.816406 551.681763,465.810669 541.284485,466.406219 
	C541.020752,465.906097 540.756958,465.406006 540.493164,464.905884 
	C554.536743,454.618469 568.465271,444.164886 582.770691,434.255524 
	C584.542786,433.027985 588.370178,434.469299 591.150635,435.094421 
	C593.193665,435.553741 595.082214,436.700317 597.502747,437.739410 
	C588.732422,444.596466 580.150330,451.306427 571.248352,458.192688 
z"/>
<path fill="#F6F6F6" opacity="1.000000" stroke="none" 
	d="
M794.243347,448.682495 
	C789.781494,444.986969 785.578247,441.543213 781.319153,438.053619 
	C785.994019,434.119751 793.707397,432.679596 797.737244,435.598938 
	C807.683472,442.804413 817.346252,450.402740 827.082581,457.895569 
	C830.221680,460.311279 833.234985,462.890411 836.833496,465.825104 
	C819.815186,466.283539 806.152161,460.145935 794.243347,448.682495 
z"/>
<path fill="#F3F3F3" opacity="1.000000" stroke="none" 
	d="
M527.421753,408.673248 
	C521.204102,410.569580 515.399231,413.046936 509.378326,413.802734 
	C498.702209,415.142914 488.480377,412.263855 477.495789,408.224518 
	C489.955078,404.833160 501.395935,401.657715 512.887878,398.679535 
	C514.128357,398.358093 515.825500,398.881165 517.036011,399.527313 
	C521.359619,401.835114 525.564758,404.364868 530.515869,407.214203 
	C529.066162,407.873962 528.401672,408.176331 527.421753,408.673248 
z"/>
<path fill="#F4F4F4" opacity="1.000000" stroke="none" 
	d="
M875.036682,401.268066 
	C883.581238,403.540161 891.734619,405.665955 900.272278,407.891937 
	C886.317932,416.131317 864.664612,415.643158 848.877380,406.951202 
	C856.617981,400.943817 864.654053,396.798615 875.036682,401.268066 
z"/>
<path fill="#F3F3F3" opacity="1.000000" stroke="none" 
	d="
M537.118896,425.467438 
	C530.306641,424.190338 523.859924,422.990570 517.413269,421.790833 
	C517.472961,421.418060 517.532593,421.045288 517.592285,420.672546 
	C523.460632,417.946716 529.259460,415.051331 535.240173,412.599670 
	C537.009155,411.874542 539.519531,411.799591 541.292419,412.473358 
	C545.561523,414.095886 549.595337,416.337433 554.445557,418.677368 
	C549.013611,423.093262 544.192444,426.556030 537.118896,425.467438 
z"/>
<path fill="#F2F2F1" opacity="1.000000" stroke="none" 
	d="
M849.669495,424.195923 
	C841.236694,425.566589 833.388916,426.084808 826.429138,420.737213 
	C826.038635,420.437134 825.571716,420.218140 825.239136,419.867737 
	C825.044250,419.662354 825.044922,419.271393 824.850891,418.587708 
	C829.128662,416.474030 833.424744,414.228149 837.843628,412.257507 
	C838.900085,411.786377 840.509094,411.872833 841.619324,412.315826 
	C848.152649,414.922668 854.613586,417.710846 861.257507,421.601227 
	C857.546387,422.466949 853.835327,423.332672 849.669495,424.195923 
z"/>
<path fill="#EDEDED" opacity="1.000000" stroke="none" 
	d="
M610.684570,449.662109 
	C602.694763,456.590790 593.598633,459.843140 582.358093,460.964661 
	C590.351685,454.000946 597.111755,447.212738 604.858032,441.848694 
	C607.590759,439.956299 612.734863,441.546173 616.778076,441.546173 
	C616.968506,442.038055 617.158936,442.529968 617.349426,443.021851 
	C615.210571,445.152679 613.071777,447.283508 610.684570,449.662109 
z"/>
<path fill="#F2F2F1" opacity="1.000000" stroke="none" 
	d="
M775.565918,455.322449 
	C770.556824,451.330414 765.865845,447.495331 760.518677,443.123749 
	C767.261658,440.731354 772.334167,440.040558 777.283325,444.912292 
	C782.433716,449.982178 788.239929,454.385773 793.759399,459.080719 
	C793.528809,459.636169 793.298218,460.191620 793.067688,460.747070 
	C787.339783,458.991180 781.611938,457.235291 775.565918,455.322449 
z"/>
<path fill="#F8F8F8" opacity="1.000000" stroke="none" 
	d="
M785.492981,426.506378 
	C785.492615,426.486908 785.493347,426.525848 785.492981,426.506378 
z"/>
<path fill="#F8F8F8" opacity="1.000000" stroke="none" 
	d="
M589.961243,427.183960 
	C589.906555,427.181335 590.118286,427.114502 590.118286,427.114502 
	C590.118286,427.114502 589.907776,427.095337 590.001831,427.178345 
	C590.095886,427.261383 590.015930,427.186615 589.961243,427.183960 
z"/>
<path fill="#F8F8F8" opacity="1.000000" stroke="none" 
	d="
M787.506165,427.507111 
	C787.486694,427.507538 787.525635,427.506683 787.506165,427.507111 
z"/>
</svg>