<svg version="1.1" id="Layer_1" xmlns="http://www.w3.org/2000/svg" xmlns:xlink="http://www.w3.org/1999/xlink" x="0px" y="0px"
	 width="100%" viewBox="0 0 1024 1024" enable-background="new 0 0 1024 1024" xml:space="preserve">
<path fill="#000000" opacity="1.000000" stroke="none" 
	d="
M604.000000,1025.000000 
	C402.666656,1025.000000 201.833328,1025.000000 1.000000,1025.000000 
	C1.000000,683.666687 1.000000,342.333344 1.000000,1.000000 
	C342.333344,1.000000 683.666687,1.000000 1025.000000,1.000000 
	C1025.000000,342.333344 1025.000000,683.666687 1025.000000,1025.000000 
	C884.833313,1025.000000 744.666687,1025.000000 604.000000,1025.000000 
M683.739014,229.882248 
	C683.684265,229.569275 683.540222,229.304932 683.055359,228.352066 
	C682.878540,227.594284 682.701782,226.836502 683.092957,225.554611 
	C683.269897,224.283722 683.863159,222.903244 683.561707,221.758316 
	C678.787842,203.624512 673.942810,185.508865 668.941772,167.436737 
	C668.596252,166.188156 666.892212,165.315521 665.232910,164.278076 
	C664.844238,164.324265 664.455566,164.370453 663.608521,163.885941 
	C661.886597,164.113144 659.610779,163.713089 658.530457,164.666962 
	C650.014587,172.185822 639.210815,174.689499 629.044922,178.600555 
	C624.552490,180.328873 620.211548,182.777252 615.563049,183.713654 
	C600.003723,186.847961 584.179565,186.872223 568.437744,185.813049 
	C559.865356,185.236252 551.341858,183.416962 542.890564,181.695297 
	C533.660889,179.815048 524.618774,176.956467 515.354553,175.316803 
	C499.357208,172.485428 483.320312,169.503250 467.168121,168.046753 
	C455.524292,166.996796 443.484619,167.115082 431.944885,168.855911 
	C412.567810,171.779068 394.625336,179.265106 378.282379,190.336899 
	C373.639069,193.482590 371.897430,196.812820 373.415009,202.144943 
	C378.187073,218.912170 383.035492,235.658142 387.995514,252.370468 
	C388.401337,253.737930 389.876526,254.788025 391.187561,256.719116 
	C392.247925,260.441803 393.308289,264.164459 394.491211,268.665009 
	C398.879089,285.286346 403.266937,301.907684 407.621216,319.150452 
	C408.026520,320.098450 408.431824,321.046417 408.938293,322.785797 
	C413.683777,340.404541 418.429260,358.023285 423.181915,375.668671 
	C424.192322,375.487366 424.730804,375.514252 425.135590,375.294647 
	C426.303497,374.661224 427.354736,373.784973 428.562347,373.256805 
	C441.028534,367.804413 453.106995,360.958313 466.081299,357.277435 
	C495.696808,348.875427 525.420410,352.825226 554.927795,359.485077 
	C583.287903,365.885986 611.400452,373.877014 641.010132,372.185791 
	C667.127563,370.694000 690.196533,361.350708 711.063904,346.054169 
	C712.280334,345.162537 713.299683,342.596436 712.942932,341.179047 
	C708.719788,324.399780 704.217102,307.690887 699.716064,290.310883 
	C699.141052,289.163818 698.565979,288.016785 698.194519,286.060730 
	C697.790894,284.131134 697.473450,282.178711 696.970337,280.275452 
	C692.568787,263.624817 688.133972,246.983047 683.739014,229.882248 
M507.123413,852.471558 
	C507.226349,852.307495 507.329254,852.143433 507.995850,851.656311 
	C508.046326,850.098267 508.478516,848.437561 508.090942,846.997375 
	C500.260468,817.903198 492.344971,788.831909 484.427063,759.761292 
	C479.442780,741.461426 474.462891,723.160156 469.380432,704.887512 
	C468.722656,702.522644 467.945160,699.908325 466.401428,698.118225 
	C456.097839,686.170410 445.409424,674.551758 435.216675,662.512451 
	C432.217804,658.970276 429.548065,654.673706 428.230438,650.272888 
	C424.223267,636.888733 421.031342,623.262817 417.370941,609.771973 
	C412.798035,592.917908 411.717133,598.391113 424.645782,587.350647 
	C441.455933,572.995544 456.315796,557.061096 467.981110,538.201294 
	C477.171661,523.342468 476.169647,506.660919 476.594757,490.322479 
	C476.736969,484.856537 469.563568,479.002899 463.643768,478.065002 
	C455.317444,476.745850 452.930145,478.004456 449.098389,485.847229 
	C448.222565,487.639862 447.448181,489.487061 446.716919,491.344452 
	C442.419373,502.259399 437.539520,512.733582 428.119019,520.444031 
	C423.235535,524.440979 418.741394,528.923828 414.179413,533.299805 
	C411.065552,536.286804 407.491821,537.380493 403.238770,536.973511 
	C392.559753,535.951477 382.143921,533.953369 372.601532,528.788208 
	C367.357849,525.949951 361.935425,525.996704 356.136505,526.333679 
	C344.412872,527.014954 333.946991,531.905273 323.030304,535.264099 
	C320.458954,536.055237 317.851593,537.693787 315.986755,539.638611 
	C310.004608,545.877136 304.533081,552.606506 298.527802,558.821045 
	C294.691010,562.791626 292.910095,567.065857 292.899628,572.644836 
	C292.873047,586.787842 292.167755,600.929810 292.157288,615.072449 
	C292.153809,619.764343 292.356506,624.993652 294.360443,629.038086 
	C298.546844,637.487122 304.051208,645.277466 308.906342,653.402832 
	C312.661560,659.687439 319.002869,661.795044 325.387726,663.719727 
	C328.176605,664.560425 329.829712,662.974121 330.008698,660.047546 
	C330.363770,654.242004 330.636963,648.430603 331.070465,642.631042 
	C331.334778,639.095032 331.835022,635.576660 332.229279,632.050354 
	C332.662933,632.014099 333.096588,631.977844 333.530243,631.941650 
	C334.210419,634.071594 335.012909,636.171143 335.550323,638.336548 
	C338.438141,649.972351 341.019775,661.690369 344.184082,673.249390 
	C346.524597,681.799072 348.308655,690.239075 348.160645,699.241577 
	C347.788116,721.899841 348.039520,744.568298 348.023560,767.232666 
	C348.021912,769.563599 348.176483,771.939819 347.796906,774.218079 
	C344.736328,792.588074 341.591675,810.944275 338.418121,829.295227 
	C336.376831,841.099060 334.158386,852.872864 332.185608,864.687866 
	C331.146027,870.914062 332.777618,873.532166 337.554047,873.721985 
	C342.671844,873.925476 347.801666,873.811279 352.921844,873.973938 
	C357.034363,874.104553 359.494019,871.910767 360.963898,868.434692 
	C365.048157,858.776001 368.944550,849.037354 373.069489,839.396362 
	C378.173126,827.468018 383.595978,815.674316 388.579651,803.697083 
	C393.994354,790.683899 399.782776,777.862671 400.137177,763.230896 
	C400.486908,748.792114 402.010132,734.380127 403.126892,719.964783 
	C403.218170,718.786987 404.065033,716.776917 404.698242,716.721497 
	C405.932831,716.613281 407.574615,717.297546 408.509155,718.207031 
	C419.711945,729.110168 430.970337,739.964417 441.877075,751.159912 
	C446.925751,756.342163 452.133728,761.724670 455.707611,767.917725 
	C464.426636,783.026611 472.174164,798.693787 480.429077,814.073792 
	C486.566742,825.509094 492.843567,836.870667 499.177643,848.198486 
	C500.003510,849.675476 501.540863,850.754700 503.373138,852.376648 
	C504.284515,852.630554 505.195892,852.884460 506.287262,853.314026 
	C506.579773,853.375366 506.754547,853.257935 507.123413,852.471558 
M373.853912,494.115143 
	C376.499878,483.557404 375.461853,473.496002 368.978973,464.559265 
	C362.310425,455.366638 353.469299,450.061188 341.641937,451.190582 
	C330.757324,452.229919 323.421631,458.304230 319.372864,468.078156 
	C314.178406,480.617737 318.885956,495.905579 330.168823,505.931458 
	C341.429932,515.937866 365.477631,516.953491 373.853912,494.115143 
M350.234070,217.582748 
	C375.548615,311.826141 400.863129,406.069580 426.583496,501.823883 
	C428.252380,497.832397 429.640045,495.362457 430.320709,492.710999 
	C431.790039,486.987610 435.780945,481.832092 433.840240,475.308563 
	C431.090942,466.066864 428.606323,456.744690 426.110107,447.429718 
	C411.628632,393.390076 397.183716,339.340668 382.712708,285.298218 
	C373.423737,250.608154 364.081573,215.932281 354.833252,181.231369 
	C352.898529,173.971985 350.146790,171.436890 345.012909,172.781845 
	C340.739166,173.901474 339.462952,177.525009 341.285736,184.513489 
	C344.097534,195.293961 347.103882,206.023712 350.234070,217.582748 
M465.330170,586.695068 
	C464.021271,581.992981 462.712372,577.290955 461.147644,571.669922 
	C457.942169,575.154602 455.171082,577.605103 453.156647,580.569702 
	C451.966187,582.321716 451.081573,585.117249 451.580780,587.050659 
	C455.943176,603.946655 460.648438,620.754211 465.253448,637.587524 
	C482.535858,700.762268 499.813507,763.938232 517.109558,827.109253 
	C518.981812,833.947205 520.962646,840.755432 522.873352,847.507690 
	C534.293762,845.613342 535.263977,844.239258 532.966492,833.823303 
	C532.572754,832.038208 532.136902,830.260132 531.651245,828.497925 
	C516.228516,772.539307 500.758392,716.593811 485.385345,660.621582 
	C478.694580,636.260986 472.200348,611.846313 465.330170,586.695068 
M322.660919,889.090942 
	C337.263489,889.090942 351.866089,889.090942 366.468658,889.090942 
	C366.464417,888.785706 366.460144,888.480408 366.455902,888.175171 
	C349.601074,888.175171 332.746246,888.175171 315.891388,888.175171 
	C315.890350,888.479492 315.889313,888.783752 315.888245,889.088074 
	C317.831879,889.088074 319.775482,889.088074 322.660919,889.090942 
z"/>
<path fill="#076538" opacity="1.000000" stroke="none" 
	d="
M699.787842,290.963501 
	C704.217102,307.690887 708.719788,324.399780 712.942932,341.179047 
	C713.299683,342.596436 712.280334,345.162537 711.063904,346.054169 
	C690.196533,361.350708 667.127563,370.694000 641.010132,372.185791 
	C611.400452,373.877014 583.287903,365.885986 554.927795,359.485077 
	C525.420410,352.825226 495.696808,348.875427 466.081299,357.277435 
	C453.106995,360.958313 441.028534,367.804413 428.562347,373.256805 
	C427.354736,373.784973 426.303497,374.661224 425.135590,375.294647 
	C424.730804,375.514252 424.192322,375.487366 423.181915,375.668671 
	C418.429260,358.023285 413.683777,340.404541 409.155396,322.175018 
	C414.901062,318.237946 420.255859,314.567566 425.999756,311.667969 
	C434.142090,307.557556 442.293427,303.131805 450.935822,300.415161 
	C468.574463,294.870667 487.026459,295.854828 504.998871,297.552765 
	C523.625183,299.312439 542.030823,303.554779 560.475403,307.017792 
	C567.630005,308.361084 574.572937,310.811920 581.714661,312.249847 
	C586.409241,313.195099 591.278442,313.437256 596.084167,313.633820 
	C608.547668,314.143555 621.021973,314.807251 633.486572,314.710907 
	C640.925598,314.653412 649.015808,314.885773 655.647888,312.156281 
	C668.766724,306.757233 681.056396,299.352753 693.744263,292.886230 
	C695.602722,291.939056 697.765747,291.589539 699.787842,290.963501 
z"/>
<path fill="#2E0202" opacity="1.000000" stroke="none" 
	d="
M502.748657,852.018188 
	C501.540863,850.754700 500.003510,849.675476 499.177643,848.198486 
	C492.843567,836.870667 486.566742,825.509094 480.429077,814.073792 
	C472.174164,798.693787 464.426636,783.026611 455.707611,767.917725 
	C452.133728,761.724670 446.925751,756.342163 441.877075,751.159912 
	C430.970337,739.964417 419.711945,729.110168 408.509155,718.207031 
	C407.574615,717.297546 405.932831,716.613281 404.698242,716.721497 
	C404.065033,716.776917 403.218170,718.786987 403.126892,719.964783 
	C402.010132,734.380127 400.486908,748.792114 400.137177,763.230896 
	C399.782776,777.862671 393.994354,790.683899 388.579651,803.697083 
	C383.595978,815.674316 378.173126,827.468018 373.069489,839.396362 
	C368.944550,849.037354 365.048157,858.776001 360.963898,868.434692 
	C359.494019,871.910767 357.034363,874.104553 352.921844,873.973938 
	C347.801666,873.811279 342.671844,873.925476 337.554047,873.721985 
	C332.777618,873.532166 331.146027,870.914062 332.185608,864.687866 
	C334.158386,852.872864 336.376831,841.099060 338.418121,829.295227 
	C341.591675,810.944275 344.736328,792.588074 347.796906,774.218079 
	C348.176483,771.939819 348.021912,769.563599 348.023560,767.232666 
	C348.039520,744.568298 347.788116,721.899841 348.160645,699.241577 
	C348.308655,690.239075 346.524597,681.799072 344.184082,673.249390 
	C341.019775,661.690369 338.438141,649.972351 335.550323,638.336548 
	C335.012909,636.171143 334.210419,634.071594 333.530243,631.941650 
	C333.096588,631.977844 332.662933,632.014099 332.229279,632.050354 
	C331.835022,635.576660 331.334778,639.095032 331.070465,642.631042 
	C330.636963,648.430603 330.363770,654.242004 330.008698,660.047546 
	C329.829712,662.974121 328.176605,664.560425 325.387726,663.719727 
	C319.002869,661.795044 312.661560,659.687439 308.906342,653.402832 
	C304.051208,645.277466 298.546844,637.487122 294.360443,629.038086 
	C292.356506,624.993652 292.153809,619.764343 292.157288,615.072449 
	C292.167755,600.929810 292.873047,586.787842 292.899628,572.644836 
	C292.910095,567.065857 294.691010,562.791626 298.527802,558.821045 
	C304.533081,552.606506 310.004608,545.877136 315.986755,539.638611 
	C317.851593,537.693787 320.458954,536.055237 323.030304,535.264099 
	C333.946991,531.905273 344.412872,527.014954 356.136505,526.333679 
	C361.935425,525.996704 367.357849,525.949951 372.601532,528.788208 
	C382.143921,533.953369 392.559753,535.951477 403.238770,536.973511 
	C407.491821,537.380493 411.065552,536.286804 414.179413,533.299805 
	C418.741394,528.923828 423.235535,524.440979 428.119019,520.444031 
	C437.539520,512.733582 442.419373,502.259399 446.716919,491.344452 
	C447.448181,489.487061 448.222565,487.639862 449.098389,485.847229 
	C452.930145,478.004456 455.317444,476.745850 463.643768,478.065002 
	C469.563568,479.002899 476.736969,484.856537 476.594757,490.322479 
	C476.169647,506.660919 477.171661,523.342468 467.981110,538.201294 
	C456.315796,557.061096 441.455933,572.995544 424.645782,587.350647 
	C411.717133,598.391113 412.798035,592.917908 417.370941,609.771973 
	C421.031342,623.262817 424.223267,636.888733 428.230438,650.272888 
	C429.548065,654.673706 432.217804,658.970276 435.216675,662.512451 
	C445.409424,674.551758 456.097839,686.170410 466.401428,698.118225 
	C467.945160,699.908325 468.722656,702.522644 469.380432,704.887512 
	C474.462891,723.160156 479.442780,741.461426 484.427063,759.761292 
	C492.344971,788.831909 500.260468,817.903198 508.090942,846.997375 
	C508.478516,848.437561 508.046326,850.098267 507.561310,851.458984 
	C506.940063,850.798157 506.704498,850.347961 506.573547,849.869141 
	C493.439087,801.854187 480.342621,753.828796 467.107666,705.841614 
	C466.346375,703.081360 464.884308,700.269470 463.028564,698.096375 
	C452.324249,685.561340 441.360992,673.247681 430.605011,660.756104 
	C429.140045,659.054749 427.907806,656.898987 427.307343,654.747314 
	C422.519196,637.588562 418.148529,620.309448 413.111877,603.225891 
	C411.409698,597.452515 412.999023,594.211670 417.372528,590.469177 
	C434.573822,575.749756 451.821198,560.973206 463.364441,540.974304 
	C466.169098,536.115173 470.110779,531.388184 471.133820,526.133972 
	C473.255951,515.235168 474.003845,504.041351 474.854858,492.933411 
	C475.319489,486.868134 469.495514,481.071960 462.723236,479.888977 
	C456.008362,478.716095 453.426758,480.177582 450.684601,487.907715 
	C444.938080,504.106995 436.266937,518.151367 422.335571,528.641113 
	C419.421051,530.835693 417.097351,533.836670 414.117035,535.914795 
	C411.970642,537.411499 409.217682,538.750549 406.680908,538.856323 
	C393.191132,539.418579 380.855804,534.850281 368.662628,529.717834 
	C366.280670,528.715271 363.501251,527.893127 360.990387,528.087646 
	C347.297058,529.148926 334.116119,532.474365 321.589478,538.162964 
	C319.818970,538.966919 318.058350,540.148987 316.762390,541.580750 
	C310.619690,548.367249 304.740570,555.393555 298.554504,562.138977 
	C295.899292,565.034302 294.866852,568.077454 294.856232,572.010498 
	C294.811371,588.665588 294.394318,605.319397 294.307343,621.974731 
	C294.296814,623.989563 295.121857,626.206726 296.145508,627.994629 
	C300.446747,635.506836 305.310394,642.713806 309.317047,650.373169 
	C313.286285,657.960876 320.588593,659.285950 328.229584,662.514404 
	C328.912689,646.124878 329.555756,630.696106 330.300842,615.042480 
	C330.402832,614.817627 330.476807,614.329407 330.653412,614.377808 
	C331.079926,614.451172 331.315491,614.404236 331.543213,614.358337 
	C331.549683,614.431335 331.688477,614.478577 331.680328,614.844482 
	C336.173553,632.967834 340.765076,650.703186 345.137268,668.492371 
	C347.235962,677.031433 350.084961,685.610962 350.541534,694.280273 
	C351.408112,710.734436 350.854340,727.266724 350.781647,743.766113 
	C350.721588,757.406738 350.954437,770.990051 348.346893,784.577271 
	C343.200104,811.395935 338.919006,838.379944 334.143402,865.271362 
	C333.402252,869.444763 333.968628,871.593689 338.888214,871.230774 
	C343.528778,870.888367 348.222198,871.032410 352.880402,871.236084 
	C356.265137,871.384094 357.979156,869.849060 359.237640,866.858704 
	C368.541962,844.750427 377.511688,822.484619 387.497650,800.685669 
	C394.126282,786.215576 397.916473,771.492249 398.494446,755.572693 
	C399.043274,740.457275 400.943665,725.390991 402.467255,710.339355 
	C402.684784,710.375610 403.122864,710.422119 403.122864,710.422119 
	C403.122864,710.422119 403.563110,710.406677 403.732239,710.696777 
	C418.490082,725.344238 433.189270,739.592224 447.593262,754.132629 
	C451.391449,757.966614 454.867950,762.375610 457.483978,767.081055 
	C470.742004,790.927979 483.708130,814.937927 496.672607,838.946838 
	C498.951447,843.167053 500.735870,847.654297 502.748657,852.018188 
z"/>
<path fill="#C91B1A" opacity="1.000000" stroke="none" 
	d="
M373.719635,494.496765 
	C365.477631,516.953491 341.429932,515.937866 330.168823,505.931458 
	C318.885956,495.905579 314.178406,480.617737 319.372864,468.078156 
	C323.421631,458.304230 330.757324,452.229919 341.641937,451.190582 
	C353.469299,450.061188 362.310425,455.366638 368.978973,464.559265 
	C375.461853,473.496002 376.499878,483.557404 373.719635,494.496765 
z"/>
<path fill="#A62625" opacity="1.000000" stroke="none" 
	d="
M503.060913,852.197388 
	C500.735870,847.654297 498.951447,843.167053 496.672607,838.946838 
	C483.708130,814.937927 470.742004,790.927979 457.483978,767.081055 
	C454.867950,762.375610 451.391449,757.966614 447.593262,754.132629 
	C433.189270,739.592224 418.490082,725.344238 404.114685,710.621582 
	C406.254364,711.395447 408.497559,712.209412 410.054688,713.727234 
	C419.099304,722.543701 427.583099,731.977417 437.027557,740.330627 
	C447.432983,749.533813 456.900635,758.898071 462.940308,771.941833 
	C470.261353,787.752869 479.392334,802.728943 487.821106,818.021729 
	C490.050201,822.066101 492.576630,825.946594 494.966492,829.902283 
	C495.586731,829.648865 496.207001,829.395447 496.827240,829.141968 
	C496.730225,827.118713 496.988739,825.001221 496.481750,823.086487 
	C490.902161,802.016296 485.276489,780.957520 479.510437,759.937622 
	C475.858398,746.624268 471.316956,733.520569 468.357574,720.062622 
	C466.044006,709.541626 463.346252,699.754272 454.412903,692.825562 
	C453.127838,691.828918 452.222260,690.341980 451.144958,689.078613 
	C444.482971,681.266174 438.280701,672.984375 430.974152,665.830322 
	C427.116211,662.052917 425.093109,658.170593 423.926361,653.197815 
	C421.836639,644.291016 419.397156,635.465637 417.064209,626.616699 
	C414.778259,617.946106 412.263458,609.330933 410.206177,600.607178 
	C409.205200,596.362671 410.268097,592.574524 413.974548,589.468506 
	C420.715637,583.819336 426.722717,577.229797 433.765900,572.019104 
	C447.708435,561.704041 456.377930,547.110168 465.141296,532.978882 
	C472.945648,520.394043 471.819885,505.100220 471.598663,490.713440 
	C471.527008,486.052582 466.525757,483.772186 461.707184,482.990295 
	C457.199127,482.258850 454.952637,484.696777 453.282959,488.344452 
	C450.238861,494.994843 447.333710,501.723816 443.935333,508.191345 
	C441.960815,511.949036 439.524445,515.627625 436.612671,518.692688 
	C431.696136,523.867981 426.432922,528.763123 420.944244,533.329956 
	C416.578033,536.962830 412.752502,541.908447 406.113098,541.614868 
	C393.048889,541.037231 380.592255,538.034851 368.559906,532.863464 
	C365.510620,531.552917 361.719452,530.859497 358.476746,531.325806 
	C350.283661,532.504028 342.069366,534.024780 334.133636,536.335815 
	C328.517426,537.971375 322.600800,540.209290 318.155365,543.823059 
	C312.434723,548.473633 308.096008,554.809753 303.076660,560.342407 
	C299.734741,564.026062 297.569977,567.868103 297.801208,573.237732 
	C298.171234,581.829285 298.274231,590.500305 297.540649,599.056274 
	C296.300537,613.519775 295.399384,627.702148 305.740173,639.749634 
	C306.164795,640.244324 306.305206,640.982117 306.727295,641.480103 
	C311.127258,646.671204 312.918579,654.061157 320.528961,656.588135 
	C324.634094,657.951172 325.925781,657.233032 326.115540,652.996948 
	C326.621033,641.712524 327.307922,630.434509 328.111816,619.167480 
	C328.207611,617.824585 329.474670,616.565308 330.198853,615.267273 
	C329.555756,630.696106 328.912689,646.124878 328.229584,662.514404 
	C320.588593,659.285950 313.286285,657.960876 309.317047,650.373169 
	C305.310394,642.713806 300.446747,635.506836 296.145508,627.994629 
	C295.121857,626.206726 294.296814,623.989563 294.307343,621.974731 
	C294.394318,605.319397 294.811371,588.665588 294.856232,572.010498 
	C294.866852,568.077454 295.899292,565.034302 298.554504,562.138977 
	C304.740570,555.393555 310.619690,548.367249 316.762390,541.580750 
	C318.058350,540.148987 319.818970,538.966919 321.589478,538.162964 
	C334.116119,532.474365 347.297058,529.148926 360.990387,528.087646 
	C363.501251,527.893127 366.280670,528.715271 368.662628,529.717834 
	C380.855804,534.850281 393.191132,539.418579 406.680908,538.856323 
	C409.217682,538.750549 411.970642,537.411499 414.117035,535.914795 
	C417.097351,533.836670 419.421051,530.835693 422.335571,528.641113 
	C436.266937,518.151367 444.938080,504.106995 450.684601,487.907715 
	C453.426758,480.177582 456.008362,478.716095 462.723236,479.888977 
	C469.495514,481.071960 475.319489,486.868134 474.854858,492.933411 
	C474.003845,504.041351 473.255951,515.235168 471.133820,526.133972 
	C470.110779,531.388184 466.169098,536.115173 463.364441,540.974304 
	C451.821198,560.973206 434.573822,575.749756 417.372528,590.469177 
	C412.999023,594.211670 411.409698,597.452515 413.111877,603.225891 
	C418.148529,620.309448 422.519196,637.588562 427.307343,654.747314 
	C427.907806,656.898987 429.140045,659.054749 430.605011,660.756104 
	C441.360992,673.247681 452.324249,685.561340 463.028564,698.096375 
	C464.884308,700.269470 466.346375,703.081360 467.107666,705.841614 
	C480.342621,753.828796 493.439087,801.854187 506.573547,849.869141 
	C506.704498,850.347961 506.940063,850.798157 507.279480,851.620544 
	C507.329254,852.143433 507.226349,852.307495 506.782074,852.719482 
	C506.440735,852.967468 506.107269,853.138367 506.107269,853.138428 
	C505.195892,852.884460 504.284515,852.630554 503.060913,852.197388 
z"/>
<path fill="#E1B44C" opacity="1.000000" stroke="none" 
	d="
M350.130920,217.178864 
	C347.103882,206.023712 344.097534,195.293961 341.285736,184.513489 
	C339.462952,177.525009 340.739166,173.901474 345.012909,172.781845 
	C350.146790,171.436890 352.898529,173.971985 354.833252,181.231369 
	C364.081573,215.932281 373.423737,250.608154 382.712708,285.298218 
	C397.183716,339.340668 411.628632,393.390076 426.110107,447.429718 
	C428.606323,456.744690 431.090942,466.066864 433.840240,475.308563 
	C435.780945,481.832092 431.790039,486.987610 430.320709,492.710999 
	C429.640045,495.362457 428.252380,497.832397 426.583496,501.823883 
	C400.863129,406.069580 375.548615,311.826141 350.130920,217.178864 
M413.751343,408.856537 
	C410.989990,399.782104 407.953217,390.780762 405.521393,381.618866 
	C399.388855,358.514771 393.597931,335.320282 387.539551,312.196198 
	C381.849365,290.477448 376.024567,268.793701 370.198181,247.110901 
	C365.405090,229.273422 360.509369,211.463562 355.689880,193.633133 
	C354.517548,189.295898 353.829559,184.782501 352.192963,180.636627 
	C351.465088,178.792755 348.936646,177.659622 347.225464,176.203888 
	C346.117645,177.968643 344.371002,179.629898 344.064087,181.524399 
	C343.682159,183.881989 344.193268,186.511246 344.828583,188.886826 
	C350.626648,210.567581 356.518219,232.223419 362.417877,253.876892 
	C367.055817,270.899445 371.790436,287.895752 376.397247,304.926636 
	C381.431885,323.539307 386.340393,342.186005 391.356171,360.803802 
	C396.768036,380.891968 402.274139,400.954803 407.677063,421.045380 
	C413.251434,441.773315 418.716461,462.530792 424.332733,483.247284 
	C424.947601,485.515228 426.244019,487.598419 427.464478,490.298676 
	C432.724701,485.845398 432.713226,480.734833 431.602325,475.679352 
	C430.536377,470.828339 428.532013,466.191528 427.267395,461.374664 
	C422.745880,444.152710 418.363403,426.894257 413.751343,408.856537 
z"/>
<path fill="#E1B44C" opacity="1.000000" stroke="none" 
	d="
M465.473511,587.075684 
	C472.200348,611.846313 478.694580,636.260986 485.385345,660.621582 
	C500.758392,716.593811 516.228516,772.539307 531.651245,828.497925 
	C532.136902,830.260132 532.572754,832.038208 532.966492,833.823303 
	C535.263977,844.239258 534.293762,845.613342 522.873352,847.507690 
	C520.962646,840.755432 518.981812,833.947205 517.109558,827.109253 
	C499.813507,763.938232 482.535858,700.762268 465.253448,637.587524 
	C460.648438,620.754211 455.943176,603.946655 451.580780,587.050659 
	C451.081573,585.117249 451.966187,582.321716 453.156647,580.569702 
	C455.171082,577.605103 457.942169,575.154602 461.147644,571.669922 
	C462.712372,577.290955 464.021271,581.992981 465.473511,587.075684 
M513.039551,769.518188 
	C512.674988,768.066528 512.345215,766.605103 511.940399,765.164734 
	C507.171509,748.195862 502.236847,731.271729 497.651947,714.253418 
	C491.375397,690.955811 485.468933,667.558533 479.202301,644.258240 
	C474.241241,625.812378 468.977661,607.447876 463.845734,589.048035 
	C463.219727,586.803589 462.733307,584.504272 461.906464,582.335510 
	C460.548920,578.774719 458.538300,578.734009 455.976959,581.387451 
	C453.033417,584.436829 453.884491,587.765747 454.862335,591.197998 
	C458.510284,604.002625 462.256927,616.780701 465.747101,629.628357 
	C471.329742,650.178711 476.588715,670.817566 482.256714,691.343872 
	C489.250793,716.672546 496.670532,741.883911 503.632782,767.221130 
	C510.019073,790.462219 516.035706,813.804688 522.239197,837.096130 
	C522.623413,838.538818 523.088379,839.988464 523.739624,841.325806 
	C525.298889,844.527771 528.056641,844.644531 529.362305,841.861572 
	C530.555054,839.319153 530.784607,835.742554 530.066162,832.978455 
	C524.625793,812.047424 518.847412,791.204163 513.039551,769.518188 
z"/>
<path fill="#A62625" opacity="1.000000" stroke="none" 
	d="
M664.066895,164.416641 
	C664.455566,164.370453 664.844238,164.324265 665.554810,164.652039 
	C670.796082,183.631668 675.715393,202.237320 680.185181,220.872742 
	C678.853333,220.922516 677.971008,220.942520 677.067261,220.550110 
	C673.069214,204.696793 669.114258,189.250275 665.102661,173.818481 
	C663.922485,169.278488 661.218201,169.602188 657.926880,171.678802 
	C642.563782,181.372040 626.118774,187.773041 607.950317,190.451141 
	C588.410156,193.331436 569.039185,192.324844 549.816040,189.446396 
	C533.239868,186.964294 516.830811,183.065857 500.552246,178.979355 
	C483.633911,174.732254 466.617249,172.297104 449.194611,172.988297 
	C434.311096,173.578735 419.820038,176.560242 406.009491,181.985565 
	C398.005341,185.129898 390.298920,189.272461 382.955688,193.776428 
	C377.843048,196.912262 377.948853,199.315964 380.737305,204.744156 
	C381.708588,206.634888 382.351959,208.723587 382.929230,210.782379 
	C386.322083,222.882675 389.651154,235.000839 393.006592,247.580658 
	C393.136810,249.612854 393.262115,251.177368 393.315552,252.843079 
	C393.243683,252.944244 393.083466,253.133850 392.834534,253.137085 
	C392.162750,253.371841 391.739929,253.603363 391.085144,253.557312 
	C385.880737,235.328720 380.950348,217.365814 375.890533,199.439453 
	C375.130646,196.747269 375.782227,195.152573 378.074463,193.620758 
	C400.042175,178.940445 424.008118,170.529861 450.585327,169.813126 
	C471.092285,169.260071 490.990082,173.090652 510.841797,177.503357 
	C533.883057,182.625046 556.734131,188.571213 580.572021,189.384445 
	C611.320312,190.433441 639.007263,182.008850 664.066895,164.416641 
z"/>
<path fill="#C9C74B" opacity="1.000000" stroke="none" 
	d="
M407.654846,318.528992 
	C403.266937,301.907684 398.879089,285.286346 394.571259,267.953705 
	C394.141602,263.222198 393.631897,259.201996 393.355713,255.184875 
	C393.589233,255.187973 394.057983,255.199051 394.118805,255.552979 
	C395.784576,261.846069 397.394135,267.783966 398.993500,273.724640 
	C402.030029,285.003571 405.081451,296.278564 408.081573,307.567169 
	C409.027496,311.126434 410.747101,312.965179 414.507690,310.839813 
	C416.385406,309.778595 418.204681,308.614166 420.078949,307.546539 
	C425.704895,304.341888 431.073059,300.484772 437.028198,298.093658 
	C458.706726,289.389465 481.433441,288.808807 504.318237,290.743134 
	C512.578674,291.441406 520.776184,292.883179 529.164551,294.237518 
	C529.954346,294.957306 530.582031,295.425201 531.481201,295.872620 
	C532.115295,295.853577 532.477966,295.855042 533.247131,295.881775 
	C535.769714,296.260254 537.885742,296.613434 540.404602,296.999908 
	C546.531738,298.320465 552.256165,299.607727 558.326782,300.989807 
	C560.428955,301.643799 562.184875,302.202972 564.620422,302.978577 
	C563.306335,299.990906 562.376038,297.875763 561.759399,295.861389 
	C564.703979,297.627380 567.334900,299.292633 570.124023,301.220398 
	C571.504761,302.018829 572.727356,302.554810 574.326660,303.167053 
	C577.112183,303.881104 579.487183,304.849182 581.935669,305.100403 
	C593.487183,306.285522 605.070862,307.160065 616.620544,308.361176 
	C632.105164,309.971497 647.384888,308.589417 661.628784,302.560638 
	C673.157837,297.681000 683.867310,290.865143 695.093140,285.197479 
	C695.561462,286.059906 695.876892,286.632965 695.988159,287.473572 
	C683.615540,296.701233 670.486755,303.891113 655.885437,307.900818 
	C633.916809,313.933685 611.634888,313.143616 589.477478,309.268616 
	C568.912354,305.672058 548.517029,301.113312 527.981506,297.333771 
	C518.496155,295.587982 508.887115,294.326447 499.278442,293.472504 
	C467.471680,290.645844 437.995514,297.069031 411.897827,316.301300 
	C410.626617,317.238098 409.075562,317.795135 407.654846,318.528992 
z"/>
<path fill="#2E0202" opacity="1.000000" stroke="none" 
	d="
M663.837708,164.151291 
	C639.007263,182.008850 611.320312,190.433441 580.572021,189.384445 
	C556.734131,188.571213 533.883057,182.625046 510.841797,177.503357 
	C490.990082,173.090652 471.092285,169.260071 450.585327,169.813126 
	C424.008118,170.529861 400.042175,178.940445 378.074463,193.620758 
	C375.782227,195.152573 375.130646,196.747269 375.890533,199.439453 
	C380.950348,217.365814 385.880737,235.328720 390.928741,253.897919 
	C390.954468,255.005920 390.904663,255.495743 390.854858,255.985565 
	C389.876526,254.788025 388.401337,253.737930 387.995514,252.370468 
	C383.035492,235.658142 378.187073,218.912170 373.415009,202.144943 
	C371.897430,196.812820 373.639069,193.482590 378.282379,190.336899 
	C394.625336,179.265106 412.567810,171.779068 431.944885,168.855911 
	C443.484619,167.115082 455.524292,166.996796 467.168121,168.046753 
	C483.320312,169.503250 499.357208,172.485428 515.354553,175.316803 
	C524.618774,176.956467 533.660889,179.815048 542.890564,181.695297 
	C551.341858,183.416962 559.865356,185.236252 568.437744,185.813049 
	C584.179565,186.872223 600.003723,186.847961 615.563049,183.713654 
	C620.211548,182.777252 624.552490,180.328873 629.044922,178.600555 
	C639.210815,174.689499 650.014587,172.185822 658.530457,164.666962 
	C659.610779,163.713089 661.886597,164.113144 663.837708,164.151291 
z"/>
<path fill="#2C5D0F" opacity="1.000000" stroke="none" 
	d="
M407.638031,318.839722 
	C409.075562,317.795135 410.626617,317.238098 411.897827,316.301300 
	C437.995514,297.069031 467.471680,290.645844 499.278442,293.472504 
	C508.887115,294.326447 518.496155,295.587982 527.981506,297.333771 
	C548.517029,301.113312 568.912354,305.672058 589.477478,309.268616 
	C611.634888,313.143616 633.916809,313.933685 655.885437,307.900818 
	C670.486755,303.891113 683.615540,296.701233 696.286499,287.406555 
	C697.189575,287.004517 697.590271,286.937134 697.990906,286.869751 
	C698.565979,288.016785 699.141052,289.163818 699.751953,290.637207 
	C697.765747,291.589539 695.602722,291.939056 693.744263,292.886230 
	C681.056396,299.352753 668.766724,306.757233 655.647888,312.156281 
	C649.015808,314.885773 640.925598,314.653412 633.486572,314.710907 
	C621.021973,314.807251 608.547668,314.143555 596.084167,313.633820 
	C591.278442,313.437256 586.409241,313.195099 581.714661,312.249847 
	C574.572937,310.811920 567.630005,308.361084 560.475403,307.017792 
	C542.030823,303.554779 523.625183,299.312439 504.998871,297.552765 
	C487.026459,295.854828 468.574463,294.870667 450.935822,300.415161 
	C442.293427,303.131805 434.142090,307.557556 425.999756,311.667969 
	C420.255859,314.567566 414.901062,318.237946 409.104828,321.779327 
	C408.431824,321.046417 408.026520,320.098450 407.638031,318.839722 
z"/>
<path fill="#E1B44C" opacity="1.000000" stroke="none" 
	d="
M698.092712,286.465240 
	C697.590271,286.937134 697.189575,287.004517 696.490662,287.138947 
	C695.876892,286.632965 695.561462,286.059906 695.017029,284.842346 
	C691.301697,271.558044 687.750549,258.935669 684.357056,246.271042 
	C682.734619,240.216248 681.411377,234.081329 679.817200,227.641907 
	C679.420410,225.862854 679.158997,224.424622 679.097046,222.728867 
	C679.805908,222.067993 680.315430,221.664642 681.020386,221.579193 
	C681.652283,223.290955 682.088623,224.684830 682.525024,226.078705 
	C682.701782,226.836502 682.878540,227.594284 683.137817,228.956223 
	C683.228821,229.916748 683.391724,230.176163 683.709106,230.338623 
	C688.133972,246.983047 692.568787,263.624817 696.970337,280.275452 
	C697.473450,282.178711 697.790894,284.131134 698.092712,286.465240 
z"/>
<path fill="#2E0202" opacity="1.000000" stroke="none" 
	d="
M682.808960,225.816650 
	C682.088623,224.684830 681.652283,223.290955 681.063354,221.493164 
	C680.910767,221.089233 680.634705,220.842987 680.634766,220.842987 
	C675.715393,202.237320 670.796082,183.631668 665.848389,164.647034 
	C666.892212,165.315521 668.596252,166.188156 668.941772,167.436737 
	C673.942810,185.508865 678.787842,203.624512 683.561707,221.758316 
	C683.863159,222.903244 683.269897,224.283722 682.808960,225.816650 
z"/>
<path fill="#2C5D0F" opacity="1.000000" stroke="none" 
	d="
M322.190002,889.089478 
	C319.775482,889.088074 317.831879,889.088074 315.888245,889.088074 
	C315.889313,888.783752 315.890350,888.479492 315.891388,888.175171 
	C332.746246,888.175171 349.601074,888.175171 366.455902,888.175171 
	C366.460144,888.480408 366.464417,888.785706 366.468658,889.090942 
	C351.866089,889.090942 337.263489,889.090942 322.190002,889.089478 
z"/>
<path fill="#E1B44C" opacity="1.000000" stroke="none" 
	d="
M391.021210,256.352356 
	C390.904663,255.495743 390.954468,255.005920 391.160706,254.175491 
	C391.739929,253.603363 392.162750,253.371841 392.824768,253.477509 
	C393.083344,254.270416 393.102783,254.726105 393.122192,255.181793 
	C393.631897,259.201996 394.141602,263.222198 394.510010,267.564758 
	C393.308289,264.164459 392.247925,260.441803 391.021210,256.352356 
z"/>
<path fill="#2E0202" opacity="1.000000" stroke="none" 
	d="
M683.723999,230.110443 
	C683.391724,230.176163 683.228821,229.916748 683.263550,229.324799 
	C683.540222,229.304932 683.684265,229.569275 683.723999,230.110443 
z"/>
<path fill="#2E0202" opacity="1.000000" stroke="none" 
	d="
M506.197266,853.226196 
	C506.107269,853.138367 506.440735,852.967468 506.626160,852.964600 
	C506.754547,853.257935 506.579773,853.375366 506.197266,853.226196 
z"/>
<path fill="#D11918" opacity="1.000000" stroke="none" 
	d="
M330.300842,615.042480 
	C329.474670,616.565308 328.207611,617.824585 328.111816,619.167480 
	C327.307922,630.434509 326.621033,641.712524 326.115540,652.996948 
	C325.925781,657.233032 324.634094,657.951172 320.528961,656.588135 
	C312.918579,654.061157 311.127258,646.671204 306.727295,641.480103 
	C306.305206,640.982117 306.164795,640.244324 305.740173,639.749634 
	C295.399384,627.702148 296.300537,613.519775 297.540649,599.056274 
	C298.274231,590.500305 298.171234,581.829285 297.801208,573.237732 
	C297.569977,567.868103 299.734741,564.026062 303.076660,560.342407 
	C308.096008,554.809753 312.434723,548.473633 318.155365,543.823059 
	C322.600800,540.209290 328.517426,537.971375 334.133636,536.335815 
	C342.069366,534.024780 350.283661,532.504028 358.476746,531.325806 
	C361.719452,530.859497 365.510620,531.552917 368.559906,532.863464 
	C380.592255,538.034851 393.048889,541.037231 406.113098,541.614868 
	C412.752502,541.908447 416.578033,536.962830 420.944244,533.329956 
	C426.432922,528.763123 431.696136,523.867981 436.612671,518.692688 
	C439.524445,515.627625 441.960815,511.949036 443.935333,508.191345 
	C447.333710,501.723816 450.238861,494.994843 453.282959,488.344452 
	C454.952637,484.696777 457.199127,482.258850 461.707184,482.990295 
	C466.525757,483.772186 471.527008,486.052582 471.598663,490.713440 
	C471.819885,505.100220 472.945648,520.394043 465.141296,532.978882 
	C456.377930,547.110168 447.708435,561.704041 433.765900,572.019104 
	C426.722717,577.229797 420.715637,583.819336 413.974548,589.468506 
	C410.268097,592.574524 409.205200,596.362671 410.206177,600.607178 
	C412.263458,609.330933 414.778259,617.946106 417.064209,626.616699 
	C419.397156,635.465637 421.836639,644.291016 423.926361,653.197815 
	C425.093109,658.170593 427.116211,662.052917 430.974152,665.830322 
	C438.280701,672.984375 444.482971,681.266174 451.144958,689.078613 
	C452.222260,690.341980 453.127838,691.828918 454.412903,692.825562 
	C463.346252,699.754272 466.044006,709.541626 468.357574,720.062622 
	C471.316956,733.520569 475.858398,746.624268 479.510437,759.937622 
	C485.276489,780.957520 490.902161,802.016296 496.481750,823.086487 
	C496.988739,825.001221 496.730225,827.118713 496.827240,829.141968 
	C496.207001,829.395447 495.586731,829.648865 494.966492,829.902283 
	C492.576630,825.946594 490.050201,822.066101 487.821106,818.021729 
	C479.392334,802.728943 470.261353,787.752869 462.940308,771.941833 
	C456.900635,758.898071 447.432983,749.533813 437.027557,740.330627 
	C427.583099,731.977417 419.099304,722.543701 410.054688,713.727234 
	C408.497559,712.209412 406.254364,711.395447 403.945587,710.331543 
	C403.563110,710.406677 403.122864,710.422119 403.122864,710.422119 
	C403.122864,710.422119 402.684784,710.375610 402.096802,710.366272 
	C400.682587,712.196533 399.303314,713.982056 399.117523,715.884216 
	C397.632874,731.084595 396.284882,746.299988 395.076477,761.525146 
	C394.220428,772.311035 393.070892,782.935364 388.040039,792.826355 
	C384.517578,799.751770 381.474213,806.931946 378.444855,814.094788 
	C371.655060,830.149170 364.961670,846.244934 358.332428,862.366272 
	C356.556885,866.684143 353.814972,869.234985 348.929565,869.020569 
	C346.768738,868.925720 344.600372,869.019104 342.436340,868.978821 
	C338.071503,868.897583 336.618286,866.663391 337.329132,862.447083 
	C340.476685,843.776794 342.867157,824.950500 346.781586,806.445007 
	C351.842865,782.517700 353.843781,758.481873 352.997742,734.103088 
	C352.686066,725.122070 352.738556,716.114014 353.018829,707.130554 
	C353.374268,695.737305 352.159302,684.703247 349.034149,673.639160 
	C343.889038,655.423645 339.751770,636.924683 335.006653,618.592651 
	C334.604553,617.039062 332.827026,615.841492 331.688477,614.478577 
	C331.688477,614.478577 331.549683,614.431335 331.595947,614.106567 
	C331.339294,613.516357 331.036316,613.250916 330.733368,612.985474 
	C330.647858,613.433472 330.562317,613.881409 330.476807,614.329407 
	C330.476807,614.329407 330.402832,614.817627 330.300842,615.042480 
z"/>
<path fill="#A62625" opacity="1.000000" stroke="none" 
	d="
M331.680328,614.844482 
	C332.827026,615.841492 334.604553,617.039062 335.006653,618.592651 
	C339.751770,636.924683 343.889038,655.423645 349.034149,673.639160 
	C352.159302,684.703247 353.374268,695.737305 353.018829,707.130554 
	C352.738556,716.114014 352.686066,725.122070 352.997742,734.103088 
	C353.843781,758.481873 351.842865,782.517700 346.781586,806.445007 
	C342.867157,824.950500 340.476685,843.776794 337.329132,862.447083 
	C336.618286,866.663391 338.071503,868.897583 342.436340,868.978821 
	C344.600372,869.019104 346.768738,868.925720 348.929565,869.020569 
	C353.814972,869.234985 356.556885,866.684143 358.332428,862.366272 
	C364.961670,846.244934 371.655060,830.149170 378.444855,814.094788 
	C381.474213,806.931946 384.517578,799.751770 388.040039,792.826355 
	C393.070892,782.935364 394.220428,772.311035 395.076477,761.525146 
	C396.284882,746.299988 397.632874,731.084595 399.117523,715.884216 
	C399.303314,713.982056 400.682587,712.196533 401.879272,710.330017 
	C400.943665,725.390991 399.043274,740.457275 398.494446,755.572693 
	C397.916473,771.492249 394.126282,786.215576 387.497650,800.685669 
	C377.511688,822.484619 368.541962,844.750427 359.237640,866.858704 
	C357.979156,869.849060 356.265137,871.384094 352.880402,871.236084 
	C348.222198,871.032410 343.528778,870.888367 338.888214,871.230774 
	C333.968628,871.593689 333.402252,869.444763 334.143402,865.271362 
	C338.919006,838.379944 343.200104,811.395935 348.346893,784.577271 
	C350.954437,770.990051 350.721588,757.406738 350.781647,743.766113 
	C350.854340,727.266724 351.408112,710.734436 350.541534,694.280273 
	C350.084961,685.610962 347.235962,677.031433 345.137268,668.492371 
	C340.765076,650.703186 336.173553,632.967834 331.680328,614.844482 
z"/>
<path fill="#A62625" opacity="1.000000" stroke="none" 
	d="
M330.653412,614.377808 
	C330.562317,613.881409 330.647858,613.433472 330.733368,612.985474 
	C331.036316,613.250916 331.339294,613.516357 331.589478,614.033569 
	C331.315491,614.404236 331.079926,614.451172 330.653412,614.377808 
z"/>
<path fill="#FABB0E" opacity="1.000000" stroke="none" 
	d="
M413.839844,409.253082 
	C418.363403,426.894257 422.745880,444.152710 427.267395,461.374664 
	C428.532013,466.191528 430.536377,470.828339 431.602325,475.679352 
	C432.713226,480.734833 432.724701,485.845398 427.464478,490.298676 
	C426.244019,487.598419 424.947601,485.515228 424.332733,483.247284 
	C418.716461,462.530792 413.251434,441.773315 407.677063,421.045380 
	C402.274139,400.954803 396.768036,380.891968 391.356171,360.803802 
	C386.340393,342.186005 381.431885,323.539307 376.397247,304.926636 
	C371.790436,287.895752 367.055817,270.899445 362.417877,253.876892 
	C356.518219,232.223419 350.626648,210.567581 344.828583,188.886826 
	C344.193268,186.511246 343.682159,183.881989 344.064087,181.524399 
	C344.371002,179.629898 346.117645,177.968643 347.225464,176.203888 
	C348.936646,177.659622 351.465088,178.792755 352.192963,180.636627 
	C353.829559,184.782501 354.517548,189.295898 355.689880,193.633133 
	C360.509369,211.463562 365.405090,229.273422 370.198181,247.110901 
	C376.024567,268.793701 381.849365,290.477448 387.539551,312.196198 
	C393.597931,335.320282 399.388855,358.514771 405.521393,381.618866 
	C407.953217,390.780762 410.989990,399.782104 413.839844,409.253082 
z"/>
<path fill="#FABB0E" opacity="1.000000" stroke="none" 
	d="
M513.107056,769.925903 
	C518.847412,791.204163 524.625793,812.047424 530.066162,832.978455 
	C530.784607,835.742554 530.555054,839.319153 529.362305,841.861572 
	C528.056641,844.644531 525.298889,844.527771 523.739624,841.325806 
	C523.088379,839.988464 522.623413,838.538818 522.239197,837.096130 
	C516.035706,813.804688 510.019073,790.462219 503.632782,767.221130 
	C496.670532,741.883911 489.250793,716.672546 482.256714,691.343872 
	C476.588715,670.817566 471.329742,650.178711 465.747101,629.628357 
	C462.256927,616.780701 458.510284,604.002625 454.862335,591.197998 
	C453.884491,587.765747 453.033417,584.436829 455.976959,581.387451 
	C458.538300,578.734009 460.548920,578.774719 461.906464,582.335510 
	C462.733307,584.504272 463.219727,586.803589 463.845734,589.048035 
	C468.977661,607.447876 474.241241,625.812378 479.202301,644.258240 
	C485.468933,667.558533 491.375397,690.955811 497.651947,714.253418 
	C502.236847,731.271729 507.171509,748.195862 511.940399,765.164734 
	C512.345215,766.605103 512.674988,768.066528 513.107056,769.925903 
z"/>
<path fill="#C2161F" opacity="1.000000" stroke="none" 
	d="
M393.001709,247.112991 
	C389.651154,235.000839 386.322083,222.882675 382.929230,210.782379 
	C382.351959,208.723587 381.708588,206.634888 380.737305,204.744156 
	C377.948853,199.315964 377.843048,196.912262 382.955688,193.776428 
	C390.298920,189.272461 398.005341,185.129898 406.009491,181.985565 
	C419.820038,176.560242 434.311096,173.578735 449.194611,172.988297 
	C466.617249,172.297104 483.633911,174.732254 500.552246,178.979355 
	C516.830811,183.065857 533.239868,186.964294 549.816040,189.446396 
	C569.039185,192.324844 588.410156,193.331436 607.950317,190.451141 
	C626.118774,187.773041 642.563782,181.372040 657.926880,171.678802 
	C661.218201,169.602188 663.922485,169.278488 665.102661,173.818481 
	C669.114258,189.250275 673.069214,204.696793 676.775635,220.735504 
	C669.467529,225.290771 662.367371,229.141907 655.404724,233.227478 
	C640.138306,242.185593 622.954590,244.626968 606.061523,244.550629 
	C589.677002,244.476593 573.299683,240.640701 556.942261,238.296158 
	C552.880432,237.713943 548.936401,236.349396 544.887878,235.626526 
	C536.472351,234.123871 527.988220,232.989990 519.597778,231.366547 
	C511.643951,229.827591 503.851349,226.920380 495.851685,226.257248 
	C474.543335,224.490936 453.085419,222.621735 432.300354,230.086029 
	C425.511353,232.524094 418.753235,235.089310 412.138031,237.958466 
	C405.655273,240.770172 399.372345,244.042709 393.001709,247.112991 
z"/>
<path fill="#AC2B07" opacity="1.000000" stroke="none" 
	d="
M393.006592,247.580658 
	C399.372345,244.042709 405.655273,240.770172 412.138031,237.958466 
	C418.753235,235.089310 425.511353,232.524094 432.300354,230.086029 
	C453.085419,222.621735 474.543335,224.490936 495.851685,226.257248 
	C503.851349,226.920380 511.643951,229.827591 519.597778,231.366547 
	C527.988220,232.989990 536.472351,234.123871 544.887878,235.626526 
	C548.936401,236.349396 552.880432,237.713943 556.942261,238.296158 
	C573.299683,240.640701 589.677002,244.476593 606.061523,244.550629 
	C622.954590,244.626968 640.138306,242.185593 655.404724,233.227478 
	C662.367371,229.141907 669.467529,225.290771 676.796997,221.147919 
	C677.971008,220.942520 678.853333,220.922516 680.185181,220.872742 
	C680.634705,220.842987 680.910767,221.089233 680.867798,221.175262 
	C680.315430,221.664642 679.805908,222.067993 678.798950,222.864899 
	C666.797791,232.860397 653.618225,239.459457 639.368286,243.605637 
	C622.601135,248.484207 605.214600,248.827805 588.161743,246.278183 
	C562.177246,242.393204 536.369751,237.282257 510.543915,232.391922 
	C491.112579,228.712448 471.616699,226.972916 451.894958,228.978165 
	C430.095093,231.194702 410.858276,239.818008 393.387451,252.741898 
	C393.262115,251.177368 393.136810,249.612854 393.006592,247.580658 
z"/>
<path fill="#FAB242" opacity="1.000000" stroke="none" 
	d="
M393.315552,252.843079 
	C410.858276,239.818008 430.095093,231.194702 451.894958,228.978165 
	C471.616699,226.972916 491.112579,228.712448 510.543915,232.391922 
	C536.369751,237.282257 562.177246,242.393204 588.161743,246.278183 
	C605.214600,248.827805 622.601135,248.484207 639.368286,243.605637 
	C653.618225,239.459457 666.797791,232.860397 678.599487,223.122421 
	C679.158997,224.424622 679.420410,225.862854 679.453247,227.669678 
	C674.677368,230.576874 670.207520,233.267838 665.569153,235.627457 
	C646.638245,245.257950 626.635193,251.647919 605.299866,250.477737 
	C589.111389,249.589828 572.540588,250.656738 556.847046,244.607224 
	C553.862305,243.456696 550.159973,244.167969 546.482483,243.883286 
	C543.186890,242.827225 540.197449,241.908112 536.817383,240.838821 
	C532.993530,240.173416 529.389893,240.160629 526.154358,239.062744 
	C502.170471,230.924652 477.355774,231.458191 452.616486,232.205185 
	C440.796936,232.562073 429.174469,235.380707 418.588165,240.995773 
	C410.246918,245.420013 402.222900,250.442352 394.057983,255.199036 
	C394.057983,255.199051 393.589233,255.187973 393.355713,255.184875 
	C393.102783,254.726105 393.083344,254.270416 393.073700,253.474289 
	C393.083466,253.133850 393.243683,252.944244 393.315552,252.843079 
z"/>
<path fill="#F4C91C" opacity="1.000000" stroke="none" 
	d="
M394.118805,255.552979 
	C402.222900,250.442352 410.246918,245.420013 418.588165,240.995773 
	C429.174469,235.380707 440.796936,232.562073 452.616486,232.205185 
	C477.355774,231.458191 502.170471,230.924652 526.154358,239.062744 
	C529.389893,240.160629 532.993530,240.173416 536.773621,241.266418 
	C536.612427,245.449402 536.210876,249.073883 535.563293,252.653870 
	C535.023865,255.636169 533.555725,257.357544 530.013428,256.604919 
	C525.812073,255.712296 521.535339,255.014267 517.257385,254.711578 
	C515.191833,254.565430 513.048706,255.517136 510.940704,255.971741 
	C511.792969,257.947754 512.160950,260.424774 513.589050,261.805054 
	C517.744995,265.821899 522.664917,269.082367 526.592041,273.286896 
	C528.487122,275.315765 529.479614,278.744141 529.714233,281.633545 
	C530.044678,285.704834 529.291992,289.864044 529.002441,293.985657 
	C520.776184,292.883179 512.578674,291.441406 504.318237,290.743134 
	C481.433441,288.808807 458.706726,289.389465 437.028198,298.093658 
	C431.073059,300.484772 425.704895,304.341888 420.078949,307.546539 
	C418.204681,308.614166 416.385406,309.778595 414.507690,310.839813 
	C410.747101,312.965179 409.027496,311.126434 408.081573,307.567169 
	C405.081451,296.278564 402.030029,285.003571 398.993500,273.724640 
	C397.394135,267.783966 395.784576,261.846069 394.118805,255.552979 
z"/>
<path fill="#F4C91C" opacity="1.000000" stroke="none" 
	d="
M546.788696,244.020218 
	C550.159973,244.167969 553.862305,243.456696 556.847046,244.607224 
	C572.540588,250.656738 589.111389,249.589828 605.299866,250.477737 
	C626.635193,251.647919 646.638245,245.257950 665.569153,235.627457 
	C670.207520,233.267838 674.677368,230.576874 679.588623,228.010468 
	C681.411377,234.081329 682.734619,240.216248 684.357056,246.271042 
	C687.750549,258.935669 691.301697,271.558044 694.864197,284.552948 
	C683.867310,290.865143 673.157837,297.681000 661.628784,302.560638 
	C647.384888,308.589417 632.105164,309.971497 616.620544,308.361176 
	C605.070862,307.160065 593.487183,306.285522 581.935669,305.100403 
	C579.487183,304.849182 577.112183,303.881104 574.327942,302.768646 
	C571.672180,296.641937 569.504639,290.940552 567.062134,285.359467 
	C565.902771,282.710358 565.854553,280.698486 568.394470,278.883850 
	C571.479004,276.680084 574.546082,274.425018 577.394409,271.933502 
	C578.283630,271.155701 581.417969,269.744843 577.803345,268.110870 
	C577.889404,267.998627 577.741699,268.238983 577.741211,267.868835 
	C576.341309,266.561920 575.058228,265.162872 573.520447,264.775787 
	C569.052856,263.651245 564.514404,262.663269 559.944397,262.133911 
	C555.787598,261.652374 553.872803,259.476715 553.038086,255.630127 
	C552.683167,253.994659 551.783813,252.443436 550.954407,250.952667 
	C549.644470,248.598114 548.184937,246.326767 546.788696,244.020218 
z"/>
<path fill="#000000" opacity="1.000000" stroke="none" 
	d="
M532.840637,295.856445 
	C532.477966,295.855042 532.115295,295.853577 531.530334,295.485504 
	C531.900085,291.511505 532.032837,287.750336 533.178650,284.328339 
	C535.656677,276.927612 533.110535,272.269531 526.653809,268.410095 
	C521.844788,265.535553 517.709290,261.534027 513.273865,258.034393 
	C513.491577,257.689941 513.709351,257.345490 513.927063,257.001007 
	C521.546082,258.283508 529.165100,259.565979 536.914612,260.870422 
	C538.178040,254.261932 539.348572,248.139542 540.519104,242.017136 
	C540.917419,241.912659 541.315735,241.808197 541.714050,241.703720 
	C544.341797,247.121674 546.766357,252.652634 549.688660,257.906738 
	C551.017578,260.296021 552.997131,263.394287 555.260010,263.996277 
	C562.609985,265.951569 570.227295,266.901794 577.741699,268.238983 
	C577.741699,268.238983 577.889404,267.998627 577.623169,268.368591 
	C571.865173,272.286255 566.373413,275.833893 560.638367,279.538727 
	C561.908020,282.382294 563.079285,285.005463 564.265259,287.873016 
	C564.376770,288.439270 564.550964,288.711639 564.926392,289.164612 
	C565.068787,289.567871 565.087524,289.741058 565.029419,290.281616 
	C563.305847,291.757416 561.659119,292.865845 559.706543,293.932556 
	C558.992249,293.850616 558.583923,293.810425 558.037720,293.494476 
	C556.968323,292.445953 556.036865,291.673157 554.969421,290.626770 
	C554.311707,290.044830 553.789978,289.736450 553.080566,289.178375 
	C550.889648,288.430634 548.410889,286.931763 546.969604,287.616547 
	C542.062622,289.947876 537.521423,293.049133 532.840637,295.856445 
z"/>
<path fill="#E1B44C" opacity="1.000000" stroke="none" 
	d="
M577.741211,267.868835 
	C570.227295,266.901794 562.609985,265.951569 555.260010,263.996277 
	C552.997131,263.394287 551.017578,260.296021 549.688660,257.906738 
	C546.766357,252.652634 544.341797,247.121674 541.714050,241.703720 
	C541.315735,241.808197 540.917419,241.912659 540.519104,242.017136 
	C539.348572,248.139542 538.178040,254.261932 536.914612,260.870422 
	C529.165100,259.565979 521.546082,258.283508 513.927063,257.001007 
	C513.709351,257.345490 513.491577,257.689941 513.273865,258.034393 
	C517.709290,261.534027 521.844788,265.535553 526.653809,268.410095 
	C533.110535,272.269531 535.656677,276.927612 533.178650,284.328339 
	C532.032837,287.750336 531.900085,291.511505 531.258911,295.505981 
	C530.582031,295.425201 529.954346,294.957306 529.164551,294.237518 
	C529.291992,289.864044 530.044678,285.704834 529.714233,281.633545 
	C529.479614,278.744141 528.487122,275.315765 526.592041,273.286896 
	C522.664917,269.082367 517.744995,265.821899 513.589050,261.805054 
	C512.160950,260.424774 511.792969,257.947754 510.940704,255.971741 
	C513.048706,255.517136 515.191833,254.565430 517.257385,254.711578 
	C521.535339,255.014267 525.812073,255.712296 530.013428,256.604919 
	C533.555725,257.357544 535.023865,255.636169 535.563293,252.653870 
	C536.210876,249.073883 536.612427,245.449402 537.164307,241.416595 
	C540.197449,241.908112 543.186890,242.827225 546.482483,243.883286 
	C548.184937,246.326767 549.644470,248.598114 550.954407,250.952667 
	C551.783813,252.443436 552.683167,253.994659 553.038086,255.630127 
	C553.872803,259.476715 555.787598,261.652374 559.944397,262.133911 
	C564.514404,262.663269 569.052856,263.651245 573.520447,264.775787 
	C575.058228,265.162872 576.341309,266.561920 577.741211,267.868835 
z"/>
<path fill="#E1B44C" opacity="1.000000" stroke="none" 
	d="
M565.106323,289.914276 
	C565.087524,289.741058 565.068787,289.567871 564.954468,288.906616 
	C564.656067,288.155243 564.453308,287.891937 564.250549,287.628632 
	C563.079285,285.005463 561.908020,282.382294 560.638367,279.538727 
	C566.373413,275.833893 571.865173,272.286255 577.537109,268.480835 
	C581.417969,269.744843 578.283630,271.155701 577.394409,271.933502 
	C574.546082,274.425018 571.479004,276.680084 568.394470,278.883850 
	C565.854553,280.698486 565.902771,282.710358 567.062134,285.359467 
	C569.504639,290.940552 571.672180,296.641937 573.951233,302.692383 
	C572.727356,302.554810 571.504761,302.018829 570.152954,300.845886 
	C568.384583,296.777344 566.745483,293.345795 565.106323,289.914276 
z"/>
<path fill="#F4C91C" opacity="1.000000" stroke="none" 
	d="
M557.980530,300.895020 
	C552.256165,299.607727 546.531738,298.320465 540.485474,296.666443 
	C543.747864,290.774384 546.951416,289.481415 553.172424,291.160645 
	C553.331482,291.207764 553.652893,291.294220 553.740601,291.634521 
	C555.212341,294.948242 556.596436,297.921631 557.980530,300.895020 
z"/>
<path fill="#E1B44C" opacity="1.000000" stroke="none" 
	d="
M553.013367,291.113495 
	C546.951416,289.481415 543.747864,290.774384 540.082703,296.633179 
	C537.885742,296.613434 535.769714,296.260254 533.247131,295.881744 
	C537.521423,293.049133 542.062622,289.947876 546.969604,287.616547 
	C548.410889,286.931763 550.889648,288.430634 553.012817,289.598999 
	C553.092957,290.550720 553.053162,290.832092 553.013367,291.113495 
z"/>
<path fill="#E1B44C" opacity="1.000000" stroke="none" 
	d="
M558.326782,300.989807 
	C556.596436,297.921631 555.212341,294.948242 554.103271,291.529785 
	C554.620544,291.023254 554.862915,290.961792 555.105347,290.900360 
	C556.036865,291.673157 556.968323,292.445953 558.229736,293.714355 
	C559.102783,294.418976 559.645935,294.627991 560.145508,294.866394 
	C560.101868,294.895813 560.046265,294.806519 560.238403,295.001465 
	C560.735779,295.396118 561.041016,295.595825 561.363647,295.765381 
	C561.380981,295.735199 561.445801,295.760620 561.445801,295.760620 
	C562.376038,297.875763 563.306335,299.990906 564.620422,302.978577 
	C562.184875,302.202972 560.428955,301.643799 558.326782,300.989807 
z"/>
<path fill="#2E0202" opacity="1.000000" stroke="none" 
	d="
M565.029419,290.281616 
	C566.745483,293.345795 568.384583,296.777344 569.994812,300.583374 
	C567.334900,299.292633 564.703979,297.627380 561.759399,295.861389 
	C561.445801,295.760620 561.380981,295.735199 561.236816,295.500183 
	C560.743835,295.112305 560.395020,294.959412 560.046265,294.806519 
	C560.046265,294.806519 560.101868,294.895813 560.092346,294.652496 
	C560.082825,294.409180 560.012390,293.974304 560.012390,293.974304 
	C561.659119,292.865845 563.305847,291.757416 565.029419,290.281616 
z"/>
<path fill="#C9C74B" opacity="1.000000" stroke="none" 
	d="
M559.706543,293.932556 
	C560.012390,293.974304 560.082825,294.409180 560.135986,294.623108 
	C559.645935,294.627991 559.102783,294.418976 558.367554,293.990112 
	C558.583923,293.810425 558.992249,293.850616 559.706543,293.932556 
z"/>
<path fill="#C9C74B" opacity="1.000000" stroke="none" 
	d="
M554.969421,290.626770 
	C554.862915,290.961792 554.620544,291.023254 554.015564,291.189453 
	C553.652893,291.294220 553.331482,291.207764 553.172424,291.160645 
	C553.053162,290.832092 553.092957,290.550720 553.200439,289.848694 
	C553.789978,289.736450 554.311707,290.044830 554.969421,290.626770 
z"/>
<path fill="#2E0202" opacity="1.000000" stroke="none" 
	d="
M564.265259,287.873016 
	C564.453308,287.891937 564.656067,288.155243 564.830688,288.676514 
	C564.550964,288.711639 564.376770,288.439270 564.265259,287.873016 
z"/>
<path fill="#C9C74B" opacity="1.000000" stroke="none" 
	d="
M560.238403,295.001465 
	C560.395020,294.959412 560.743835,295.112305 561.219482,295.530396 
	C561.041016,295.595825 560.735779,295.396118 560.238403,295.001465 
z"/>
</svg>