<svg version="1.1" id="Layer_1" xmlns="http://www.w3.org/2000/svg" xmlns:xlink="http://www.w3.org/1999/xlink" x="0px" y="0px"
	 width="100%" viewBox="0 0 1024 1024" enable-background="new 0 0 1024 1024" xml:space="preserve">
<path fill="#000000" opacity="1.000000" stroke="none" 
	d="
M475.000000,1025.000000 
	C316.666656,1025.000000 158.833328,1025.000000 1.000000,1025.000000 
	C1.000000,683.666687 1.000000,342.333344 1.000000,1.000000 
	C342.333344,1.000000 683.666687,1.000000 1025.000000,1.000000 
	C1025.000000,342.333344 1025.000000,683.666687 1025.000000,1025.000000 
	C841.833313,1025.000000 658.666687,1025.000000 475.000000,1025.000000 
M220.014191,312.013336 
	C220.014191,312.013336 220.012482,311.948334 219.472183,312.092865 
	C219.304306,312.409424 219.136444,312.725952 219.041031,313.031372 
	C219.041031,313.031372 219.031387,312.958679 218.305923,313.333130 
	C217.864380,315.180969 217.043335,317.027649 217.037888,318.876770 
	C216.947571,349.524658 216.937988,380.172852 216.961349,410.820923 
	C216.968842,420.637695 217.124115,430.454346 217.106796,441.169281 
	C217.084229,484.633942 217.061676,528.098572 216.997559,572.580078 
	C216.981354,612.207642 216.948257,651.835266 216.994293,691.462769 
	C216.996826,693.647217 217.656357,695.830811 218.444824,698.510620 
	C220.245529,697.907166 222.217560,697.595886 223.820740,696.655640 
	C242.081528,685.945312 261.012848,676.872498 281.774780,672.029419 
	C285.407715,671.181946 288.892548,669.699341 293.174408,668.539368 
	C304.964996,666.866455 316.713501,664.710144 328.559937,663.679077 
	C337.467773,662.903748 346.520477,663.211426 355.474182,663.686829 
	C367.541107,664.327454 379.574890,665.592346 392.431854,666.900024 
	C393.539032,667.242798 394.623596,667.734314 395.756683,667.906677 
	C425.912689,672.495361 455.085297,681.115479 484.246277,689.702759 
	C502.453522,695.064453 520.382568,701.376038 538.609924,706.663452 
	C560.334717,712.965271 582.144775,719.037231 604.113831,724.407471 
	C616.620911,727.464844 629.493042,729.093018 642.250427,731.039673 
	C650.414062,732.285400 658.668152,732.937927 667.837585,733.991028 
	C680.930908,733.944153 694.024231,733.897217 707.859741,733.570129 
	C730.143250,731.171265 751.931396,726.912476 772.727295,718.061707 
	C785.024292,712.828003 797.276062,707.688049 808.615601,698.835083 
	C808.735474,697.189514 808.957458,695.544128 808.959778,693.898438 
	C808.994568,668.618286 808.912781,643.337585 809.046631,618.058105 
	C809.127319,602.817505 809.532959,587.578674 809.781494,571.484802 
	C809.771912,556.861084 809.758423,542.237427 809.753479,527.613708 
	C809.743591,498.035736 809.738342,468.457764 809.908936,437.787903 
	C809.932190,423.825226 810.084167,409.861267 809.942505,395.900269 
	C809.801331,381.986359 809.682190,368.059204 808.969055,354.167847 
	C808.268921,340.530975 811.969299,326.807861 808.625977,311.613068 
	C804.975342,314.303528 802.454102,316.161621 800.024658,318.019440 
	C800.024658,318.019440 800.025330,317.927704 799.348389,318.031769 
	C798.527283,318.711334 797.706177,319.390869 796.585205,320.102478 
	C796.585205,320.102478 796.307373,320.219666 795.683228,320.116028 
	C795.432251,320.419525 795.181213,320.723053 795.024841,321.024384 
	C795.024841,321.024384 795.023682,320.929718 794.282593,321.012024 
	C791.536865,322.664429 788.791138,324.316833 785.544373,326.108826 
	C785.379822,326.163422 785.215271,326.218048 784.715576,326.167480 
	C784.715576,326.167480 784.370728,326.234039 783.665283,326.119781 
	C783.357910,326.459900 783.050537,326.800018 782.061279,327.110931 
	C779.783752,328.134399 777.506165,329.157837 774.583313,330.093964 
	C774.322021,330.421295 774.060669,330.748627 773.102234,331.030579 
	C771.369141,332.039551 769.636108,333.048492 767.548767,334.113953 
	C767.548767,334.113953 767.211853,334.237183 766.409973,334.075226 
	C759.927307,336.400543 753.444580,338.725861 746.451782,341.095428 
	C746.112488,341.125458 745.773132,341.155487 744.727722,341.082062 
	C744.437012,341.419952 744.146301,341.757812 743.296204,342.121185 
	C742.926575,342.166290 742.556885,342.211365 741.338928,342.069244 
	C735.309021,343.107513 729.279114,344.145782 722.577026,345.103363 
	C722.309509,345.449432 722.041931,345.795502 720.930481,346.086761 
	C718.956848,346.119934 716.983276,346.153107 714.415955,346.142273 
	C714.196777,346.465881 713.977661,346.789490 712.962891,347.070099 
	C710.712708,347.463898 708.462463,347.857697 705.268494,348.112976 
	C701.144653,348.309387 697.022461,348.620392 692.896667,348.679138 
	C683.445251,348.813782 673.958374,349.342834 664.549683,348.731140 
	C656.284546,348.193787 648.117554,346.242432 639.885681,345.066437 
	C633.743958,344.189087 627.502075,343.891266 621.425903,342.711395 
	C615.583374,341.576965 609.908691,339.594757 604.138733,338.066101 
	C592.681641,335.030731 581.135254,332.306824 569.760376,328.992401 
	C549.484375,323.084473 529.315613,316.809387 509.087677,310.735657 
	C498.054413,307.422791 487.046875,304.004211 475.929657,300.995697 
	C458.140106,296.181488 440.313080,291.488800 422.414551,287.101105 
	C412.843079,284.754700 403.118591,282.984650 393.405945,281.280457 
	C387.653046,280.271057 381.800537,279.738464 375.969574,279.301880 
	C372.916901,279.073334 369.814117,279.514709 366.159821,279.244110 
	C364.291870,278.810852 362.427643,278.023529 360.555298,278.003662 
	C350.763153,277.899689 340.968903,277.990417 330.469147,278.087280 
	C329.891083,278.485321 329.312988,278.883362 327.998077,279.161224 
	C326.747742,279.193298 325.497437,279.225372 323.348419,279.128448 
	C315.975372,280.263611 308.608795,281.443298 301.226471,282.514496 
	C297.699310,283.026306 294.058960,282.982117 290.615540,283.801727 
	C282.601746,285.709137 274.482819,287.454071 266.764313,290.251892 
	C257.235229,293.705963 248.068802,298.160553 238.064926,302.134674 
	C236.026016,303.436981 233.987122,304.739288 231.577087,306.111145 
	C231.577087,306.111145 231.220901,306.236511 230.618942,306.143707 
	C230.381409,306.447693 230.143875,306.751709 229.581604,307.099396 
	C229.581604,307.099396 229.278458,307.223846 228.561661,307.066620 
	C227.651367,307.746674 226.741058,308.426727 225.591583,309.114441 
	C225.591583,309.114441 225.382996,309.231689 224.672195,309.099426 
	C224.370560,309.447174 224.068924,309.794922 223.572739,310.121796 
	C223.572739,310.121796 223.400543,310.214783 222.666214,310.070923 
	C222.338486,310.422455 222.010757,310.774017 221.557510,311.092010 
	C221.557510,311.092010 221.467377,311.185608 220.790100,311.074158 
	C220.509903,311.385040 220.229691,311.695953 220.014191,312.013336 
z"/>
<path fill="#126637" opacity="1.000000" stroke="none" 
	d="
M666.881714,733.856384 
	C658.668152,732.937927 650.414062,732.285400 642.250427,731.039673 
	C629.493042,729.093018 616.620911,727.464844 604.113831,724.407471 
	C582.144775,719.037231 560.334717,712.965271 538.609924,706.663452 
	C520.382568,701.376038 502.453522,695.064453 484.246277,689.702759 
	C455.085297,681.115479 425.912689,672.495361 395.756683,667.906677 
	C394.623596,667.734314 393.539032,667.242798 391.818237,666.525757 
	C390.435852,665.882263 389.687042,665.494507 388.895355,665.361084 
	C364.762909,661.292419 340.489441,661.259949 316.235260,663.579285 
	C308.221527,664.345581 300.370941,666.817810 292.445770,668.510071 
	C288.892548,669.699341 285.407715,671.181946 281.774780,672.029419 
	C261.012848,676.872498 242.081528,685.945312 223.820740,696.655640 
	C222.217560,697.595886 220.245529,697.907166 218.233765,697.793030 
	C218.033813,655.385925 218.044922,613.696472 218.308838,571.770142 
	C245.898376,554.835632 275.369537,543.921936 307.030670,539.009155 
	C343.567322,533.339905 379.736786,536.365967 415.762817,543.535339 
	C459.628571,552.264954 501.751984,567.103943 544.465271,579.886719 
	C585.183289,592.072327 626.145874,602.944153 668.898682,605.467224 
	C717.061157,608.309631 762.317932,599.237305 803.990723,574.263855 
	C805.323669,573.465088 806.974792,573.197144 808.341919,573.243958 
	C808.129639,575.798828 807.986938,577.791443 807.986267,579.784058 
	C807.973328,619.690247 807.976868,659.596375 807.976990,699.502563 
	C797.276062,707.688049 785.024292,712.828003 772.727295,718.061707 
	C751.931396,726.912476 730.143250,731.171265 707.165405,733.425781 
	C694.690247,733.164612 682.909546,733.015198 671.128540,732.973511 
	C669.713989,732.968506 668.297363,733.547913 666.881714,733.856384 
z"/>
<path fill="#D92121" opacity="1.000000" stroke="none" 
	d="
M225.382996,309.231689 
	C225.382996,309.231689 225.591583,309.114441 226.054596,309.078857 
	C227.437881,308.436768 228.358170,307.830322 229.278458,307.223846 
	C229.278458,307.223846 229.581604,307.099396 229.987625,306.982758 
	C230.669403,306.656250 230.945160,306.446381 231.220917,306.236511 
	C231.220901,306.236511 231.577087,306.111145 232.125549,306.023193 
	C234.697906,304.684448 236.721802,303.433655 238.745682,302.182831 
	C248.068802,298.160553 257.235229,293.705963 266.764313,290.251892 
	C274.482819,287.454071 282.601746,285.709137 290.615540,283.801727 
	C294.058960,282.982117 297.699310,283.026306 301.226471,282.514496 
	C308.608795,281.443298 315.975372,280.263611 324.053711,279.329987 
	C326.084290,279.448151 327.409607,279.364777 328.734894,279.281403 
	C329.312988,278.883362 329.891083,278.485321 330.946289,278.397888 
	C333.144257,279.048737 334.863098,279.670898 336.586212,279.682861 
	C346.634888,279.752380 356.684601,279.678802 366.733948,279.653564 
	C369.814117,279.514709 372.916901,279.073334 375.969574,279.301880 
	C381.800537,279.738464 387.653046,280.271057 393.405945,281.280457 
	C403.118591,282.984650 412.843079,284.754700 422.414551,287.101105 
	C440.313080,291.488800 458.140106,296.181488 475.929657,300.995697 
	C487.046875,304.004211 498.054413,307.422791 509.087677,310.735657 
	C529.315613,316.809387 549.484375,323.084473 569.760376,328.992401 
	C581.135254,332.306824 592.681641,335.030731 604.138733,338.066101 
	C609.908691,339.594757 615.583374,341.576965 621.425903,342.711395 
	C627.502075,343.891266 633.743958,344.189087 639.885681,345.066437 
	C648.117554,346.242432 656.284546,348.193787 664.549683,348.731140 
	C673.958374,349.342834 683.445251,348.813782 692.896667,348.679138 
	C697.022461,348.620392 701.144653,348.309387 706.077637,348.334412 
	C710.659119,348.271606 714.502563,348.350525 718.189270,347.628662 
	C726.230896,346.054077 734.192810,344.072021 742.187256,342.256470 
	C742.556885,342.211365 742.926575,342.166290 743.881470,342.040161 
	C744.789124,341.701263 745.111511,341.443390 745.433838,341.185516 
	C745.773132,341.155487 746.112488,341.125458 747.013428,341.170654 
	C754.120667,338.909637 760.666260,336.573425 767.211853,334.237183 
	C767.211853,334.237183 767.548767,334.113953 768.121460,334.053223 
	C773.377136,331.708374 778.060120,329.424255 782.743164,327.140137 
	C783.050537,326.800018 783.357910,326.459900 784.073059,326.265503 
	C784.480835,326.411194 784.781433,326.443665 784.781433,326.443665 
	C784.781433,326.443665 785.050720,326.272675 785.050720,326.272675 
	C785.215271,326.218048 785.379822,326.163422 786.154663,325.984924 
	C789.517883,324.217255 792.270813,322.573486 795.023682,320.929718 
	C795.023682,320.929718 795.024841,321.024384 795.236938,320.948975 
	C795.735107,320.655609 796.021240,320.437653 796.307373,320.219666 
	C796.307373,320.219666 796.585205,320.102478 797.073853,320.034058 
	C798.383484,319.286316 799.204407,318.606995 800.025330,317.927704 
	C800.025330,317.927704 800.024658,318.019440 800.383301,317.973938 
	C806.597839,316.321381 807.287048,316.665009 807.287109,321.933411 
	C807.287537,349.301422 807.218445,376.669464 807.141846,404.497925 
	C807.085327,414.788483 807.321960,424.631042 806.857422,434.440338 
	C806.736877,436.986816 805.075500,440.471619 803.017273,441.758148 
	C783.101135,454.206757 761.693909,463.198120 738.666870,468.137939 
	C711.785095,473.904694 684.639465,476.082001 657.385986,471.966187 
	C633.410461,468.345428 609.313904,464.802246 585.795715,459.070923 
	C559.976624,452.778931 534.740479,444.080536 509.281952,436.326813 
	C467.729675,423.671448 426.301880,410.637726 382.863983,405.617035 
	C359.625641,402.931091 336.459686,401.938324 313.254242,405.274323 
	C286.211914,409.161957 260.269897,416.647675 235.912354,429.282928 
	C230.370895,432.157471 224.541519,434.476898 218.788361,436.582397 
	C218.725906,403.865906 218.697220,371.618835 218.728409,339.371857 
	C218.736923,330.567383 218.925461,321.763062 219.031387,312.958679 
	C219.031387,312.958679 219.041031,313.031372 219.258118,312.941895 
	C219.654282,312.551086 219.833374,312.249695 220.012482,311.948334 
	C220.012482,311.948334 220.014191,312.013336 220.279953,311.976074 
	C220.852936,311.687744 221.160156,311.436676 221.467377,311.185608 
	C221.467377,311.185608 221.557510,311.092010 221.943863,311.030273 
	C222.686996,310.717316 223.043777,310.466064 223.400543,310.214783 
	C223.400543,310.214783 223.572739,310.121796 223.979370,310.056213 
	C224.718353,309.737640 225.050674,309.484680 225.382996,309.231689 
z"/>
<path fill="#D7BC40" opacity="1.000000" stroke="none" 
	d="
M808.477600,572.681702 
	C806.974792,573.197144 805.323669,573.465088 803.990723,574.263855 
	C762.317932,599.237305 717.061157,608.309631 668.898682,605.467224 
	C626.145874,602.944153 585.183289,592.072327 544.465271,579.886719 
	C501.751984,567.103943 459.628571,552.264954 415.762817,543.535339 
	C379.736786,536.365967 343.567322,533.339905 307.030670,539.009155 
	C275.369537,543.921936 245.898376,554.835632 218.046204,571.678223 
	C217.366882,571.736572 217.203003,571.649902 217.039124,571.563232 
	C217.061676,528.098572 217.084229,484.633942 217.277618,440.762878 
	C217.448425,440.356445 217.701141,440.356232 217.972046,440.528717 
	C219.454056,440.284210 220.665161,439.867218 221.782181,439.863953 
	C221.099625,443.158112 220.008209,446.036957 219.998993,448.919250 
	C219.881699,485.575836 219.919769,522.232910 219.918564,558.889832 
	C219.918533,559.722900 219.894669,560.557129 219.928253,561.388916 
	C220.117264,566.068787 221.323212,566.839294 225.378677,564.753784 
	C228.485672,563.156067 231.486526,561.349365 234.610901,559.788330 
	C261.837402,546.185181 290.429840,537.754517 320.872162,534.698242 
	C344.777710,532.298340 368.481506,532.967224 391.909790,537.022339 
	C416.307770,541.245239 440.380280,547.369141 464.553223,552.846741 
	C467.791351,553.580444 469.959747,553.714478 471.214111,550.081482 
	C475.073334,538.904053 479.000702,527.748840 483.054504,516.640747 
	C484.138214,513.671204 483.325775,511.690735 481.221924,509.549133 
	C471.188507,499.335846 461.276794,489.002838 451.338898,478.695984 
	C450.185974,477.500275 448.830109,476.353699 448.124542,474.912079 
	C447.323792,473.276062 447.149078,471.333649 446.702179,469.524445 
	C448.532104,469.340424 450.499054,468.628967 452.168518,469.062622 
	C459.882507,471.066559 467.516510,473.379486 475.173706,475.600616 
	C480.767303,477.223145 486.353088,478.872589 491.940979,480.514862 
	C494.653595,481.312134 496.223297,480.517761 497.211273,477.655609 
	C500.249207,468.854889 503.634308,460.174561 506.725006,451.391327 
	C509.780273,442.708771 509.694336,442.679718 503.262543,437.344452 
	C503.150513,437.251587 503.135742,437.041534 503.457886,436.921509 
	C506.823364,438.424286 509.806610,439.891754 512.638550,441.641785 
	C507.467987,455.949707 502.448761,469.975098 497.385071,484.124786 
	C480.857330,479.548950 464.732147,475.084564 448.606964,470.620178 
	C457.941254,481.927612 467.207947,492.685089 477.770477,501.967987 
	C485.865906,509.082642 487.525238,515.460083 482.744080,525.261047 
	C478.085602,534.810547 475.431396,545.337708 471.432587,556.763184 
	C483.042389,551.776550 493.298767,547.392761 503.537231,542.967590 
	C513.876160,538.498962 513.868408,538.481018 520.806274,547.664490 
	C519.474731,547.119873 518.190369,546.778931 517.558105,545.944092 
	C514.203613,541.514709 510.397705,541.640869 505.717926,543.846008 
	C497.760254,547.595825 489.578552,550.868347 481.530670,554.431091 
	C480.625153,554.831970 479.975830,555.811523 478.024384,557.618286 
	C501.444031,564.588623 523.457092,571.965332 546.210876,577.403870 
	C545.008911,574.750366 543.227661,573.089111 541.780457,571.175171 
	C540.047119,568.882751 538.599121,566.374634 537.338989,564.083862 
	C543.285645,569.532166 548.920837,574.856567 554.572021,580.196045 
	C549.562744,562.947571 544.486511,545.468628 539.332336,527.721375 
	C541.808716,526.603027 543.919006,525.675537 546.007996,524.702454 
	C557.145630,519.514221 568.278015,514.314636 579.538330,509.393311 
	C578.116028,511.151581 576.815857,513.159119 574.977295,514.030518 
	C566.105103,518.235413 557.072815,522.100952 548.130676,526.160400 
	C544.998657,527.582153 542.049988,529.200867 543.358887,533.611633 
	C547.666382,548.127319 551.752319,562.712524 556.360352,577.131287 
	C557.059387,579.318665 559.795959,581.713257 562.073242,582.392822 
	C573.391602,585.770447 584.850586,588.688660 596.299011,591.616211 
	C624.770081,598.896667 653.757019,602.917725 683.080200,603.834839 
	C704.456238,604.503418 725.567688,601.326965 746.294312,596.127625 
	C765.945251,591.198120 784.526672,583.494385 801.694153,572.692627 
	C803.794312,571.371155 805.849731,568.045532 805.866211,565.634644 
	C806.127686,527.322815 806.026733,489.008575 806.100220,450.695099 
	C806.106689,447.320374 804.837708,445.707886 801.739563,445.496094 
	C804.047485,443.792603 806.106323,442.327240 808.396851,440.723511 
	C808.996094,440.016663 809.363647,439.448212 809.731201,438.879791 
	C809.738342,468.457764 809.743591,498.035736 809.753479,527.613708 
	C809.758423,542.237427 809.771912,556.861084 809.604858,571.865601 
	C809.111328,572.391541 808.794434,572.536621 808.477600,572.681702 
z"/>
<path fill="#AF6565" opacity="1.000000" stroke="none" 
	d="
M809.820068,438.333862 
	C809.363647,439.448212 808.996094,440.016663 808.355408,440.167175 
	C808.015808,433.278320 808.018860,426.805664 807.861389,420.336884 
	C807.729065,414.901398 807.409912,409.470428 807.173584,404.037476 
	C807.218445,376.669464 807.287537,349.301422 807.287109,321.933411 
	C807.287048,316.665009 806.597839,316.321381 800.337402,317.974060 
	C802.454102,316.161621 804.975342,314.303528 808.625977,311.613068 
	C811.969299,326.807861 808.268921,340.530975 808.969055,354.167847 
	C809.682190,368.059204 809.801331,381.986359 809.942505,395.900269 
	C810.084167,409.861267 809.932190,423.825226 809.820068,438.333862 
z"/>
<path fill="#AF6565" opacity="1.000000" stroke="none" 
	d="
M217.701141,440.356232 
	C217.701141,440.356232 217.448425,440.356445 217.330109,440.313751 
	C217.124115,430.454346 216.968842,420.637695 216.961349,410.820923 
	C216.937988,380.172852 216.947571,349.524658 217.037888,318.876770 
	C217.043335,317.027649 217.864380,315.180969 218.668655,313.145905 
	C218.925461,321.763062 218.736923,330.567383 218.728409,339.371857 
	C218.697220,371.618835 218.725906,403.865906 218.670471,436.906311 
	C218.306305,438.585236 218.003723,439.470734 217.701141,440.356232 
z"/>
<path fill="#58836C" opacity="1.000000" stroke="none" 
	d="
M292.810089,668.524719 
	C300.370941,666.817810 308.221527,664.345581 316.235260,663.579285 
	C340.489441,661.259949 364.762909,661.292419 388.895355,665.361084 
	C389.687042,665.494507 390.435852,665.882263 391.413757,666.370361 
	C379.574890,665.592346 367.541107,664.327454 355.474182,663.686829 
	C346.520477,663.211426 337.467773,662.903748 328.559937,663.679077 
	C316.713501,664.710144 304.964996,666.866455 292.810089,668.524719 
z"/>
<path fill="#58836C" opacity="1.000000" stroke="none" 
	d="
M808.341919,573.243958 
	C808.794434,572.536621 809.111328,572.391541 809.610352,572.292725 
	C809.532959,587.578674 809.127319,602.817505 809.046631,618.058105 
	C808.912781,643.337585 808.994568,668.618286 808.959778,693.898438 
	C808.957458,695.544128 808.735474,697.189514 808.296265,699.168823 
	C807.976868,659.596375 807.973328,619.690247 807.986267,579.784058 
	C807.986938,577.791443 808.129639,575.798828 808.341919,573.243958 
z"/>
<path fill="#58836C" opacity="1.000000" stroke="none" 
	d="
M217.018341,572.071655 
	C217.203003,571.649902 217.366882,571.736572 217.793396,571.915100 
	C218.044922,613.696472 218.033813,655.385925 218.016388,697.545166 
	C217.656357,695.830811 216.996826,693.647217 216.994293,691.462769 
	C216.948257,651.835266 216.981354,612.207642 217.018341,572.071655 
z"/>
<path fill="#AF6565" opacity="1.000000" stroke="none" 
	d="
M366.446899,279.448853 
	C356.684601,279.678802 346.634888,279.752380 336.586212,279.682861 
	C334.863098,279.670898 333.144257,279.048737 331.299408,278.360962 
	C340.968903,277.990417 350.763153,277.899689 360.555298,278.003662 
	C362.427643,278.023529 364.291870,278.810852 366.446899,279.448853 
z"/>
<path fill="#AF6565" opacity="1.000000" stroke="none" 
	d="
M741.763062,342.162842 
	C734.192810,344.072021 726.230896,346.054077 718.189270,347.628662 
	C714.502563,348.350525 710.659119,348.271606 706.549500,348.403687 
	C708.462463,347.857697 710.712708,347.463898 713.638916,347.045532 
	C714.546448,346.742706 714.778015,346.464478 715.009644,346.186279 
	C716.983276,346.153107 718.956848,346.119934 721.663757,346.073090 
	C722.681091,345.767639 722.965149,345.475861 723.249207,345.184082 
	C729.279114,344.145782 735.309021,343.107513 741.763062,342.162842 
z"/>
<path fill="#58836C" opacity="1.000000" stroke="none" 
	d="
M667.359619,733.923706 
	C668.297363,733.547913 669.713989,732.968506 671.128540,732.973511 
	C682.909546,733.015198 694.690247,733.164612 706.794312,733.565918 
	C694.024231,733.897217 680.930908,733.944153 667.359619,733.923706 
z"/>
<path fill="#AF6565" opacity="1.000000" stroke="none" 
	d="
M766.810913,334.156219 
	C760.666260,336.573425 754.120667,338.909637 747.268433,341.148499 
	C753.444580,338.725861 759.927307,336.400543 766.810913,334.156219 
z"/>
<path fill="#AF6565" opacity="1.000000" stroke="none" 
	d="
M782.402222,327.125519 
	C778.060120,329.424255 773.377136,331.708374 768.298584,334.024963 
	C769.636108,333.048492 771.369141,332.039551 773.753540,331.029144 
	C774.679443,330.745575 774.954041,330.463440 775.228638,330.181274 
	C777.506165,329.157837 779.783752,328.134399 782.402222,327.125519 
z"/>
<path fill="#AF6565" opacity="1.000000" stroke="none" 
	d="
M794.653137,320.970886 
	C792.270813,322.573486 789.517883,324.217255 786.405212,325.915161 
	C788.791138,324.316833 791.536865,322.664429 794.653137,320.970886 
z"/>
<path fill="#AF6565" opacity="1.000000" stroke="none" 
	d="
M238.405304,302.158752 
	C236.721802,303.433655 234.697906,304.684448 232.311127,305.988434 
	C233.987122,304.739288 236.026016,303.436981 238.405304,302.158752 
z"/>
<path fill="#AF6565" opacity="1.000000" stroke="none" 
	d="
M328.366486,279.221313 
	C327.409607,279.364777 326.084290,279.448151 324.503052,279.394501 
	C325.497437,279.225372 326.747742,279.193298 328.366486,279.221313 
z"/>
<path fill="#AF6565" opacity="1.000000" stroke="none" 
	d="
M799.686890,317.979736 
	C799.204407,318.606995 798.383484,319.286316 797.223816,320.018005 
	C797.706177,319.390869 798.527283,318.711334 799.686890,317.979736 
z"/>
<path fill="#AF6565" opacity="1.000000" stroke="none" 
	d="
M228.920059,307.145233 
	C228.358170,307.830322 227.437881,308.436768 226.174179,309.075012 
	C226.741058,308.426727 227.651367,307.746674 228.920059,307.145233 
z"/>
<path fill="#AF6565" opacity="1.000000" stroke="none" 
	d="
M223.033386,310.142853 
	C223.043777,310.466064 222.686996,310.717316 222.006622,311.047058 
	C222.010757,310.774017 222.338486,310.422455 223.033386,310.142853 
z"/>
<path fill="#AF6565" opacity="1.000000" stroke="none" 
	d="
M225.027588,309.165558 
	C225.050674,309.484680 224.718353,309.737640 224.076645,310.066650 
	C224.068924,309.794922 224.370560,309.447174 225.027588,309.165558 
z"/>
<path fill="#AF6565" opacity="1.000000" stroke="none" 
	d="
M230.919922,306.190125 
	C230.945160,306.446381 230.669403,306.656250 230.149994,306.960907 
	C230.143875,306.751709 230.381409,306.447693 230.919922,306.190125 
z"/>
<path fill="#AF6565" opacity="1.000000" stroke="none" 
	d="
M745.080811,341.133789 
	C745.111511,341.443390 744.789124,341.701263 744.161133,342.027435 
	C744.146301,341.757812 744.437012,341.419952 745.080811,341.133789 
z"/>
<path fill="#D92121" opacity="1.000000" stroke="none" 
	d="
M774.906006,330.137634 
	C774.954041,330.463440 774.679443,330.745575 774.102051,331.051819 
	C774.060669,330.748627 774.322021,330.421295 774.906006,330.137634 
z"/>
<path fill="#D92121" opacity="1.000000" stroke="none" 
	d="
M722.913086,345.143738 
	C722.965149,345.475861 722.681091,345.767639 722.085693,346.100494 
	C722.041931,345.795502 722.309509,345.449432 722.913086,345.143738 
z"/>
<path fill="#D92121" opacity="1.000000" stroke="none" 
	d="
M714.712769,346.164276 
	C714.778015,346.464478 714.546448,346.742706 714.036682,347.067017 
	C713.977661,346.789490 714.196777,346.465881 714.712769,346.164276 
z"/>
<path fill="#AF6565" opacity="1.000000" stroke="none" 
	d="
M784.883179,326.220093 
	C785.050720,326.272675 784.781433,326.443665 784.781433,326.443665 
	C784.781433,326.443665 784.480835,326.411194 784.425781,326.322632 
	C784.370728,326.234039 784.715576,326.167480 784.883179,326.220093 
z"/>
<path fill="#AF6565" opacity="1.000000" stroke="none" 
	d="
M795.995300,320.167847 
	C796.021240,320.437653 795.735107,320.655609 795.189575,320.950073 
	C795.181213,320.723053 795.432251,320.419525 795.995300,320.167847 
z"/>
<path fill="#AF6565" opacity="1.000000" stroke="none" 
	d="
M219.742325,312.020599 
	C219.833374,312.249695 219.654282,312.551086 219.221878,312.947479 
	C219.136444,312.725952 219.304306,312.409424 219.742325,312.020599 
z"/>
<path fill="#AF6565" opacity="1.000000" stroke="none" 
	d="
M221.128738,311.129883 
	C221.160156,311.436676 220.852936,311.687744 220.247604,311.972839 
	C220.229691,311.695953 220.509903,311.385040 221.128738,311.129883 
z"/>
<path fill="#C74507" opacity="1.000000" stroke="none" 
	d="
M217.972046,440.528717 
	C218.003723,439.470734 218.306305,438.585236 218.726776,437.375793 
	C224.541519,434.476898 230.370895,432.157471 235.912354,429.282928 
	C260.269897,416.647675 286.211914,409.161957 313.254242,405.274323 
	C336.459686,401.938324 359.625641,402.931091 382.863983,405.617035 
	C426.301880,410.637726 467.729675,423.671448 509.281952,436.326813 
	C534.740479,444.080536 559.976624,452.778931 585.795715,459.070923 
	C609.313904,464.802246 633.410461,468.345428 657.385986,471.966187 
	C684.639465,476.082001 711.785095,473.904694 738.666870,468.137939 
	C761.693909,463.198120 783.101135,454.206757 803.017273,441.758148 
	C805.075500,440.471619 806.736877,436.986816 806.857422,434.440338 
	C807.321960,424.631042 807.085327,414.788483 807.141785,404.497925 
	C807.409912,409.470428 807.729065,414.901398 807.861389,420.336884 
	C808.018860,426.805664 808.015808,433.278320 808.123657,440.305603 
	C806.106323,442.327240 804.047485,443.792603 801.447510,445.624115 
	C755.784851,471.924622 707.114136,479.691620 655.864075,474.423523 
	C622.765076,471.021179 590.610779,463.223907 558.784119,453.848450 
	C546.348633,450.185272 533.908386,446.538605 521.299561,442.673401 
	C520.788879,442.361572 520.448975,442.260773 519.800598,442.022339 
	C519.055908,441.781494 518.619629,441.678284 517.915039,441.407043 
	C516.371582,441.294495 515.096313,441.349915 513.562927,441.401917 
	C513.133118,441.385437 512.961487,441.372314 512.789856,441.359222 
	C509.806610,439.891754 506.823364,438.424286 503.296814,436.856445 
	C502.753479,436.756042 502.416748,436.834930 502.170288,436.623962 
	C501.305847,436.264893 500.687836,436.116760 499.909851,435.887207 
	C499.749878,435.805817 499.391174,435.819702 499.226746,435.648834 
	C498.784393,435.313660 498.484192,435.238342 497.820679,435.143829 
	C497.012543,434.941254 496.545441,434.846802 495.865479,434.587097 
	C495.127502,434.330536 494.602417,434.239197 493.822113,434.038208 
	C493.202026,433.902283 492.837097,433.876038 492.305389,433.647095 
	C491.811035,433.344818 491.483459,433.245270 490.879913,433.039734 
	C490.214630,432.901794 489.825348,432.869843 489.187805,432.620300 
	C488.308960,432.256805 487.678314,432.110901 486.886230,431.885986 
	C486.724823,431.806946 486.365417,431.813141 486.124481,431.624817 
	C485.297974,431.316132 484.712433,431.195770 483.770325,430.913239 
	C443.428497,418.494843 403.036133,408.292175 361.029968,405.968048 
	C325.149292,403.982849 290.368225,408.864807 256.633789,422.216125 
	C256.115265,422.454468 255.846313,422.652405 255.279251,422.869720 
	C254.603485,423.013428 254.225815,423.137817 253.650055,423.295837 
	C253.190536,423.429596 252.988861,423.600342 252.596222,423.907684 
	C252.189392,424.047760 252.033264,424.121857 251.653809,424.237396 
	C251.128479,424.377167 250.890015,424.558960 250.495880,424.871033 
	C250.276657,424.917877 249.880768,425.128296 249.632416,425.181458 
	C249.117371,425.439667 248.850677,425.644775 248.400299,425.869843 
	C248.216614,425.889832 247.897720,426.076508 247.640320,426.141174 
	C247.107941,426.424530 246.832947,426.643250 246.272949,426.882629 
	C245.326691,427.252289 244.665466,427.601288 243.719803,427.990295 
	C242.963257,428.323578 242.491165,428.616821 241.971771,428.892090 
	C241.924454,428.874115 241.884476,428.967133 241.534882,429.020020 
	C236.314743,431.656647 231.444229,434.240356 226.404114,436.848633 
	C226.234512,436.873230 225.954407,437.070770 225.706970,437.139862 
	C225.198837,437.426727 224.938156,437.644501 224.479919,437.915710 
	C224.282333,437.969147 223.931870,438.180664 223.718109,438.230713 
	C223.225006,438.401184 223.010483,438.593872 222.674469,438.921143 
	C222.244171,439.086700 222.040222,439.242279 221.876266,439.450226 
	C220.665161,439.867218 219.454056,440.284210 217.972046,440.528717 
z"/>
<path fill="#FBC013" opacity="1.000000" stroke="none" 
	d="
M247.897720,426.076508 
	C247.897720,426.076508 248.216614,425.889832 248.638474,425.784912 
	C249.368851,425.548187 249.642319,425.364288 249.880768,425.128296 
	C249.880768,425.128296 250.276657,424.917877 250.709381,424.802612 
	C251.418243,424.570099 251.663254,424.406281 251.877151,424.195953 
	C252.033264,424.121857 252.189392,424.047760 252.779770,423.841797 
	C253.451797,423.598114 253.663177,423.448853 253.848160,423.262207 
	C254.225815,423.137817 254.603485,423.013428 255.516907,422.791016 
	C256.362457,422.573364 256.639343,422.400970 256.883331,422.175751 
	C290.368225,408.864807 325.149292,403.982849 361.029968,405.968048 
	C403.036133,408.292175 443.428497,418.494843 484.011108,431.087189 
	C485.194122,431.553223 485.779755,431.683167 486.365417,431.813141 
	C486.365417,431.813141 486.724823,431.806946 487.142700,432.080627 
	C488.185760,432.515533 488.810883,432.676697 489.436035,432.837891 
	C489.825348,432.869843 490.214630,432.901794 491.077393,433.188782 
	C491.857941,433.579132 492.165070,433.714447 492.472198,433.849792 
	C492.837097,433.876038 493.202026,433.902283 493.893982,434.262085 
	C494.840118,434.647858 495.459229,434.700134 496.078339,434.752380 
	C496.545441,434.846802 497.012543,434.941254 498.005615,435.272217 
	C498.803192,435.653595 499.089722,435.757263 499.391174,435.819702 
	C499.391174,435.819702 499.749878,435.805817 500.160278,436.080566 
	C501.186035,436.515198 501.801392,436.675049 502.416748,436.834900 
	C502.416748,436.834930 502.753479,436.756042 502.914551,436.821106 
	C503.135742,437.041534 503.150513,437.251587 503.262543,437.344452 
	C509.694336,442.679718 509.780273,442.708771 506.725006,451.391327 
	C503.634308,460.174561 500.249207,468.854889 497.211273,477.655609 
	C496.223297,480.517761 494.653595,481.312134 491.940979,480.514862 
	C486.353088,478.872589 480.767303,477.223145 475.173706,475.600616 
	C467.516510,473.379486 459.882507,471.066559 452.168518,469.062622 
	C450.499054,468.628967 448.532104,469.340424 446.702179,469.524445 
	C447.149078,471.333649 447.323792,473.276062 448.124542,474.912079 
	C448.830109,476.353699 450.185974,477.500275 451.338898,478.695984 
	C461.276794,489.002838 471.188507,499.335846 481.221924,509.549133 
	C483.325775,511.690735 484.138214,513.671204 483.054504,516.640747 
	C479.000702,527.748840 475.073334,538.904053 471.214111,550.081482 
	C469.959747,553.714478 467.791351,553.580444 464.553223,552.846741 
	C440.380280,547.369141 416.307770,541.245239 391.909790,537.022339 
	C368.481506,532.967224 344.777710,532.298340 320.872162,534.698242 
	C290.429840,537.754517 261.837402,546.185181 234.610901,559.788330 
	C231.486526,561.349365 228.485672,563.156067 225.378677,564.753784 
	C221.323212,566.839294 220.117264,566.068787 219.928253,561.388916 
	C219.894669,560.557129 219.918533,559.722900 219.918564,558.889832 
	C219.919769,522.232910 219.881699,485.575836 219.998993,448.919250 
	C220.008209,446.036957 221.099625,443.158112 221.782181,439.863953 
	C222.040222,439.242279 222.244171,439.086700 222.872040,438.841003 
	C223.510254,438.563721 223.735565,438.391113 223.931870,438.180664 
	C223.931870,438.180664 224.282333,437.969147 224.716797,437.822449 
	C225.418991,437.474121 225.686691,437.272430 225.954407,437.070770 
	C225.954407,437.070770 226.234512,436.873230 226.811600,436.850403 
	C232.220627,434.207458 237.052551,431.587311 241.884476,428.967133 
	C241.884476,428.967133 241.924454,428.874115 242.248276,428.840576 
	C243.049484,428.521454 243.526855,428.235840 244.004242,427.950256 
	C244.665466,427.601288 245.326691,427.252289 246.518494,426.784424 
	C247.331940,426.469208 247.614838,426.272858 247.897720,426.076508 
z"/>
<path fill="#FBBF14" opacity="1.000000" stroke="none" 
	d="
M518.183350,441.575073 
	C518.619629,441.678284 519.055908,441.781494 520.007080,442.173157 
	C520.838013,442.602570 521.154175,442.743500 521.470276,442.884430 
	C533.908386,446.538605 546.348633,450.185272 558.784119,453.848450 
	C590.610779,463.223907 622.765076,471.021179 655.864075,474.423523 
	C707.114136,479.691620 755.784851,471.924622 801.198364,445.862274 
	C804.837708,445.707886 806.106689,447.320374 806.100220,450.695099 
	C806.026733,489.008575 806.127686,527.322815 805.866211,565.634644 
	C805.849731,568.045532 803.794312,571.371155 801.694153,572.692627 
	C784.526672,583.494385 765.945251,591.198120 746.294312,596.127625 
	C725.567688,601.326965 704.456238,604.503418 683.080200,603.834839 
	C653.757019,602.917725 624.770081,598.896667 596.299011,591.616211 
	C584.850586,588.688660 573.391602,585.770447 562.073242,582.392822 
	C559.795959,581.713257 557.059387,579.318665 556.360352,577.131287 
	C551.752319,562.712524 547.666382,548.127319 543.358887,533.611633 
	C542.049988,529.200867 544.998657,527.582153 548.130676,526.160400 
	C557.072815,522.100952 566.105103,518.235413 574.977295,514.030518 
	C576.815857,513.159119 578.116028,511.151581 579.284668,509.306549 
	C578.785339,508.813782 578.665710,508.682190 578.567017,508.189697 
	C576.984741,506.824493 575.505493,505.407379 573.758118,504.881866 
	C561.173279,501.096893 548.480957,497.659424 535.960327,493.678955 
	C533.678711,492.953613 531.005859,490.594940 530.254456,488.395508 
	C526.115723,476.280548 522.358154,464.026398 518.842773,451.713531 
	C517.934082,448.530701 518.366821,444.964935 518.183350,441.575073 
z"/>
<path fill="#0F0C08" opacity="1.000000" stroke="none" 
	d="
M578.546021,508.550568 
	C578.665710,508.682190 578.785339,508.813782 579.158569,509.032166 
	C568.278015,514.314636 557.145630,519.514221 546.007996,524.702454 
	C543.919006,525.675537 541.808716,526.603027 539.332336,527.721375 
	C544.486511,545.468628 549.562744,562.947571 554.572021,580.196045 
	C548.920837,574.856567 543.285645,569.532166 537.323486,564.099365 
	C536.996460,563.990906 537.038940,563.984497 536.966553,563.731018 
	C536.601807,563.303772 536.309387,563.130005 536.007263,562.979309 
	C535.997559,563.002380 536.043762,562.983215 535.975586,562.725342 
	C535.611206,562.291870 535.315063,562.116333 535.010132,561.968994 
	C535.001343,561.997192 535.058838,561.983643 534.996216,561.714844 
	C534.629639,561.267456 534.325745,561.088867 534.020996,560.945557 
	C534.020203,560.980774 534.090698,560.980103 534.033508,560.702515 
	C533.658691,560.250305 533.341125,560.075806 533.023193,559.939209 
	C533.022827,559.977234 533.098816,559.976990 533.039429,559.698975 
	C532.661621,559.244812 532.343201,559.068665 532.022705,558.934570 
	C532.020630,558.976685 532.104919,558.979858 532.047241,558.698425 
	C531.677246,558.218018 531.364868,558.019043 531.048767,557.886047 
	C531.044983,557.951965 531.176941,557.957520 531.110352,557.669189 
	C530.721802,557.174438 530.399841,556.968079 530.076660,556.842529 
	C530.075439,556.923218 530.236938,556.922424 530.148865,556.638977 
	C529.731873,556.156311 529.402954,555.957092 529.074036,555.840820 
	C529.074036,555.923767 529.239868,555.920715 529.151245,555.637329 
	C528.734131,555.153625 528.405640,554.953308 528.076904,554.836914 
	C528.076660,554.920898 528.244568,554.918152 528.155762,554.634766 
	C527.739624,554.148315 527.412170,553.945251 527.083740,553.827820 
	C527.082703,553.913391 527.253906,553.911865 527.164917,553.628174 
	C526.750183,553.138062 526.424438,552.931641 526.098145,552.811829 
	C526.097595,552.898499 526.270874,552.895386 526.177429,552.613281 
	C525.756287,552.127563 525.428589,551.923889 525.100830,551.807739 
	C525.100708,551.895203 525.275635,551.891113 525.181152,551.609375 
	C524.758911,551.123901 524.431091,550.920227 524.103271,550.804321 
	C524.103271,550.892151 524.278870,550.887756 524.184021,550.606018 
	C523.760925,550.120972 523.432739,549.917603 523.104614,549.802612 
	C523.104736,549.890991 523.281372,549.886292 523.186890,549.603760 
	C522.763794,549.117676 522.435181,548.914062 522.106873,548.800049 
	C522.107178,548.889648 522.286255,548.884460 522.193970,548.599976 
	C521.773010,548.110474 521.444275,547.905518 521.129944,547.688416 
	C521.144409,547.676270 521.154419,547.640259 521.154419,547.640259 
	C513.868408,538.481018 513.876160,538.498962 503.537231,542.967590 
	C493.298767,547.392761 483.042389,551.776550 471.432587,556.763184 
	C475.431396,545.337708 478.085602,534.810547 482.744080,525.261047 
	C487.525238,515.460083 485.865906,509.082642 477.770477,501.967987 
	C467.207947,492.685089 457.941254,481.927612 448.606964,470.620178 
	C464.732147,475.084564 480.857330,479.548950 497.385071,484.124786 
	C502.448761,469.975098 507.467987,455.949707 512.638550,441.641785 
	C512.961487,441.372314 513.133118,441.385437 513.586670,441.771454 
	C518.627563,458.142914 523.307007,474.166138 528.251831,490.107056 
	C528.835083,491.987274 530.577454,494.374908 532.285278,494.903778 
	C547.641602,499.659302 563.110291,504.051605 578.546021,508.550568 
z"/>
<path fill="#F0BF22" opacity="1.000000" stroke="none" 
	d="
M537.011963,563.975403 
	C538.599121,566.374634 540.047119,568.882751 541.780457,571.175171 
	C543.227661,573.089111 545.008911,574.750366 546.210876,577.403870 
	C523.457092,571.965332 501.444031,564.588623 478.024384,557.618286 
	C479.975830,555.811523 480.625153,554.831970 481.530670,554.431091 
	C489.578552,550.868347 497.760254,547.595825 505.717926,543.846008 
	C510.397705,541.640869 514.203613,541.514709 517.558105,545.944092 
	C518.190369,546.778931 519.474731,547.119873 520.806274,547.664490 
	C521.154419,547.640259 521.144409,547.676270 521.264771,547.940796 
	C521.685486,548.431702 521.985901,548.658081 522.286255,548.884460 
	C522.286255,548.884460 522.107178,548.889648 522.243164,549.050903 
	C522.679932,549.436890 522.980652,549.661621 523.281372,549.886292 
	C523.281372,549.886292 523.104736,549.890991 523.241089,550.052979 
	C523.677979,550.439270 523.978394,550.663513 524.278870,550.887756 
	C524.278870,550.887756 524.103271,550.892151 524.239502,551.054688 
	C524.675720,551.441833 524.975708,551.666443 525.275635,551.891113 
	C525.275635,551.891113 525.100708,551.895203 525.236816,552.057861 
	C525.672302,552.445435 525.971558,552.670410 526.270874,552.895386 
	C526.270874,552.895386 526.097595,552.898499 526.232056,553.062500 
	C526.662292,553.454895 526.958069,553.683411 527.253906,553.911865 
	C527.253906,553.911865 527.082703,553.913391 527.219238,554.076538 
	C527.652100,554.465820 527.948303,554.691956 528.244568,554.918152 
	C528.244568,554.918152 528.076660,554.920898 528.213623,555.084106 
	C528.647034,555.471741 528.943420,555.696228 529.239868,555.920715 
	C529.239868,555.920715 529.074036,555.923767 529.210938,556.087402 
	C529.644226,556.474792 529.940613,556.698608 530.236938,556.922424 
	C530.236938,556.922424 530.075439,556.923218 530.203613,557.089905 
	C530.613525,557.490234 530.895264,557.723877 531.176941,557.957520 
	C531.176941,557.957520 531.044983,557.951965 531.169922,558.125122 
	C531.564819,558.525452 531.834839,558.752686 532.104919,558.979858 
	C532.104919,558.979858 532.020630,558.976685 532.150513,559.161682 
	C532.553284,559.556763 532.826050,559.766846 533.098816,559.976990 
	C533.098816,559.976990 533.022827,559.977234 533.149231,560.165527 
	C533.547363,560.562622 533.819031,560.771362 534.090698,560.980103 
	C534.090698,560.980103 534.020203,560.980774 534.140747,561.171265 
	C534.527161,561.569092 534.793030,561.776367 535.058838,561.983643 
	C535.058838,561.983643 535.001343,561.997192 535.123657,562.193726 
	C535.511902,562.587891 535.777832,562.785583 536.043762,562.983215 
	C536.043762,562.983215 535.997559,563.002380 536.120728,563.201782 
	C536.447693,563.678894 536.712769,563.873352 537.038940,563.984497 
	C537.038940,563.984497 536.996460,563.990906 537.011963,563.975403 
z"/>
<path fill="#D7BC40" opacity="1.000000" stroke="none" 
	d="
M578.567017,508.189697 
	C563.110291,504.051605 547.641602,499.659302 532.285278,494.903778 
	C530.577454,494.374908 528.835083,491.987274 528.251831,490.107056 
	C523.307007,474.166138 518.627563,458.142914 513.844849,441.774841 
	C515.096313,441.349915 516.371582,441.294495 517.915039,441.407043 
	C518.366821,444.964935 517.934082,448.530701 518.842773,451.713531 
	C522.358154,464.026398 526.115723,476.280548 530.254456,488.395508 
	C531.005859,490.594940 533.678711,492.953613 535.960327,493.678955 
	C548.480957,497.659424 561.173279,501.096893 573.758118,504.881866 
	C575.505493,505.407379 576.984741,506.824493 578.567017,508.189697 
z"/>
<path fill="#D7BC40" opacity="1.000000" stroke="none" 
	d="
M241.534882,429.020020 
	C237.052551,431.587311 232.220627,434.207458 226.981201,436.825836 
	C231.444229,434.240356 236.314743,431.656647 241.534882,429.020020 
z"/>
<path fill="#D7BC40" opacity="1.000000" stroke="none" 
	d="
M495.865479,434.587128 
	C495.459229,434.700134 494.840118,434.647858 494.149170,434.371735 
	C494.602417,434.239197 495.127502,434.330536 495.865479,434.587128 
z"/>
<path fill="#D7BC40" opacity="1.000000" stroke="none" 
	d="
M243.719788,427.990295 
	C243.526855,428.235840 243.049484,428.521454 242.295593,428.858582 
	C242.491165,428.616821 242.963257,428.323578 243.719788,427.990295 
z"/>
<path fill="#D7BC40" opacity="1.000000" stroke="none" 
	d="
M486.124481,431.624817 
	C485.779755,431.683167 485.194122,431.553223 484.367676,431.249329 
	C484.712433,431.195770 485.297974,431.316132 486.124481,431.624817 
z"/>
<path fill="#D7BC40" opacity="1.000000" stroke="none" 
	d="
M489.187805,432.620300 
	C488.810883,432.676697 488.185760,432.515533 487.304138,432.159668 
	C487.678314,432.110901 488.308960,432.256805 489.187805,432.620300 
z"/>
<path fill="#D7BC40" opacity="1.000000" stroke="none" 
	d="
M502.170288,436.623962 
	C501.801392,436.675049 501.186035,436.515198 500.320251,436.161987 
	C500.687836,436.116760 501.305847,436.264893 502.170288,436.623962 
z"/>
<path fill="#D7BC40" opacity="1.000000" stroke="none" 
	d="
M521.299561,442.673401 
	C521.154175,442.743500 520.838013,442.602570 520.315430,442.310791 
	C520.448975,442.260773 520.788879,442.361572 521.299561,442.673401 
z"/>
<path fill="#D7BC40" opacity="1.000000" stroke="none" 
	d="
M492.305389,433.647064 
	C492.165070,433.714447 491.857941,433.579132 491.353333,433.294769 
	C491.483459,433.245270 491.811035,433.344818 492.305389,433.647064 
z"/>
<path fill="#D7BC40" opacity="1.000000" stroke="none" 
	d="
M256.633789,422.216125 
	C256.639343,422.400970 256.362457,422.573364 255.815002,422.771667 
	C255.846313,422.652405 256.115265,422.454468 256.633789,422.216125 
z"/>
<path fill="#D7BC40" opacity="1.000000" stroke="none" 
	d="
M253.650055,423.295837 
	C253.663177,423.448853 253.451797,423.598114 253.030472,423.775818 
	C252.988861,423.600342 253.190536,423.429596 253.650055,423.295837 
z"/>
<path fill="#D7BC40" opacity="1.000000" stroke="none" 
	d="
M251.653809,424.237396 
	C251.663254,424.406281 251.418243,424.570099 250.928604,424.755768 
	C250.890015,424.558960 251.128479,424.377167 251.653809,424.237396 
z"/>
<path fill="#D7BC40" opacity="1.000000" stroke="none" 
	d="
M249.632416,425.181458 
	C249.642319,425.364288 249.368851,425.548187 248.822144,425.764923 
	C248.850677,425.644775 249.117371,425.439667 249.632416,425.181458 
z"/>
<path fill="#D7BC40" opacity="1.000000" stroke="none" 
	d="
M247.640320,426.141174 
	C247.614838,426.272858 247.331940,426.469208 246.803513,426.763763 
	C246.832947,426.643250 247.107941,426.424530 247.640320,426.141174 
z"/>
<path fill="#D7BC40" opacity="1.000000" stroke="none" 
	d="
M499.226746,435.648834 
	C499.089722,435.757263 498.803192,435.653595 498.346680,435.380371 
	C498.484192,435.238342 498.784393,435.313660 499.226746,435.648834 
z"/>
<path fill="#D7BC40" opacity="1.000000" stroke="none" 
	d="
M225.706970,437.139862 
	C225.686691,437.272430 225.418991,437.474121 224.914383,437.769043 
	C224.938156,437.644501 225.198837,437.426727 225.706970,437.139862 
z"/>
<path fill="#D7BC40" opacity="1.000000" stroke="none" 
	d="
M223.718109,438.230713 
	C223.735565,438.391113 223.510254,438.563721 223.058395,438.778625 
	C223.010483,438.593872 223.225006,438.401184 223.718109,438.230713 
z"/>
<path fill="#D7BC40" opacity="1.000000" stroke="none" 
	d="
M527.164917,553.628174 
	C526.958069,553.683411 526.662292,553.454895 526.232544,552.975830 
	C526.424438,552.931641 526.750183,553.138062 527.164917,553.628174 
z"/>
<path fill="#D7BC40" opacity="1.000000" stroke="none" 
	d="
M528.155762,554.634766 
	C527.948303,554.691956 527.652100,554.465820 527.220337,553.990967 
	C527.412170,553.945251 527.739624,554.148315 528.155762,554.634766 
z"/>
<path fill="#D7BC40" opacity="1.000000" stroke="none" 
	d="
M526.177429,552.613281 
	C525.971558,552.670410 525.672302,552.445435 525.236938,551.970337 
	C525.428589,551.923889 525.756287,552.127563 526.177429,552.613281 
z"/>
<path fill="#D7BC40" opacity="1.000000" stroke="none" 
	d="
M529.151245,555.637329 
	C528.943420,555.696228 528.647034,555.471741 528.213867,555.000122 
	C528.405640,554.953308 528.734131,555.153625 529.151245,555.637329 
z"/>
<path fill="#D7BC40" opacity="1.000000" stroke="none" 
	d="
M525.181152,551.609375 
	C524.975708,551.666443 524.675720,551.441833 524.239563,550.966797 
	C524.431091,550.920227 524.758911,551.123901 525.181152,551.609375 
z"/>
<path fill="#D7BC40" opacity="1.000000" stroke="none" 
	d="
M530.148865,556.638977 
	C529.940613,556.698608 529.644226,556.474792 529.210938,556.004456 
	C529.402954,555.957092 529.731873,556.156311 530.148865,556.638977 
z"/>
<path fill="#D7BC40" opacity="1.000000" stroke="none" 
	d="
M531.110352,557.669189 
	C530.895264,557.723877 530.613525,557.490234 530.204834,557.009155 
	C530.399841,556.968079 530.721802,557.174438 531.110352,557.669189 
z"/>
<path fill="#D7BC40" opacity="1.000000" stroke="none" 
	d="
M532.047241,558.698425 
	C531.834839,558.752686 531.564819,558.525452 531.173706,558.059204 
	C531.364868,558.019043 531.677246,558.218018 532.047241,558.698425 
z"/>
<path fill="#D7BC40" opacity="1.000000" stroke="none" 
	d="
M533.039429,559.698975 
	C532.826050,559.766846 532.553284,559.556763 532.152588,559.119568 
	C532.343201,559.068665 532.661621,559.244812 533.039429,559.698975 
z"/>
<path fill="#D7BC40" opacity="1.000000" stroke="none" 
	d="
M534.033508,560.702515 
	C533.819031,560.771362 533.547363,560.562622 533.149536,560.127563 
	C533.341125,560.075806 533.658691,560.250305 534.033508,560.702515 
z"/>
<path fill="#D7BC40" opacity="1.000000" stroke="none" 
	d="
M534.996216,561.714844 
	C534.793030,561.776367 534.527161,561.569092 534.141602,561.136108 
	C534.325745,561.088867 534.629639,561.267456 534.996216,561.714844 
z"/>
<path fill="#D7BC40" opacity="1.000000" stroke="none" 
	d="
M535.975586,562.725342 
	C535.777832,562.785583 535.511902,562.587891 535.132446,562.165527 
	C535.315063,562.116333 535.611206,562.291870 535.975586,562.725342 
z"/>
<path fill="#D7BC40" opacity="1.000000" stroke="none" 
	d="
M536.966553,563.731018 
	C536.712769,563.873352 536.447693,563.678894 536.130371,563.178711 
	C536.309387,563.130005 536.601807,563.303772 536.966553,563.731018 
z"/>
<path fill="#D7BC40" opacity="1.000000" stroke="none" 
	d="
M524.184021,550.606018 
	C523.978394,550.663513 523.677979,550.439270 523.240967,549.964661 
	C523.432739,549.917603 523.760925,550.120972 524.184021,550.606018 
z"/>
<path fill="#D7BC40" opacity="1.000000" stroke="none" 
	d="
M522.193970,548.599976 
	C521.985901,548.658081 521.685486,548.431702 521.250305,547.952942 
	C521.444275,547.905518 521.773010,548.110474 522.193970,548.599976 
z"/>
<path fill="#D7BC40" opacity="1.000000" stroke="none" 
	d="
M523.186890,549.603760 
	C522.980652,549.661621 522.679932,549.436890 522.242920,548.961304 
	C522.435181,548.914062 522.763794,549.117676 523.186890,549.603760 
z"/>
</svg>