<svg version="1.1" id="Layer_1" xmlns="http://www.w3.org/2000/svg" xmlns:xlink="http://www.w3.org/1999/xlink" x="0px" y="0px"
	 width="100%" viewBox="0 0 1024 1024" enable-background="new 0 0 1024 1024" xml:space="preserve">
<path fill="#47704C" opacity="1.000000" stroke="none" 
	d="
M653.000000,1025.000000 
	C435.333344,1025.000000 218.166672,1025.000000 1.000000,1025.000000 
	C1.000000,683.666687 1.000000,342.333344 1.000000,1.000000 
	C342.333344,1.000000 683.666687,1.000000 1025.000000,1.000000 
	C1025.000000,342.333344 1025.000000,683.666687 1025.000000,1025.000000 
	C901.166687,1025.000000 777.333313,1025.000000 653.000000,1025.000000 
M103.036407,549.270386 
	C111.660553,553.557373 120.251892,557.911865 128.915009,562.118591 
	C154.752289,574.664978 180.648209,587.091003 206.452423,599.704834 
	C213.536438,603.167725 213.710526,603.181763 216.880844,595.996704 
	C219.854156,589.258118 223.165665,582.668701 226.716644,575.196594 
	C235.395538,581.889648 243.221588,587.924927 250.435974,593.488586 
	C249.829620,597.208069 249.282028,600.255676 248.841385,603.318604 
	C244.756104,631.714905 260.792877,658.544861 287.697479,667.965454 
	C290.473480,668.937500 291.456787,670.241882 292.206787,672.985229 
	C298.408875,695.671082 312.727173,710.581665 335.616333,716.548157 
	C339.629303,717.594177 341.629578,719.197876 343.364105,722.888123 
	C353.684174,744.843872 371.169739,756.673767 395.387390,758.004456 
	C399.089142,758.207886 400.889893,759.425781 402.795197,762.276978 
	C421.579315,790.386108 460.474030,796.862366 486.418213,774.121704 
	C487.888153,772.833191 489.468414,771.670593 491.115875,770.354675 
	C493.812805,772.612427 496.224854,774.628296 498.633270,776.648438 
	C518.833435,793.591919 554.103638,797.107788 577.630981,774.674683 
	C583.914734,768.683044 589.419067,764.084167 598.402893,767.191650 
	C598.841309,767.343262 599.392578,767.161316 599.891541,767.146667 
	C625.174377,766.406677 643.449341,754.620911 654.862610,732.142029 
	C656.156799,729.593018 657.592407,728.254150 660.708130,727.701965 
	C666.545837,726.667175 672.510925,725.317017 677.887878,722.905151 
	C696.243408,714.671692 708.214355,700.742493 713.541321,681.172729 
	C714.007019,679.461975 715.709045,677.403809 717.324097,676.790894 
	C750.129822,664.340637 766.165039,636.057190 760.349731,600.975708 
	C760.063110,599.246643 761.330872,596.548401 762.757507,595.371216 
	C768.647888,590.510925 774.859131,586.036804 780.990601,581.472107 
	C786.121155,577.652588 791.304749,573.904297 796.843689,569.847046 
	C802.275757,581.101257 807.419067,591.757202 812.536560,602.359802 
	C813.643311,602.032349 814.144531,601.954590 814.582214,601.744446 
	C839.115479,589.967590 863.678528,578.252197 888.160767,566.370056 
	C907.908203,556.785889 927.492371,546.863159 947.298218,537.403076 
	C951.939148,535.186401 952.334900,532.939819 950.265015,528.600830 
	C933.158936,492.741547 916.276917,456.775360 899.225342,420.889923 
	C887.314819,395.824066 875.204590,370.853210 863.254883,345.805817 
	C846.660889,311.023651 830.071655,276.238831 813.669128,241.366333 
	C811.928284,237.665268 810.253052,237.212982 806.909790,239.000046 
	C796.508911,244.559540 785.986450,249.891220 775.573853,255.429077 
	C743.720276,272.370239 711.902832,289.379150 680.054749,306.330505 
	C673.670532,309.728485 673.752625,309.620941 676.946472,316.018982 
	C679.882690,321.901031 682.519592,327.932526 685.202759,333.713715 
	C680.579468,337.205261 676.758728,338.217957 671.714233,336.004547 
	C632.782349,318.922272 593.700562,302.181549 554.759094,285.120789 
	C550.404358,283.212952 546.811890,283.052826 542.519592,285.082520 
	C522.390198,294.601044 502.177643,303.946320 481.905365,313.156708 
	C479.319092,314.331726 476.065948,315.215790 473.364380,314.768646 
	C456.167877,311.922119 439.162109,313.760773 422.234161,316.538147 
	C398.280914,320.468140 375.575775,328.563324 353.764099,338.979675 
	C347.982025,341.740997 344.226715,339.815155 339.604492,337.031860 
	C343.785461,327.913544 347.836639,319.078400 352.147461,309.676971 
	C306.076904,285.176514 260.406555,260.888916 214.549561,236.502045 
	C213.551208,238.238785 212.820480,239.330597 212.263580,240.504852 
	C195.380737,276.103607 178.500549,311.703613 161.651154,347.318237 
	C147.799774,376.596039 133.977692,405.887726 120.161674,435.182251 
	C105.214188,466.875885 90.337502,498.603119 75.285278,530.246887 
	C73.613235,533.761963 74.039124,535.504150 77.647987,537.132629 
	C85.968903,540.887207 94.129761,544.996643 103.036407,549.270386 
z"/>
<path fill="#FAF1D8" opacity="1.000000" stroke="none" 
	d="
M102.695984,549.116211 
	C94.129761,544.996643 85.968903,540.887207 77.647987,537.132629 
	C74.039124,535.504150 73.613235,533.761963 75.285278,530.246887 
	C90.337502,498.603119 105.214188,466.875885 120.161674,435.182251 
	C133.977692,405.887726 147.799774,376.596039 161.651154,347.318237 
	C178.500549,311.703613 195.380737,276.103607 212.263580,240.504852 
	C212.820480,239.330597 213.551208,238.238785 214.549561,236.502045 
	C260.406555,260.888916 306.076904,285.176514 352.147461,309.676971 
	C347.836639,319.078400 343.785461,327.913544 339.604492,337.031860 
	C344.226715,339.815155 347.982025,341.740997 353.764099,338.979675 
	C375.575775,328.563324 398.280914,320.468140 422.234161,316.538147 
	C439.162109,313.760773 456.167877,311.922119 473.364380,314.768646 
	C476.065948,315.215790 479.319092,314.331726 481.905365,313.156708 
	C502.177643,303.946320 522.390198,294.601044 542.519592,285.082520 
	C546.811890,283.052826 550.404358,283.212952 554.759094,285.120789 
	C593.700562,302.181549 632.782349,318.922272 671.714233,336.004547 
	C676.758728,338.217957 680.579468,337.205261 685.202759,333.713715 
	C682.519592,327.932526 679.882690,321.901031 676.946472,316.018982 
	C673.752625,309.620941 673.670532,309.728485 680.054749,306.330505 
	C711.902832,289.379150 743.720276,272.370239 775.573853,255.429077 
	C785.986450,249.891220 796.508911,244.559540 806.909790,239.000046 
	C810.253052,237.212982 811.928284,237.665268 813.669128,241.366333 
	C830.071655,276.238831 846.660889,311.023651 863.254883,345.805817 
	C875.204590,370.853210 887.314819,395.824066 899.225342,420.889923 
	C916.276917,456.775360 933.158936,492.741547 950.265015,528.600830 
	C952.334900,532.939819 951.939148,535.186401 947.298218,537.403076 
	C927.492371,546.863159 907.908203,556.785889 888.160767,566.370056 
	C863.678528,578.252197 839.115479,589.967590 814.582214,601.744446 
	C814.144531,601.954590 813.643311,602.032349 812.536560,602.359802 
	C807.419067,591.757202 802.275757,581.101257 796.843689,569.847046 
	C791.304749,573.904297 786.121155,577.652588 780.990601,581.472107 
	C774.859131,586.036804 768.647888,590.510925 762.757507,595.371216 
	C761.330872,596.548401 760.063110,599.246643 760.349731,600.975708 
	C766.165039,636.057190 750.129822,664.340637 717.324097,676.790894 
	C715.709045,677.403809 714.007019,679.461975 713.541321,681.172729 
	C708.214355,700.742493 696.243408,714.671692 677.887878,722.905151 
	C672.510925,725.317017 666.545837,726.667175 660.708130,727.701965 
	C657.592407,728.254150 656.156799,729.593018 654.862610,732.142029 
	C643.449341,754.620911 625.174377,766.406677 599.891541,767.146667 
	C599.392578,767.161316 598.841309,767.343262 598.402893,767.191650 
	C589.419067,764.084167 583.914734,768.683044 577.630981,774.674683 
	C554.103638,797.107788 518.833435,793.591919 498.633270,776.648438 
	C496.224854,774.628296 493.812805,772.612427 491.115875,770.354675 
	C489.468414,771.670593 487.888153,772.833191 486.418213,774.121704 
	C460.474030,796.862366 421.579315,790.386108 402.795197,762.276978 
	C400.889893,759.425781 399.089142,758.207886 395.387390,758.004456 
	C371.169739,756.673767 353.684174,744.843872 343.364105,722.888123 
	C341.629578,719.197876 339.629303,717.594177 335.616333,716.548157 
	C312.727173,710.581665 298.408875,695.671082 292.206787,672.985229 
	C291.456787,670.241882 290.473480,668.937500 287.697479,667.965454 
	C260.792877,658.544861 244.756104,631.714905 248.841385,603.318604 
	C249.282028,600.255676 249.829620,597.208069 250.435974,593.488586 
	C243.221588,587.924927 235.395538,581.889648 226.716644,575.196594 
	C223.165665,582.668701 219.854156,589.258118 216.880844,595.996704 
	C213.710526,603.181763 213.536438,603.167725 206.452423,599.704834 
	C180.648209,587.091003 154.752289,574.664978 128.915009,562.118591 
	C120.251892,557.911865 111.660553,553.557373 102.695984,549.116211 
M744.661682,457.086853 
	C744.546265,456.270996 744.622925,455.364746 744.287659,454.652374 
	C732.661072,429.949371 720.993591,405.265533 709.338196,380.576019 
	C707.889343,377.506927 705.913879,377.069275 702.916138,378.719849 
	C695.058044,383.046600 687.080017,387.155579 678.713318,390.853424 
	C637.197388,372.966675 595.664856,355.118225 554.195435,337.124268 
	C550.679993,335.598877 547.789978,335.644043 544.338196,337.241699 
	C511.769104,352.316193 479.118256,367.214172 446.561340,382.314667 
	C444.817841,383.123383 443.303162,385.078766 442.362701,386.859833 
	C436.076630,398.764832 429.928711,410.743622 423.824738,422.743622 
	C413.211548,443.608398 402.662537,464.505829 391.327209,485.703705 
	C387.501709,485.030151 383.676208,484.356598 379.484070,483.618469 
	C380.108826,481.995850 380.379578,481.053589 380.815399,480.195160 
	C398.271179,445.813660 415.716705,411.426819 433.290558,377.105743 
	C434.108307,375.508667 435.886993,374.066528 437.560516,373.294342 
	C473.620422,356.655121 509.717712,340.096558 545.868835,323.656647 
	C547.377686,322.970490 549.719788,323.014038 551.265991,323.673523 
	C592.678955,341.337219 634.035583,359.133087 675.422485,376.858124 
	C676.530334,377.332581 678.108459,377.802246 679.061401,377.373047 
	C687.055969,373.772217 694.955566,369.960449 703.130371,366.095673 
	C699.931458,359.592407 696.969055,353.570038 693.965576,347.464020 
	C689.591370,349.495514 685.532349,351.049164 681.823730,353.205475 
	C678.725769,355.006622 676.241699,354.715576 673.042419,353.328979 
	C632.934326,335.946014 592.734863,318.773651 552.624207,301.396454 
	C549.390198,299.995361 546.800293,300.108673 543.722778,301.551025 
	C523.714111,310.928528 503.665253,320.221344 483.562714,329.395416 
	C481.409729,330.377960 478.697144,331.165283 476.463074,330.778534 
	C455.721649,327.188019 435.307983,329.349548 415.002136,333.825897 
	C393.118683,338.650024 372.637970,347.438263 352.236389,356.384918 
	C349.079376,357.769348 346.549133,358.027374 343.436432,356.318542 
	C339.412170,354.109192 335.067932,352.482697 330.631622,350.502625 
	C327.675110,356.849121 324.914673,362.774719 321.960907,369.115234 
	C329.464478,372.545105 336.457520,376.017609 343.690247,378.885864 
	C345.971649,379.790588 349.193909,379.854950 351.476166,378.978088 
	C366.825806,373.080505 381.860199,366.321442 397.353821,360.853241 
	C408.853333,356.794708 420.891205,354.261658 432.689270,351.049133 
	C432.856873,351.559845 433.024475,352.070587 433.192108,352.581329 
	C432.223877,353.094666 431.310730,353.819122 430.278870,354.088287 
	C421.147400,356.470551 416.496521,363.038330 412.459900,371.130035 
	C395.559113,405.008911 378.169128,438.643677 360.968201,472.372925 
	C356.477142,481.179382 352.021576,490.003967 347.506989,498.904541 
	C324.565430,485.686462 302.003204,472.686951 279.122559,459.503967 
	C277.548187,462.845856 276.149323,465.839233 274.730530,468.823151 
	C261.311279,497.045898 247.952606,525.297913 234.395096,553.454102 
	C232.453598,557.486206 232.444595,559.981445 236.393127,562.924438 
	C246.669418,570.583984 256.566956,578.752075 266.600647,586.736084 
	C267.973541,587.828491 269.261230,589.028076 270.528931,590.126526 
	C255.616333,612.413208 265.420746,651.588867 306.012268,656.280457 
	C305.518524,669.515808 309.592468,681.169617 319.288574,690.436646 
	C328.935425,699.656433 340.774841,703.154236 354.093689,702.382996 
	C355.567200,716.206482 361.298035,727.166931 372.727081,734.880005 
	C384.203003,742.624695 396.759216,743.606384 409.723541,740.745972 
	C410.120087,741.712952 410.333130,742.167358 410.496094,742.638977 
	C421.356720,774.069275 458.392151,782.019226 481.071350,757.782593 
	C483.787018,754.880432 486.474121,751.951477 489.448975,748.738464 
	C494.961151,753.357178 500.289062,757.835083 505.631439,762.295715 
	C527.587402,780.628357 557.334229,777.998718 574.228821,756.141235 
	C576.429504,753.294128 578.108032,750.043457 580.018188,746.995972 
	C607.770813,759.378479 639.507874,744.235291 646.130432,711.926514 
	C676.851501,716.136292 700.579468,692.570740 700.415344,664.065613 
	C736.919312,661.235657 755.860291,623.645447 741.271545,592.444153 
	C757.935120,579.615295 774.656799,566.741699 791.642334,553.664978 
	C788.434326,547.030518 785.411926,540.779968 782.240662,533.847107 
	C770.809143,509.578278 759.401306,485.298218 747.880676,461.071808 
	C747.264343,459.775787 745.698425,458.931366 744.661682,457.086853 
M124.482353,461.995361 
	C114.230247,483.721466 103.978142,505.447601 93.616348,527.406128 
	C131.505493,545.839539 168.843475,564.004822 206.662338,582.404053 
	C248.578979,493.663971 290.365509,405.199341 332.290710,316.441132 
	C295.142242,296.689178 258.390137,277.147980 221.498367,257.532501 
	C189.090454,325.874115 156.970993,393.607422 124.482353,461.995361 
M902.833801,464.674957 
	C870.136414,395.751343 837.439026,326.827728 804.566833,257.535675 
	C767.537476,277.249634 730.791748,296.812561 693.798889,316.507080 
	C735.789917,405.362854 777.571594,493.775604 819.448303,582.389587 
	C857.560486,563.859253 894.884644,545.712097 932.575134,527.386780 
	C922.625977,506.457825 912.861877,485.918030 902.833801,464.674957 
z"/>
<path fill="#0D0C0B" opacity="1.000000" stroke="none" 
	d="
M782.389526,534.529480 
	C785.411926,540.779968 788.434326,547.030518 791.642334,553.664978 
	C774.656799,566.741699 757.935120,579.615295 741.271545,592.444153 
	C755.860291,623.645447 736.919312,661.235657 700.415344,664.065613 
	C700.579468,692.570740 676.851501,716.136292 646.130432,711.926514 
	C639.507874,744.235291 607.770813,759.378479 580.018188,746.995972 
	C578.108032,750.043457 576.429504,753.294128 574.228821,756.141235 
	C557.334229,777.998718 527.587402,780.628357 505.631439,762.295715 
	C500.289062,757.835083 494.961151,753.357178 489.448975,748.738464 
	C486.474121,751.951477 483.787018,754.880432 481.071350,757.782593 
	C458.392151,782.019226 421.356720,774.069275 410.496094,742.638977 
	C410.333130,742.167358 410.120087,741.712952 409.723541,740.745972 
	C396.759216,743.606384 384.203003,742.624695 372.727081,734.880005 
	C361.298035,727.166931 355.567200,716.206482 354.093689,702.382996 
	C340.774841,703.154236 328.935425,699.656433 319.288574,690.436646 
	C309.592468,681.169617 305.518524,669.515808 306.012268,656.280457 
	C265.420746,651.588867 255.616333,612.413208 270.528931,590.126526 
	C269.261230,589.028076 267.973541,587.828491 266.600647,586.736084 
	C256.566956,578.752075 246.669418,570.583984 236.393127,562.924438 
	C232.444595,559.981445 232.453598,557.486206 234.395096,553.454102 
	C247.952606,525.297913 261.311279,497.045898 274.730530,468.823151 
	C276.149323,465.839233 277.548187,462.845856 279.122559,459.503967 
	C302.003204,472.686951 324.565430,485.686462 347.506989,498.904541 
	C352.021576,490.003967 356.477142,481.179382 360.968201,472.372925 
	C378.169128,438.643677 395.559113,405.008911 412.459900,371.130035 
	C416.496521,363.038330 421.147400,356.470551 430.278870,354.088287 
	C431.310730,353.819122 432.223877,353.094666 433.192108,352.581329 
	C433.024475,352.070587 432.856873,351.559845 432.689270,351.049133 
	C420.891205,354.261658 408.853333,356.794708 397.353821,360.853241 
	C381.860199,366.321442 366.825806,373.080505 351.476166,378.978088 
	C349.193909,379.854950 345.971649,379.790588 343.690247,378.885864 
	C336.457520,376.017609 329.464478,372.545105 321.960907,369.115234 
	C324.914673,362.774719 327.675110,356.849121 330.631622,350.502625 
	C335.067932,352.482697 339.412170,354.109192 343.436432,356.318542 
	C346.549133,358.027374 349.079376,357.769348 352.236389,356.384918 
	C372.637970,347.438263 393.118683,338.650024 415.002136,333.825897 
	C435.307983,329.349548 455.721649,327.188019 476.463074,330.778534 
	C478.697144,331.165283 481.409729,330.377960 483.562714,329.395416 
	C503.665253,320.221344 523.714111,310.928528 543.722778,301.551025 
	C546.800293,300.108673 549.390198,299.995361 552.624207,301.396454 
	C592.734863,318.773651 632.934326,335.946014 673.042419,353.328979 
	C676.241699,354.715576 678.725769,355.006622 681.823730,353.205475 
	C685.532349,351.049164 689.591370,349.495514 693.965576,347.464020 
	C696.969055,353.570038 699.931458,359.592407 703.130371,366.095673 
	C694.955566,369.960449 687.055969,373.772217 679.061401,377.373047 
	C678.108459,377.802246 676.530334,377.332581 675.422485,376.858124 
	C634.035583,359.133087 592.678955,341.337219 551.265991,323.673523 
	C549.719788,323.014038 547.377686,322.970490 545.868835,323.656647 
	C509.717712,340.096558 473.620422,356.655121 437.560516,373.294342 
	C435.886993,374.066528 434.108307,375.508667 433.290558,377.105743 
	C415.716705,411.426819 398.271179,445.813660 380.815399,480.195160 
	C380.379578,481.053589 380.108826,481.995850 379.484070,483.618469 
	C383.676208,484.356598 387.501709,485.030151 392.122559,485.755707 
	C400.667267,485.342804 408.707367,486.041229 416.110535,484.190979 
	C436.854004,479.006714 451.471100,465.044189 463.526733,448.142242 
	C465.284302,445.678101 466.465942,442.527771 467.017914,439.529938 
	C468.791901,429.895416 470.294098,420.203186 471.581360,410.490875 
	C472.029694,407.108490 473.293732,405.302063 476.585205,404.068939 
	C504.930084,393.449707 533.202759,382.637909 561.511597,371.921967 
	C562.461487,371.562378 563.565491,371.609772 565.167725,371.388794 
	C564.475342,373.597168 564.032471,375.173492 563.489502,376.714539 
	C560.283447,385.814301 557.136108,394.936249 553.782898,403.981750 
	C552.761475,406.737061 553.258789,408.007111 556.034058,409.316650 
	C605.232117,432.530884 654.368469,455.876007 703.547974,479.129822 
	C705.104187,479.865662 706.977600,479.930481 708.843506,480.486328 
	C709.210510,480.891449 709.365417,481.159790 709.200317,481.757812 
	C692.927856,492.946289 676.903564,503.846558 660.371460,515.092285 
	C663.028320,517.590088 665.020996,519.571106 667.126648,521.423523 
	C674.487183,527.898804 681.918396,534.293762 689.264221,540.785400 
	C701.347473,551.463501 713.391541,562.186096 725.436646,572.907288 
	C727.870850,575.073914 729.849365,575.367920 732.767700,573.059875 
	C749.192444,560.069946 765.826721,547.344849 782.389526,534.529480 
M425.394104,590.860901 
	C418.468781,575.012329 399.474152,570.695190 388.415955,582.651794 
	C369.342773,603.274536 350.456879,624.070374 331.469025,644.772095 
	C326.951691,649.697144 325.683899,655.411438 326.894043,662.644592 
	C328.667786,672.271667 334.523560,678.410767 343.681000,681.093872 
	C352.637970,683.718201 359.555634,680.268677 365.716858,673.407166 
	C383.923004,653.131836 402.440796,633.134460 420.976959,613.158508 
	C426.894012,606.781860 428.491608,599.752075 425.394104,590.860901 
M469.973907,632.105042 
	C469.973907,632.105042 470.083710,632.022339 470.101013,631.295349 
	C463.274597,617.188904 445.800995,613.143005 435.846741,623.781921 
	C416.737366,644.205750 397.877869,664.866150 379.119049,685.613098 
	C374.753632,690.441223 373.116180,696.450195 374.998016,703.783203 
	C376.855072,712.661743 382.777161,717.965210 390.912567,720.691345 
	C399.085175,723.429871 406.065979,721.046448 411.965515,714.607605 
	C429.226318,695.768982 446.588928,677.022034 464.063721,658.381714 
	C471.091339,650.885437 474.427307,642.703674 470.439423,632.337341 
	C470.319153,632.110596 470.130829,632.001587 469.973907,632.105042 
M492.664703,713.983337 
	C500.427277,706.370178 502.017426,696.007751 496.848755,686.717834 
	C491.158356,676.490173 475.246643,672.955994 467.688782,680.828796 
	C455.713379,693.303162 444.185364,706.215393 432.709686,719.156616 
	C428.480316,723.926147 428.052185,731.197998 430.837311,736.418762 
	C432.161438,744.068420 437.438599,748.394104 444.213165,750.369751 
	C450.540375,752.214905 457.350189,752.133789 462.473907,746.965942 
	C470.783447,738.584961 478.806000,729.915833 486.827148,721.254883 
	C488.793915,719.131226 490.286591,716.568481 492.664703,713.983337 
M355.519379,592.084595 
	C359.743744,587.413635 361.920685,582.030029 361.040192,575.667297 
	C359.781189,566.569397 355.185028,559.654541 346.527802,556.402466 
	C338.622559,553.432861 330.487366,553.724060 324.271179,560.196350 
	C312.761047,572.180664 301.659973,584.559753 290.469604,596.848267 
	C285.576111,602.221924 283.825073,608.592590 285.224579,616.532532 
	C285.983521,618.718201 286.515869,621.016602 287.538300,623.071167 
	C293.977814,636.011719 310.772522,639.607727 320.541199,629.643616 
	C332.342499,617.606323 343.515869,604.953369 355.519379,592.084595 
M714.641541,637.527588 
	C729.701904,624.582214 728.914673,601.748169 713.540894,590.786804 
	C710.720398,588.775818 708.444336,586.015503 705.830139,583.698975 
	C651.033875,535.142273 596.074219,486.767670 541.602173,437.850098 
	C534.474060,431.448792 528.402649,429.057526 520.001770,433.533508 
	C519.856750,433.610779 519.735168,433.732025 518.840820,433.797638 
	C511.792664,435.759888 504.643158,437.430908 497.747345,439.830872 
	C495.068481,440.763153 492.209412,442.868988 490.717804,445.246613 
	C481.014679,460.713226 470.370605,475.412354 455.767151,486.597626 
	C448.072144,492.491486 439.537048,497.288544 431.017914,502.816620 
	C460.221741,521.215149 489.679047,539.773315 519.352234,558.467529 
	C515.388794,563.210083 511.784668,567.522583 507.558563,572.164490 
	C497.110077,583.533752 486.661621,594.903015 475.971039,606.535706 
	C491.697998,620.507080 496.309174,637.405640 490.050293,656.558655 
	C496.729950,660.560181 502.920044,664.268433 509.129852,667.988525 
	C512.854980,663.245300 512.889771,663.202637 518.045410,667.410278 
	C521.907227,670.561951 525.716370,673.782776 529.459717,677.074219 
	C546.690063,692.224304 563.800598,707.511902 581.127808,722.550049 
	C594.500122,734.155945 609.042358,733.224548 620.199524,720.416504 
	C627.648071,711.865906 626.581604,697.882263 618.067566,690.700317 
	C612.859375,686.306946 607.845520,681.683716 602.720093,677.191467 
	C590.342346,666.342651 577.925049,655.538879 565.572083,644.661926 
	C555.590332,635.872925 545.714478,626.963318 535.711731,618.198425 
	C533.252014,616.043091 532.858276,614.176758 534.981262,611.479431 
	C537.527893,608.243652 539.676270,604.694458 542.633057,601.418213 
	C574.447876,629.298096 606.308838,657.125549 638.038757,685.101746 
	C644.431946,690.738586 651.521545,692.952637 659.702515,690.945801 
	C669.637085,688.508728 676.072388,681.904602 678.559570,672.220520 
	C680.902100,663.099731 678.808044,655.123108 671.088867,648.484985 
	C647.855164,628.505005 624.965820,608.124146 601.971802,587.866028 
	C591.862427,578.959473 581.824768,569.971436 572.202881,560.488037 
	C574.262573,557.467285 576.501465,554.550842 578.334961,551.398560 
	C580.452759,547.757507 582.470764,547.433105 585.667053,550.318604 
	C594.426025,558.225891 603.405029,565.888916 612.269775,573.679565 
	C635.613647,594.194885 658.858154,614.824402 682.314026,635.210754 
	C694.130432,645.480774 700.255432,645.774963 714.641541,637.527588 
M563.010315,732.539246 
	C561.342590,730.196472 560.018921,727.479187 557.947327,725.575989 
	C549.147217,717.490845 540.147888,709.621460 531.172974,701.728210 
	C527.786743,698.750183 524.270020,695.920471 519.515564,691.935974 
	C521.652161,709.803345 512.781372,721.590027 502.525055,732.922791 
	C509.286346,738.531189 515.250854,744.069458 521.827148,748.747803 
	C527.147339,752.532471 533.400757,754.359619 540.190735,753.513184 
	C552.441223,751.986023 559.273804,744.455811 563.010315,732.539246 
z"/>
<path fill="#D72220" opacity="1.000000" stroke="none" 
	d="
M708.703186,480.308044 
	C706.977600,479.930481 705.104187,479.865662 703.547974,479.129822 
	C654.368469,455.876007 605.232117,432.530884 556.034058,409.316650 
	C553.258789,408.007111 552.761475,406.737061 553.782898,403.981750 
	C557.136108,394.936249 560.283447,385.814301 563.489502,376.714539 
	C564.032471,375.173492 564.475342,373.597168 565.167725,371.388794 
	C563.565491,371.609772 562.461487,371.562378 561.511597,371.921967 
	C533.202759,382.637909 504.930084,393.449707 476.585205,404.068939 
	C473.293732,405.302063 472.029694,407.108490 471.581360,410.490875 
	C470.294098,420.203186 468.791901,429.895416 467.017914,439.529938 
	C466.465942,442.527771 465.284302,445.678101 463.526733,448.142242 
	C451.471100,465.044189 436.854004,479.006714 416.110535,484.190979 
	C408.707367,486.041229 400.667267,485.342804 392.502258,485.598633 
	C402.662537,464.505829 413.211548,443.608398 423.824738,422.743622 
	C429.928711,410.743622 436.076630,398.764832 442.362701,386.859833 
	C443.303162,385.078766 444.817841,383.123383 446.561340,382.314667 
	C479.118256,367.214172 511.769104,352.316193 544.338196,337.241699 
	C547.789978,335.644043 550.679993,335.598877 554.195435,337.124268 
	C595.664856,355.118225 637.197388,372.966675 678.975952,391.516541 
	C684.410950,407.428497 689.564758,422.683655 694.761047,437.924316 
	C699.527588,451.904602 704.340088,465.869232 709.031006,479.889526 
	C708.929810,479.938263 708.703186,480.308044 708.703186,480.308044 
z"/>
<path fill="#100B0B" opacity="1.000000" stroke="none" 
	d="
M124.666946,461.668030 
	C156.970993,393.607422 189.090454,325.874115 221.498367,257.532501 
	C258.390137,277.147980 295.142242,296.689178 332.290710,316.441132 
	C290.365509,405.199341 248.578979,493.663971 206.662338,582.404053 
	C168.843475,564.004822 131.505493,545.839539 93.616348,527.406128 
	C103.978142,505.447601 114.230247,483.721466 124.666946,461.668030 
M226.962845,490.431152 
	C252.807358,435.700928 278.651886,380.970673 304.735962,325.733124 
	C279.945435,312.488312 255.818497,299.598022 231.121246,286.403046 
	C194.383041,363.849976 157.994644,440.559509 121.456917,517.583862 
	C146.907761,530.007996 171.543533,542.034241 196.715652,554.322327 
	C206.870789,532.894470 216.768906,512.008850 226.962845,490.431152 
z"/>
<path fill="#0B0D0B" opacity="1.000000" stroke="none" 
	d="
M902.965820,465.026611 
	C912.861877,485.918030 922.625977,506.457825 932.575134,527.386780 
	C894.884644,545.712097 857.560486,563.859253 819.448303,582.389587 
	C777.571594,493.775604 735.789917,405.362854 693.798889,316.507080 
	C730.791748,296.812561 767.537476,277.249634 804.566833,257.535675 
	C837.439026,326.827728 870.136414,395.751343 902.965820,465.026611 
M751.417542,389.049286 
	C761.765747,411.033600 772.129700,433.010529 782.457703,455.004333 
	C791.865356,475.038239 801.196045,495.108368 810.633057,515.128357 
	C816.720215,528.041748 822.938049,540.893433 829.381836,554.367920 
	C854.582458,542.023376 879.413696,529.859802 904.640442,517.502441 
	C867.856323,440.061890 831.479919,363.479645 794.961487,286.598358 
	C770.278748,299.667450 746.078796,312.480896 721.331970,325.583893 
	C731.451538,346.945129 741.266113,367.662598 751.417542,389.049286 
z"/>
<path fill="#0F6435" opacity="1.000000" stroke="none" 
	d="
M782.315063,534.188293 
	C765.826721,547.344849 749.192444,560.069946 732.767700,573.059875 
	C729.849365,575.367920 727.870850,575.073914 725.436646,572.907288 
	C713.391541,562.186096 701.347473,551.463501 689.264221,540.785400 
	C681.918396,534.293762 674.487183,527.898804 667.126648,521.423523 
	C665.020996,519.571106 663.028320,517.590088 660.371460,515.092285 
	C676.903564,503.846558 692.927856,492.946289 709.368530,481.510162 
	C713.170837,478.680664 716.556763,476.387024 720.590454,473.787964 
	C721.621216,473.197388 722.004150,472.912231 722.582642,472.546661 
	C727.493774,469.335083 732.209290,466.203857 737.575439,462.778809 
	C738.609009,462.202240 738.991882,461.919495 739.447998,461.614594 
	C739.671448,461.391541 739.833740,461.199127 740.628906,460.732910 
	C741.610718,460.174011 741.971619,459.897400 742.414185,459.601654 
	C742.672119,459.378510 742.842346,459.164398 743.457275,458.760834 
	C744.130188,458.346588 744.352356,458.111664 744.574585,457.876709 
	C745.698425,458.931366 747.264343,459.775787 747.880676,461.071808 
	C759.401306,485.298218 770.809143,509.578278 782.315063,534.188293 
z"/>
<path fill="#F9BC16" opacity="1.000000" stroke="none" 
	d="
M709.132263,479.840759 
	C704.340088,465.869232 699.527588,451.904602 694.761047,437.924316 
	C689.564758,422.683655 684.410950,407.428497 679.194153,391.765503 
	C687.080017,387.155579 695.058044,383.046600 702.916138,378.719849 
	C705.913879,377.069275 707.889343,377.506927 709.338196,380.576019 
	C720.993591,405.265533 732.661072,429.949371 744.287659,454.652374 
	C744.622925,455.364746 744.546265,456.270996 744.618164,457.481781 
	C744.352356,458.111664 744.130188,458.346588 743.400635,458.676453 
	C742.706421,459.054474 742.519470,459.337616 742.332520,459.620789 
	C741.971619,459.897400 741.610718,460.174011 740.609253,460.612335 
	C739.770691,461.061615 739.572693,461.349152 739.374756,461.636719 
	C738.991882,461.919495 738.609009,462.202240 737.415771,462.713593 
	C731.866028,466.170471 727.126526,469.398773 722.387085,472.627045 
	C722.004150,472.912231 721.621216,473.197388 720.436462,473.719666 
	C716.133850,475.918060 712.633057,477.879395 709.132263,479.840759 
z"/>
<path fill="#F9BC14" opacity="1.000000" stroke="none" 
	d="
M508.180573,571.835083 
	C511.784668,567.522583 515.388794,563.210083 519.352234,558.467529 
	C489.679047,539.773315 460.221741,521.215149 431.017914,502.816620 
	C439.537048,497.288544 448.072144,492.491486 455.767151,486.597626 
	C470.370605,475.412354 481.014679,460.713226 490.717804,445.246613 
	C492.209412,442.868988 495.068481,440.763153 497.747345,439.830872 
	C504.643158,437.430908 511.792664,435.759888 519.413208,434.119263 
	C534.118958,447.016937 548.315247,459.523315 562.358337,472.199310 
	C569.106628,478.290619 575.565796,484.702240 582.022095,491.286133 
	C568.606323,506.076324 555.324402,520.549255 541.895630,535.182129 
	C552.211609,544.109009 561.983093,552.564636 571.754578,561.020325 
	C581.824768,569.971436 591.862427,578.959473 601.971802,587.866028 
	C624.965820,608.124146 647.855164,628.505005 671.088867,648.484985 
	C678.808044,655.123108 680.902100,663.099731 678.559570,672.220520 
	C676.072388,681.904602 669.637085,688.508728 659.702515,690.945801 
	C651.521545,692.952637 644.431946,690.738586 638.038757,685.101746 
	C606.308838,657.125549 574.447876,629.298096 542.137207,601.052734 
	C530.487793,591.069824 519.334167,581.452454 508.180573,571.835083 
z"/>
<path fill="#0F6435" opacity="1.000000" stroke="none" 
	d="
M507.869568,571.999756 
	C519.334167,581.452454 530.487793,591.069824 541.819275,600.984070 
	C539.676270,604.694458 537.527893,608.243652 534.981262,611.479431 
	C532.858276,614.176758 533.252014,616.043091 535.711731,618.198425 
	C545.714478,626.963318 555.590332,635.872925 565.572083,644.661926 
	C577.925049,655.538879 590.342346,666.342651 602.720093,677.191467 
	C607.845520,681.683716 612.859375,686.306946 618.067566,690.700317 
	C626.581604,697.882263 627.648071,711.865906 620.199524,720.416504 
	C609.042358,733.224548 594.500122,734.155945 581.127808,722.550049 
	C563.800598,707.511902 546.690063,692.224304 529.459717,677.074219 
	C525.716370,673.782776 521.907227,670.561951 518.045410,667.410278 
	C512.889771,663.202637 512.854980,663.245300 509.129852,667.988525 
	C502.920044,664.268433 496.729950,660.560181 490.050293,656.558655 
	C496.309174,637.405640 491.697998,620.507080 475.971039,606.535706 
	C486.661621,594.903015 497.110077,583.533752 507.869568,571.999756 
z"/>
<path fill="#D72220" opacity="1.000000" stroke="none" 
	d="
M571.978760,560.754150 
	C561.983093,552.564636 552.211609,544.109009 541.895630,535.182129 
	C555.324402,520.549255 568.606323,506.076324 582.359131,491.296753 
	C583.505066,491.443359 584.240295,491.828094 584.846436,492.359863 
	C601.111572,506.627350 617.384094,520.886414 633.612610,535.195435 
	C658.080688,556.769287 682.542297,578.350647 706.946411,599.996765 
	C712.538025,604.956421 717.556519,610.769592 717.366577,618.585632 
	C717.209961,625.033325 715.257446,631.437317 714.100769,637.860718 
	C700.255432,645.774963 694.130432,645.480774 682.314026,635.210754 
	C658.858154,614.824402 635.613647,594.194885 612.269775,573.679565 
	C603.405029,565.888916 594.426025,558.225891 585.667053,550.318604 
	C582.470764,547.433105 580.452759,547.757507 578.334961,551.398560 
	C576.501465,554.550842 574.262573,557.467285 571.978760,560.754150 
z"/>
<path fill="#106436" opacity="1.000000" stroke="none" 
	d="
M470.691589,632.571472 
	C474.427307,642.703674 471.091339,650.885437 464.063721,658.381714 
	C446.588928,677.022034 429.226318,695.768982 411.965515,714.607605 
	C406.065979,721.046448 399.085175,723.429871 390.912567,720.691345 
	C382.777161,717.965210 376.855072,712.661743 375.257874,703.183289 
	C396.268616,680.073547 417.066223,657.606384 437.735565,635.021912 
	C442.523468,629.790344 448.097870,627.337891 455.091797,628.685303 
	C460.116882,629.653442 465.088318,630.900024 470.083710,632.022339 
	C470.083710,632.022339 469.973907,632.105042 470.125061,632.013062 
	C470.580017,632.032471 470.718475,632.249329 470.691589,632.571472 
z"/>
<path fill="#FBF7F4" opacity="1.000000" stroke="none" 
	d="
M714.371155,637.694153 
	C715.257446,631.437317 717.209961,625.033325 717.366577,618.585632 
	C717.556519,610.769592 712.538025,604.956421 706.946411,599.996765 
	C682.542297,578.350647 658.080688,556.769287 633.612610,535.195435 
	C617.384094,520.886414 601.111572,506.627350 584.846436,492.359863 
	C584.240295,491.828094 583.505066,491.443359 582.492920,490.979462 
	C575.565796,484.702240 569.106628,478.290619 562.358337,472.199310 
	C548.315247,459.523315 534.118958,447.016937 519.794128,434.136780 
	C519.735168,433.732025 519.856750,433.610779 520.001770,433.533508 
	C528.402649,429.057526 534.474060,431.448792 541.602173,437.850098 
	C596.074219,486.767670 651.033875,535.142273 705.830139,583.698975 
	C708.444336,586.015503 710.720398,588.775818 713.540894,590.786804 
	C728.914673,601.748169 729.701904,624.582214 714.371155,637.694153 
z"/>
<path fill="#D52322" opacity="1.000000" stroke="none" 
	d="
M354.961060,592.566833 
	C343.515869,604.953369 332.342499,617.606323 320.541199,629.643616 
	C310.772522,639.607727 293.977814,636.011719 287.538300,623.071167 
	C286.515869,621.016602 285.983521,618.718201 285.458008,615.958740 
	C299.116364,600.820068 312.596741,586.305603 325.935822,571.662476 
	C330.521576,566.628479 335.975830,564.436035 342.508728,566.200928 
	C349.336700,568.045471 353.851227,572.731873 354.976776,579.731934 
	C355.647186,583.901611 355.010223,588.281494 354.961060,592.566833 
z"/>
<path fill="#106437" opacity="1.000000" stroke="none" 
	d="
M491.997253,714.207642 
	C490.286591,716.568481 488.793915,719.131226 486.827148,721.254883 
	C478.806000,729.915833 470.783447,738.584961 462.473907,746.965942 
	C457.350189,752.133789 450.540375,752.214905 444.213165,750.369751 
	C437.438599,748.394104 432.161438,744.068420 430.888672,735.678345 
	C444.525208,719.942444 458.037262,704.879517 471.753815,690.005188 
	C474.698730,686.811707 478.775513,686.564087 482.880890,687.962585 
	C491.062775,690.749573 495.113220,699.991394 492.530701,709.855408 
	C492.163849,711.256653 492.165924,712.754517 491.997253,714.207642 
z"/>
<path fill="#106336" opacity="1.000000" stroke="none" 
	d="
M562.975586,732.925903 
	C559.273804,744.455811 552.441223,751.986023 540.190735,753.513184 
	C533.400757,754.359619 527.147339,752.532471 521.827148,748.747803 
	C515.250854,744.069458 509.286346,738.531189 502.525055,732.922791 
	C512.781372,721.590027 521.652161,709.803345 519.515564,691.935974 
	C524.270020,695.920471 527.786743,698.750183 531.172974,701.728210 
	C540.147888,709.621460 549.147217,717.490845 557.947327,725.575989 
	C560.018921,727.479187 561.342590,730.196472 562.975586,732.925903 
z"/>
<path fill="#F3F8F5" opacity="1.000000" stroke="none" 
	d="
M470.092346,631.658813 
	C465.088318,630.900024 460.116882,629.653442 455.091797,628.685303 
	C448.097870,627.337891 442.523468,629.790344 437.735565,635.021912 
	C417.066223,657.606384 396.268616,680.073547 375.270355,702.803345 
	C373.116180,696.450195 374.753632,690.441223 379.119049,685.613098 
	C397.877869,664.866150 416.737366,644.205750 435.846741,623.781921 
	C445.800995,613.143005 463.274597,617.188904 470.092346,631.658813 
z"/>
<path fill="#FAF9EC" opacity="1.000000" stroke="none" 
	d="
M327.016418,661.833557 
	C325.683899,655.411438 326.951691,649.697144 331.469025,644.772095 
	C350.456879,624.070374 369.342773,603.274536 388.415955,582.651794 
	C399.474152,570.695190 418.468781,575.012329 425.154358,591.098511 
	C422.160583,590.166016 419.461792,588.837646 416.642609,587.854492 
	C406.808960,584.425049 397.754150,584.587952 390.254791,593.256775 
	C384.705170,599.671814 378.786774,605.767883 373.029663,612.003296 
	C357.692780,628.614197 342.354279,645.223572 327.016418,661.833557 
z"/>
<path fill="#FAF4F3" opacity="1.000000" stroke="none" 
	d="
M355.240204,592.325684 
	C355.010223,588.281494 355.647186,583.901611 354.976776,579.731934 
	C353.851227,572.731873 349.336700,568.045471 342.508728,566.200928 
	C335.975830,564.436035 330.521576,566.628479 325.935822,571.662476 
	C312.596741,586.305603 299.116364,600.820068 285.447662,615.578918 
	C283.825073,608.592590 285.576111,602.221924 290.469604,596.848267 
	C301.659973,584.559753 312.761047,572.180664 324.271179,560.196350 
	C330.487366,553.724060 338.622559,553.432861 346.527802,556.402466 
	C355.185028,559.654541 359.781189,566.569397 361.040192,575.667297 
	C361.920685,582.030029 359.743744,587.413635 355.240204,592.325684 
z"/>
<path fill="#F3F8F5" opacity="1.000000" stroke="none" 
	d="
M492.330994,714.095459 
	C492.165924,712.754517 492.163849,711.256653 492.530701,709.855408 
	C495.113220,699.991394 491.062775,690.749573 482.880890,687.962585 
	C478.775513,686.564087 474.698730,686.811707 471.753815,690.005188 
	C458.037262,704.879517 444.525208,719.942444 430.921814,735.267883 
	C428.052185,731.197998 428.480316,723.926147 432.709686,719.156616 
	C444.185364,706.215393 455.713379,693.303162 467.688782,680.828796 
	C475.246643,672.955994 491.158356,676.490173 496.848755,686.717834 
	C502.017426,696.007751 500.427277,706.370178 492.330994,714.095459 
z"/>
<path fill="#E4BC46" opacity="1.000000" stroke="none" 
	d="
M326.955231,662.239075 
	C342.354279,645.223572 357.692780,628.614197 373.029663,612.003296 
	C378.786774,605.767883 384.705170,599.671814 390.254791,593.256775 
	C397.754150,584.587952 406.808960,584.425049 416.642609,587.854492 
	C419.461792,588.837646 422.160583,590.166016 425.323853,591.473145 
	C428.491608,599.752075 426.894012,606.781860 420.976959,613.158508 
	C402.440796,633.134460 383.923004,653.131836 365.716858,673.407166 
	C359.555634,680.268677 352.637970,683.718201 343.681000,681.093872 
	C334.523560,678.410767 328.667786,672.271667 326.955231,662.239075 
M382.495239,651.997253 
	C383.742828,650.447144 384.899719,648.812500 386.252502,647.360413 
	C396.217224,636.664429 406.265259,626.045593 416.177338,615.301208 
	C418.302734,612.997314 420.165649,610.395569 421.825409,607.729248 
	C425.371613,602.032471 424.878265,595.148315 420.764862,592.444031 
	C413.197357,587.468872 398.106506,586.547913 389.886627,596.398071 
	C378.624237,609.894165 366.491028,622.665039 354.692200,635.711609 
	C347.595612,643.558655 340.272705,651.208557 333.402039,659.246704 
	C331.806915,661.112854 330.392609,664.572998 331.017914,666.665161 
	C335.238098,680.785522 354.845306,682.558105 361.888580,673.905518 
	C368.053223,666.332336 375.227631,659.581116 382.495239,651.997253 
z"/>
<path fill="#FAF1D8" opacity="1.000000" stroke="none" 
	d="
M709.031006,479.889496 
	C712.633057,477.879395 716.133850,475.918060 719.788635,474.025055 
	C716.556763,476.387024 713.170837,478.680664 709.616760,481.221954 
	C709.365417,481.159790 709.210510,480.891449 708.843506,480.486298 
	C708.703186,480.308044 708.929810,479.938263 709.031006,479.889496 
z"/>
<path fill="#F3F8F5" opacity="1.000000" stroke="none" 
	d="
M470.565491,632.454407 
	C470.718475,632.249329 470.580017,632.032471 470.075317,631.965576 
	C470.130829,632.001587 470.319153,632.110596 470.565491,632.454407 
z"/>
<path fill="#D8201F" opacity="1.000000" stroke="none" 
	d="
M226.814941,490.777222 
	C216.768906,512.008850 206.870789,532.894470 196.715652,554.322327 
	C171.543533,542.034241 146.907761,530.007996 121.456917,517.583862 
	C157.994644,440.559509 194.383041,363.849976 231.121246,286.403046 
	C255.818497,299.598022 279.945435,312.488312 304.735962,325.733124 
	C278.651886,380.970673 252.807358,435.700928 226.814941,490.777222 
z"/>
<path fill="#0E6436" opacity="1.000000" stroke="none" 
	d="
M751.249146,388.714661 
	C741.266113,367.662598 731.451538,346.945129 721.331970,325.583893 
	C746.078796,312.480896 770.278748,299.667450 794.961487,286.598358 
	C831.479919,363.479645 867.856323,440.061890 904.640442,517.502441 
	C879.413696,529.859802 854.582458,542.023376 829.381836,554.367920 
	C822.938049,540.893433 816.720215,528.041748 810.633057,515.128357 
	C801.196045,495.108368 791.865356,475.038239 782.457703,455.004333 
	C772.129700,433.010529 761.765747,411.033600 751.249146,388.714661 
z"/>
<path fill="#FAF1D8" opacity="1.000000" stroke="none" 
	d="
M722.582642,472.546661 
	C727.126526,469.398773 731.866028,466.170471 736.765137,463.007385 
	C732.209290,466.203857 727.493774,469.335083 722.582642,472.546661 
z"/>
<path fill="#FAF1D8" opacity="1.000000" stroke="none" 
	d="
M739.447998,461.614563 
	C739.572693,461.349152 739.770691,461.061615 739.988403,460.894623 
	C739.833740,461.199127 739.671448,461.391541 739.447998,461.614563 
z"/>
<path fill="#FAF1D8" opacity="1.000000" stroke="none" 
	d="
M742.414185,459.601624 
	C742.519470,459.337616 742.706421,459.054474 742.949951,458.855713 
	C742.842346,459.164398 742.672119,459.378510 742.414185,459.601624 
z"/>
<path fill="#FBBD10" opacity="1.000000" stroke="none" 
	d="
M382.225586,652.231995 
	C375.227631,659.581116 368.053223,666.332336 361.888580,673.905518 
	C354.845306,682.558105 335.238098,680.785522 331.017914,666.665161 
	C330.392609,664.572998 331.806915,661.112854 333.402039,659.246704 
	C340.272705,651.208557 347.595612,643.558655 354.692200,635.711609 
	C366.491028,622.665039 378.624237,609.894165 389.886627,596.398071 
	C398.106506,586.547913 413.197357,587.468872 420.764862,592.444031 
	C424.878265,595.148315 425.371613,602.032471 421.825409,607.729248 
	C420.165649,610.395569 418.302734,612.997314 416.177338,615.301208 
	C406.265259,626.045593 396.217224,636.664429 386.252502,647.360413 
	C384.899719,648.812500 383.742828,650.447144 382.225586,652.231995 
z"/>
</svg>