<svg version="1.1" id="Layer_1" xmlns="http://www.w3.org/2000/svg" xmlns:xlink="http://www.w3.org/1999/xlink" x="0px" y="0px"
	 width="100%" viewBox="0 0 1024 1024" enable-background="new 0 0 1024 1024" xml:space="preserve">
<path fill="#000000" opacity="1.000000" stroke="none" 
	d="
M668.000000,1025.000000 
	C446.833344,1025.000000 226.166672,1024.989014 5.500044,1025.093628 
	C1.750787,1025.095337 0.905801,1024.249146 0.906913,1020.500000 
	C1.007246,682.166687 1.007246,343.833344 0.906913,5.500028 
	C0.905801,1.750903 1.750902,0.905800 5.500028,0.906912 
	C343.833344,1.007255 682.166687,1.007255 1020.500000,0.906912 
	C1024.249146,0.905800 1025.094360,1.750902 1025.093262,5.500027 
	C1024.992920,343.833344 1024.992798,682.166687 1025.093140,1020.500000 
	C1025.094238,1024.249146 1024.249512,1025.098267 1020.499878,1025.094604 
	C903.166687,1024.979370 785.833313,1025.000000 668.000000,1025.000000 
z"/>
<path fill="#0B0C0A" opacity="1.000000" stroke="none" 
	d="
M853.828247,802.020752 
	C856.174683,807.316772 860.172607,811.337708 861.972229,816.987061 
	C860.429382,819.651184 858.070923,818.440735 856.116089,818.441284 
	C638.165222,818.503601 420.214386,818.503052 202.263550,818.492798 
	C187.767670,818.492126 173.271362,818.610535 158.376465,818.116455 
	C157.444275,812.970276 160.015152,809.467346 162.495026,805.581909 
	C167.952988,797.030701 172.599411,787.966492 177.818588,779.256348 
	C181.899979,772.445068 186.849304,766.112732 190.486420,759.087891 
	C194.118683,752.072266 197.859955,745.139648 201.639526,738.209595 
	C203.431137,734.924500 206.512329,732.902161 208.062119,729.526245 
	C213.379837,717.942627 219.862885,706.990112 226.399109,696.057129 
	C235.644745,680.592163 244.220520,664.711304 253.889725,649.521973 
	C258.313293,642.572876 261.691681,635.033447 267.017029,628.493530 
	C271.674866,622.773376 274.288818,615.399109 277.876495,608.794067 
	C280.636292,603.713135 283.148224,598.552429 287.504791,594.415283 
	C291.500671,590.620667 292.504669,584.857605 295.061279,580.091858 
	C300.859039,569.284302 307.549286,559.073303 313.807800,548.575562 
	C318.373291,540.917603 321.631744,532.372192 326.873383,525.158447 
	C333.355011,516.238220 336.266174,505.268188 343.180542,496.863739 
	C352.203552,485.896118 355.692047,471.868561 364.384338,460.854156 
	C372.035492,451.158997 376.039856,439.353516 382.853577,429.206024 
	C389.931152,418.665558 395.187531,407.097107 402.229584,396.461975 
	C407.403503,388.648163 411.095612,379.472565 416.381836,371.539612 
	C421.895233,363.265747 425.026215,353.643524 431.176849,345.914581 
	C434.748077,341.427002 437.346222,336.420685 440.135101,331.611206 
	C444.658478,323.810547 448.254181,315.502075 453.379761,307.966034 
	C461.618500,295.852905 467.106018,282.118866 476.126190,270.339386 
	C481.457581,263.377075 483.184204,253.927917 488.644226,246.828506 
	C496.075470,237.166016 499.645630,225.380920 506.612274,215.498291 
	C509.391815,211.555222 510.886780,211.430145 513.080139,215.692719 
	C514.359192,218.178452 515.344849,220.852722 516.142517,223.537262 
	C516.830688,225.853317 517.949463,227.907852 519.533447,229.578827 
	C526.858704,237.306396 530.643066,247.022507 535.547119,256.207275 
	C538.476990,261.694641 541.480835,267.407104 545.480469,272.594330 
	C550.960083,279.701111 555.909790,287.606567 558.993958,296.299866 
	C559.506165,297.743652 559.659790,299.219421 561.623535,299.993591 
	C562.145203,300.255310 562.331238,300.385132 562.777954,300.733643 
	C563.038635,300.952362 563.037964,300.976868 563.050293,300.977356 
	C563.546753,301.560944 563.486511,302.273682 563.663696,303.284302 
	C569.682251,311.998230 572.757751,321.988312 578.522583,330.342987 
	C582.251404,335.746887 586.183594,341.013275 588.987305,346.914490 
	C591.546387,352.300629 595.548218,356.933105 596.857544,363.025482 
	C597.371704,365.418030 600.697144,366.204620 602.027466,368.757812 
	C606.220337,376.804535 610.842163,384.630737 615.409607,392.477295 
	C616.676514,394.653748 617.912598,396.745056 618.225464,399.321198 
	C618.359497,400.425446 618.745667,401.804382 619.521362,402.478546 
	C627.964722,409.816864 631.314819,420.429352 636.980408,429.533173 
	C642.062683,437.699829 646.623657,446.190948 651.612061,454.814575 
	C652.113403,455.210999 652.383301,455.384430 652.803467,455.767273 
	C652.987549,455.923950 653.077393,455.925659 653.077637,455.970581 
	C653.451965,456.451935 653.487366,457.012665 653.823669,457.729523 
	C654.012939,457.926636 654.090698,457.942047 654.084045,457.981140 
	C654.400269,458.503082 654.507385,459.029907 654.234863,459.983337 
	C656.027405,468.413940 661.531982,474.294952 666.591248,480.828308 
	C667.898132,481.738464 667.847412,483.045166 668.599365,484.291168 
	C671.998901,489.033447 674.433289,493.858154 676.414978,499.002533 
	C677.488098,501.788391 679.611572,504.169647 681.540039,506.908020 
	C682.115417,507.210602 682.381104,507.385559 682.797852,507.763184 
	C682.979858,507.918915 683.086182,507.928284 683.082642,507.981567 
	C683.506653,508.533539 683.490051,509.195892 683.839478,510.055786 
	C689.221130,519.146973 693.803101,528.313477 698.573853,537.356323 
	C701.745117,543.367371 706.894897,548.824463 709.656067,555.253784 
	C712.137512,561.031738 716.754456,565.369507 719.086426,571.513428 
	C719.430298,572.480103 720.019592,572.475403 720.752197,572.766113 
	C720.978577,572.918945 721.076294,572.919373 721.077148,572.968262 
	C721.553223,573.590332 721.485962,574.290588 721.659912,575.281677 
	C722.663940,577.234741 723.542053,578.869873 724.603088,580.792480 
	C725.093994,581.198181 725.367493,581.371033 725.790771,581.758118 
	C725.975037,581.917847 726.075378,581.917236 726.076782,581.967407 
	C726.554871,582.594360 726.485413,583.298889 726.666321,584.293213 
	C729.893005,589.826599 733.682678,594.505371 734.986816,600.861450 
	C735.884033,605.234131 740.768433,607.763184 742.965759,612.028564 
	C747.642517,621.106873 754.253784,629.133362 757.536926,639.027405 
	C758.162720,640.913513 759.973145,642.541138 761.538513,643.953918 
	C765.283752,647.334045 764.797119,652.648193 767.900146,656.549988 
	C772.885376,662.818787 776.718994,669.988953 780.894226,676.877136 
	C784.247131,682.408691 786.800293,688.346008 790.584717,693.947266 
	C791.788696,694.688721 791.836975,695.865173 792.808716,696.747681 
	C793.035522,696.945984 793.058228,696.960266 793.061340,696.973328 
	C793.491699,697.478943 793.488464,698.126465 793.815918,698.981323 
	C801.759216,711.328491 806.270325,725.304321 815.703613,736.828003 
	C816.183228,737.252502 816.438293,737.435608 816.851074,737.803467 
	C817.035889,737.950439 817.023376,737.981628 817.039185,737.976013 
	C817.497253,738.486084 817.488953,739.167053 817.838501,740.060059 
	C823.142456,749.429565 828.320740,758.501709 833.700928,767.859680 
	C834.781494,768.721313 834.850830,769.862061 835.800903,770.739746 
	C836.024414,770.935364 836.083557,770.943542 836.077515,770.972778 
	C836.486267,771.476624 836.488403,772.097778 836.798218,772.922485 
	C840.839355,779.598267 844.742249,786.010437 848.899414,792.649780 
	C849.263977,793.078003 849.374207,793.279053 849.745117,793.704407 
	C850.005798,793.928772 850.080688,793.936523 850.077881,793.974060 
	C850.653137,794.681091 850.433838,795.517273 850.699646,796.540649 
	C851.177185,797.329956 851.505005,797.862061 852.012085,798.650146 
	C852.295898,799.106140 852.400513,799.306091 852.764771,799.722961 
	C853.024475,799.939941 853.073853,799.944824 853.070740,799.969482 
	C853.496765,800.495239 853.489014,801.154846 853.828247,802.020752 
z"/>
<path fill="#646464" opacity="1.000000" stroke="none" 
	d="
M157.677063,817.915283 
	C186.782806,817.916748 215.588425,818.085022 244.394104,818.100708 
	C287.186768,818.123962 329.979492,818.022278 372.772217,818.004761 
	C423.393890,817.984070 474.015594,817.981140 524.637268,817.999390 
	C561.603088,818.012695 598.568970,818.093262 635.534790,818.107544 
	C704.637268,818.134216 773.739807,818.144531 842.842285,818.128540 
	C848.998596,818.127136 855.154907,817.883911 861.672363,817.556274 
	C861.962402,820.357910 859.645203,818.967529 858.420288,818.971680 
	C838.270325,819.039429 818.119812,818.959045 797.969482,818.964233 
	C716.365967,818.985291 634.762451,819.049744 553.158936,819.049072 
	C479.548340,819.048401 405.937775,818.958679 332.327179,818.955139 
	C275.205261,818.952393 218.083313,819.022522 160.961380,819.053223 
	C159.798096,819.053833 158.634369,818.976807 157.472092,818.912964 
	C157.338165,818.905640 157.092361,818.725220 157.104187,818.666260 
	C157.149673,818.439697 157.278946,818.229919 157.677063,817.915283 
z"/>
<path fill="#DBB342" opacity="1.000000" stroke="none" 
	d="
M668.849487,484.236450 
	C668.132324,483.616638 667.487488,482.649048 666.810181,481.388153 
	C668.442566,481.296906 669.384827,482.053528 668.849487,484.236450 
z"/>
<path fill="#DBB342" opacity="1.000000" stroke="none" 
	d="
M836.064026,770.592651 
	C834.376343,771.170593 834.567993,769.634155 833.950439,768.488281 
	C835.169739,768.289185 836.024536,768.863953 836.064026,770.592651 
z"/>
<path fill="#DBB342" opacity="1.000000" stroke="none" 
	d="
M793.062012,696.596680 
	C791.338440,697.203979 791.649902,695.530518 790.923218,694.465759 
	C792.194763,694.221680 793.004761,694.854614 793.062012,696.596680 
z"/>
<path fill="#DBB342" opacity="1.000000" stroke="none" 
	d="
M721.838379,575.273804 
	C721.327271,574.814941 720.868774,574.030396 720.744141,573.131470 
	C722.572021,573.145996 721.959595,574.161499 721.838379,575.273804 
z"/>
<path fill="#DBB342" opacity="1.000000" stroke="none" 
	d="
M726.871826,584.287354 
	C726.328186,583.819275 725.859253,583.027405 725.734253,582.126526 
	C727.539734,582.143127 727.026550,583.150024 726.871826,584.287354 
z"/>
<path fill="#DBB342" opacity="1.000000" stroke="none" 
	d="
M850.911011,796.453552 
	C850.354370,795.962463 849.859375,795.127075 849.719727,794.151611 
	C851.564514,794.201477 851.027039,795.258728 850.911011,796.453552 
z"/>
<path fill="#DBB342" opacity="1.000000" stroke="none" 
	d="
M563.854126,303.279663 
	C563.371216,302.863007 562.949768,302.118011 562.795410,301.175415 
	C564.524048,301.126801 564.009399,302.130005 563.854126,303.279663 
z"/>
<path fill="#DBB342" opacity="1.000000" stroke="none" 
	d="
M720.966797,572.604492 
	C720.182861,573.884094 719.652161,573.059082 719.137329,572.241333 
	C719.793335,571.995056 720.374146,572.142578 720.966797,572.604492 
z"/>
<path fill="#DBB342" opacity="1.000000" stroke="none" 
	d="
M854.005005,801.936401 
	C853.051392,802.114014 852.883484,801.344604 852.856689,800.312012 
	C854.129639,800.058533 854.082642,800.817932 854.005005,801.936401 
z"/>
<path fill="#DBB342" opacity="1.000000" stroke="none" 
	d="
M794.001648,698.894775 
	C793.057678,699.074890 792.887268,698.323364 792.861694,697.301880 
	C794.106018,697.044617 794.088013,697.782104 794.001648,698.894775 
z"/>
<path fill="#DBB342" opacity="1.000000" stroke="none" 
	d="
M684.008362,509.971985 
	C683.044250,510.142151 682.849976,509.353943 682.825745,508.334106 
	C684.173523,508.077209 684.071472,508.865723 684.008362,509.971985 
z"/>
<path fill="#DBB342" opacity="1.000000" stroke="none" 
	d="
M654.404053,460.241150 
	C653.924194,459.822388 653.777527,459.278656 653.854126,458.377563 
	C655.601013,458.308411 655.070801,459.243256 654.404053,460.241150 
z"/>
<path fill="#DBB342" opacity="1.000000" stroke="none" 
	d="
M818.013062,739.978882 
	C817.026733,740.166321 816.853455,739.390808 816.852295,738.304565 
	C818.113098,738.067444 818.097900,738.827515 818.013062,739.978882 
z"/>
<path fill="#DBB342" opacity="1.000000" stroke="none" 
	d="
M836.990479,772.831543 
	C836.080383,773.000427 835.876587,772.282288 835.854126,771.297791 
	C837.093262,771.033508 837.087646,771.742798 836.990479,772.831543 
z"/>
<path fill="#DBB342" opacity="1.000000" stroke="none" 
	d="
M654.061401,457.601562 
	C652.771973,458.306213 652.818848,457.204773 652.767334,456.294525 
	C653.962463,455.993347 654.117737,456.568176 654.061401,457.601562 
z"/>
<path fill="#DBB342" opacity="1.000000" stroke="none" 
	d="
M816.973022,737.674866 
	C816.700134,737.880432 816.364380,737.810425 815.964783,737.423828 
	C816.237366,737.204590 816.573792,737.301941 816.973022,737.674866 
z"/>
<path fill="#DBB342" opacity="1.000000" stroke="none" 
	d="
M562.972412,300.690674 
	C562.719482,300.884979 562.400330,300.817627 562.020142,300.437866 
	C562.274841,300.226654 562.590515,300.327820 562.972412,300.690674 
z"/>
<path fill="#DBB342" opacity="1.000000" stroke="none" 
	d="
M652.952576,455.623901 
	C652.588928,456.348022 652.234131,456.339233 651.870544,455.453583 
	C652.178955,455.168121 652.548279,455.246002 652.952576,455.623901 
z"/>
<path fill="#DBB342" opacity="1.000000" stroke="none" 
	d="
M853.012207,799.687988 
	C852.547485,800.215698 852.216919,800.075928 852.101135,799.244507 
	C852.460876,799.082825 852.730408,799.259399 853.012207,799.687988 
z"/>
<path fill="#DBB342" opacity="1.000000" stroke="none" 
	d="
M849.995239,793.671753 
	C849.487244,794.330627 849.120422,794.219543 849.028503,793.239746 
	C849.430725,793.056213 849.707703,793.235474 849.995239,793.671753 
z"/>
<path fill="#DBB342" opacity="1.000000" stroke="none" 
	d="
M725.959656,581.601990 
	C725.574097,582.344849 725.217346,582.334473 724.849182,581.445251 
	C725.172119,581.148621 725.558167,581.217346 725.959656,581.601990 
z"/>
<path fill="#DBB342" opacity="1.000000" stroke="none" 
	d="
M682.966492,507.606293 
	C682.579102,508.325104 682.226379,508.310974 681.874756,507.440735 
	C682.196960,507.152954 682.575012,507.223328 682.966492,507.606293 
z"/>
<path fill="#E4B23D" opacity="1.000000" stroke="none" 
	d="
M213.982086,776.194519 
	C215.446243,770.143372 218.987198,765.449829 221.913315,760.455566 
	C268.101990,681.621399 314.390656,602.845886 360.567169,524.004700 
	C406.239258,446.024780 451.816589,367.989410 497.417633,289.967926 
	C501.412628,283.132660 505.275360,276.220093 509.370087,269.044586 
	C607.752625,437.779266 705.806824,605.950806 804.010742,774.431274 
	C804.229004,777.752747 802.016602,777.398254 800.103455,777.491333 
	C795.370605,777.721558 790.678528,777.382507 785.604004,776.472656 
	C780.740784,775.266602 780.005493,770.906982 777.992188,767.752075 
	C776.071899,764.743042 774.531616,761.500427 771.816711,758.593750 
	C768.144531,753.240295 765.449036,747.707336 761.741394,742.394836 
	C761.510071,741.609009 761.422424,741.147095 761.241699,740.347412 
	C761.076355,739.787964 760.999817,739.567139 760.787964,739.020752 
	C760.576782,738.471130 760.500916,738.247009 760.307373,737.686279 
	C759.768311,735.316528 758.305481,733.852844 757.268433,732.175476 
	C748.287964,717.649963 740.569580,702.402954 731.738586,687.788696 
	C718.093567,665.208130 705.317383,642.113953 691.555359,619.598145 
	C686.631653,611.542480 682.716187,602.886597 677.025146,594.851074 
	C664.815552,575.873291 653.952881,556.515198 642.717773,537.379456 
	C641.472656,535.258789 639.960144,533.131714 641.393188,530.136108 
	C645.251282,527.964111 646.621338,530.577698 648.179138,533.053406 
	C655.452698,544.612854 661.798584,556.712524 668.819641,568.416870 
	C680.712402,588.242615 692.287781,608.254211 703.827026,628.285034 
	C719.531982,655.547058 735.784912,682.485901 751.579407,709.694946 
	C761.691772,727.115356 771.691528,744.599976 781.759155,762.045776 
	C782.926025,764.067932 784.237854,765.990234 785.604248,767.882935 
	C787.000732,769.817322 788.881470,770.573608 791.200562,770.591675 
	C795.068787,770.621765 795.824280,769.528748 793.880188,766.223755 
	C789.068481,758.044067 784.473938,749.741089 779.663513,741.558960 
	C767.599792,721.039551 755.754456,700.388977 743.686707,679.873962 
	C723.768494,646.013062 703.915405,612.112061 684.121338,578.180481 
	C670.282410,554.457275 656.121033,530.916199 642.581604,507.025360 
	C624.687073,475.450012 606.285645,444.171387 588.053467,412.795532 
	C573.838562,388.333099 559.418518,363.984283 545.046997,339.611084 
	C534.821228,322.268860 524.726562,304.834412 514.901062,287.252655 
	C513.481079,284.711700 512.690125,280.764221 509.608429,280.525696 
	C506.451111,280.281250 505.873840,284.384674 504.571228,286.683533 
	C493.163055,306.816711 481.348663,326.714905 469.610870,346.651550 
	C454.752747,371.888092 439.960815,397.163177 425.283325,422.503571 
	C411.435455,446.411652 397.203278,470.092590 383.446259,494.057098 
	C373.507019,511.371094 363.153381,528.468506 353.183624,545.769287 
	C338.890442,570.572571 324.129364,595.100525 309.839569,619.906860 
	C300.791504,635.613770 291.508881,651.216309 282.185120,666.779236 
	C270.552704,686.195679 259.118896,705.738281 247.955780,725.434265 
	C240.819717,738.025024 232.845856,750.125244 225.978363,762.874756 
	C225.742432,763.312744 225.350540,763.685181 225.200699,764.151733 
	C224.590927,766.050049 221.979156,767.632202 223.903702,769.929932 
	C225.240417,771.525879 230.188354,770.532043 232.008804,768.274292 
	C234.625259,765.029236 236.748520,761.404114 238.770599,757.787109 
	C253.557068,731.338074 269.239655,705.410339 284.481689,679.228149 
	C297.045807,657.645935 309.934143,636.246521 322.557739,614.696289 
	C336.104462,591.570190 349.638000,568.435974 363.165497,545.298462 
	C367.628601,537.664734 372.526093,537.256042 377.304810,544.728638 
	C388.605865,562.400208 399.360931,580.413269 410.303741,598.308350 
	C415.162628,606.254150 420.383026,613.974609 424.873718,622.153564 
	C427.120026,626.244873 429.254303,626.406311 432.068024,622.843201 
	C445.987061,605.217163 460.873535,588.390137 474.841644,570.795044 
	C480.922333,563.135376 487.341125,555.655090 493.933258,548.380859 
	C499.176056,542.595642 503.659912,542.961121 507.915680,549.719543 
	C518.289795,566.194214 528.759644,582.608032 539.149292,599.072327 
	C565.017212,640.064575 587.325073,683.114075 611.684448,724.979492 
	C619.470093,738.360413 627.286133,751.724854 634.856384,765.230774 
	C636.335388,767.869324 637.965820,770.384521 641.530640,770.569702 
	C645.476746,770.774536 646.529907,769.467346 644.695374,765.927856 
	C642.398438,761.496338 640.154053,757.015320 637.538513,752.768188 
	C626.795959,735.324158 617.481201,717.067627 607.048645,699.449341 
	C601.535095,690.138000 596.316162,680.658875 590.808716,670.938049 
	C590.321228,669.514648 589.772278,668.539856 588.683716,667.470703 
	C585.953064,662.581787 583.422791,657.990234 580.779419,653.462219 
	C579.675842,651.571777 578.804626,649.647705 580.117188,647.107056 
	C580.564026,646.617920 580.778564,646.455261 581.372070,646.156738 
	C582.016113,646.002441 582.281250,645.983826 582.932617,646.045166 
	C584.266541,646.543213 585.027039,647.200317 585.470093,648.123047 
	C593.808411,665.491089 604.214111,681.707642 613.627747,698.474243 
	C623.616089,716.264221 633.570068,734.079346 643.960083,751.645691 
	C647.672302,757.921875 651.085571,764.387146 654.602661,770.784058 
	C655.469604,772.360840 656.637329,773.908752 655.476929,776.221069 
	C648.976624,778.477478 642.611938,777.273621 635.922729,777.062500 
	C630.602844,773.403503 628.247742,767.980469 625.347900,762.987732 
	C609.542969,735.775452 594.039795,708.389221 578.535034,681.006470 
	C566.885498,660.432312 555.568359,639.660461 543.409851,619.387573 
	C530.649475,598.111267 516.802124,577.501709 503.668243,556.449341 
	C500.983795,552.146362 499.769043,552.151123 496.695129,555.857117 
	C475.980347,580.831726 455.142273,605.704407 434.649994,630.862915 
	C429.602509,637.059692 425.842712,637.072510 421.564575,630.080383 
	C409.571320,610.478943 397.208282,591.104492 385.484833,571.337585 
	C381.576294,564.747437 377.556213,558.224426 373.319611,551.839172 
	C370.697968,547.888000 370.115662,547.825073 367.631714,551.958557 
	C359.054932,566.230591 350.701080,580.635681 342.291412,595.006531 
	C328.666412,618.289795 314.877258,641.476318 301.277252,664.773743 
	C281.633667,698.424194 261.843536,731.988892 242.275864,765.683838 
	C239.965607,769.662109 238.117462,774.099182 233.336090,776.593323 
	C226.696075,777.844666 220.449677,778.170776 213.982086,776.194519 
z"/>
<path fill="#21593B" opacity="1.000000" stroke="none" 
	d="
M783.686035,774.657471 
	C790.570251,776.193665 797.046631,775.726624 803.841064,775.028687 
	C804.160522,774.740112 804.579956,774.895569 804.789795,774.973022 
	C806.692932,777.242065 810.290894,778.726685 807.338013,782.696289 
	C782.078918,777.577942 756.885620,779.791809 731.823547,779.474609 
	C711.001404,779.211060 690.173279,779.426880 669.347778,779.414062 
	C665.341858,779.411621 661.323730,779.381226 657.419556,780.349060 
	C650.429871,782.081909 643.465698,780.614563 636.542908,780.107727 
	C631.220032,779.718140 625.916443,779.423340 620.588623,779.423035 
	C549.782043,779.418640 478.975311,779.474182 408.168884,779.368103 
	C396.161438,779.350098 384.217438,780.140625 372.261322,780.940857 
	C367.375671,781.267822 362.712952,779.505249 357.879700,779.491028 
	C318.561646,779.375488 279.242920,779.292969 239.925888,779.562500 
	C233.123642,779.609131 226.419312,781.509460 219.567032,781.634521 
	C218.058456,781.661987 216.624207,782.232666 215.423462,783.207336 
	C214.213806,784.189392 213.240982,785.371216 213.599121,787.046814 
	C213.980484,788.831238 215.504196,789.204834 217.028351,789.415466 
	C218.682495,789.643982 220.354523,789.574707 222.019684,789.574768 
	C413.614044,789.580933 605.208435,789.584473 796.802795,789.563049 
	C800.597229,789.562622 804.555847,790.049438 807.975098,786.652771 
	C813.511475,783.933838 813.378967,788.587463 814.800903,791.671509 
	C812.915039,793.624939 810.660706,793.052673 808.550232,793.053040 
	C608.751160,793.087646 408.952057,793.094666 209.152969,793.099426 
	C202.970627,793.099548 202.925461,793.052734 206.132217,787.664246 
	C208.427994,783.806458 210.865250,780.032837 213.493347,776.011230 
	C220.153305,775.336426 226.607239,776.233643 233.383606,775.037476 
	C237.043411,773.049683 240.592010,772.564941 244.325592,772.567139 
	C282.058044,772.589478 319.790527,772.556458 357.522980,772.604614 
	C360.015839,772.607788 362.513428,772.632263 365.422424,773.377563 
	C372.424805,774.166138 378.990906,775.945068 385.917969,772.930359 
	C390.397247,773.273071 394.357147,772.535339 398.349304,772.538147 
	C473.075714,772.590210 547.802185,772.565491 622.528625,772.604126 
	C626.470642,772.606201 630.574646,771.969055 634.582581,774.699402 
	C641.446655,776.337097 647.886841,775.809631 654.619873,774.797852 
	C655.880737,773.468933 657.264038,773.485657 658.955688,772.940491 
	C692.682617,772.314636 725.943909,772.677856 759.204285,772.604187 
	C765.347229,772.590576 771.514526,772.143005 778.123657,773.155334 
	C780.326965,772.989746 781.821106,773.584595 783.686035,774.657471 
z"/>
<path fill="#0A0B0A" opacity="1.000000" stroke="none" 
	d="
M807.881226,782.523560 
	C807.083984,779.890320 806.106445,777.808533 805.064270,775.388611 
	C809.663269,776.762939 815.280151,785.825867 815.031128,791.843628 
	C813.428101,790.118896 812.029968,788.117249 810.374512,785.893066 
	C809.923706,785.655212 809.730225,785.639832 809.253357,785.552551 
	C808.802673,785.379211 808.635315,785.277771 808.267151,784.961853 
	C807.974976,784.574341 807.883606,784.401245 807.728516,783.942505 
	C807.676819,783.462891 807.688782,783.268982 807.881226,782.523560 
z"/>
<path fill="#0B0B09" opacity="1.000000" stroke="none" 
	d="
M366.085083,775.495178 
	C342.028961,774.721802 318.275452,775.417480 294.527100,775.253845 
	C274.594940,775.116455 254.661453,775.168213 234.252640,775.044128 
	C271.390015,710.767151 308.999176,646.579834 346.619965,582.399475 
	C354.353394,569.206421 362.130249,556.038818 370.015686,542.640930 
	C372.059235,543.682190 372.581238,545.508301 373.470398,546.950623 
	C390.592010,574.722717 407.750885,602.472534 424.690430,630.355530 
	C427.265930,634.594910 428.572174,634.113281 431.426422,630.637329 
	C453.306213,603.992676 475.363525,577.493835 497.369873,550.953125 
	C498.314392,549.814026 499.299957,548.708923 500.258209,547.597534 
	C502.185852,548.637146 502.808258,550.445801 503.797089,551.926270 
	C541.186890,607.907776 573.599976,666.847412 606.830505,725.301758 
	C616.125305,741.651855 625.503723,757.954285 634.932983,774.606262 
	C632.365967,775.032654 629.709595,775.217957 627.053284,775.217529 
	C547.008484,775.205139 466.963654,775.174316 386.452942,775.080322 
	C384.912659,773.436279 385.872253,772.207275 386.653839,770.916382 
	C403.057129,743.822754 418.669861,716.261230 435.030121,689.141052 
	C436.993378,685.886658 438.972260,682.605286 440.636108,679.175293 
	C442.504425,675.323853 441.637482,674.553650 437.763580,673.397095 
	C430.311157,671.172180 426.458466,673.592590 422.566010,680.480042 
	C410.328918,702.132996 397.451141,723.434082 384.857788,744.891724 
	C379.579773,753.884827 373.520721,762.459717 369.514740,772.175903 
	C368.912323,773.636963 367.605286,774.438538 366.085083,775.495178 
z"/>
<path fill="#F6BA16" opacity="1.000000" stroke="none" 
	d="
M592.611938,668.933533 
	C602.666809,686.746948 612.602722,704.273865 622.524963,721.808533 
	C631.052002,736.877625 639.588501,751.941528 648.068115,767.037354 
	C650.872131,772.029358 650.245728,772.582581 644.516296,773.147217 
	C638.661255,773.724304 635.357056,771.270691 632.584290,766.349670 
	C609.615540,725.585388 586.490906,684.908875 563.376587,644.226746 
	C551.283386,622.942200 538.588135,602.026794 525.113953,581.579346 
	C518.613281,571.714294 512.502258,561.592102 506.239014,551.571167 
	C502.088287,544.930115 499.769592,544.818909 494.792053,550.848572 
	C474.459930,575.478516 454.088593,600.076050 433.720062,624.675842 
	C432.978119,625.571899 432.061279,626.322998 431.317322,627.217590 
	C428.834717,630.203064 426.769165,629.980225 424.760498,626.647461 
	C419.350586,617.671265 413.864777,608.740601 408.384064,599.807312 
	C397.324463,581.780518 386.312134,563.724182 375.143494,545.765198 
	C371.357697,539.677734 369.045074,539.961792 365.402374,546.190369 
	C345.729584,579.828430 325.975189,613.418762 306.295776,647.052917 
	C284.600067,684.133057 262.959595,721.245422 241.279037,758.334412 
	C239.598312,761.209656 237.769714,763.997986 236.046707,766.849060 
	C232.369949,772.933167 228.871536,774.477234 221.886429,772.966797 
	C217.682587,772.057861 219.234070,769.492859 220.486526,767.324768 
	C225.651337,758.384155 230.944550,749.517761 236.148102,740.599365 
	C246.882721,722.201172 257.535004,703.754700 268.320526,685.386414 
	C289.057770,650.070007 309.913391,614.823059 330.625885,579.492188 
	C346.456757,552.488281 362.112244,525.381653 377.900909,498.352966 
	C397.376068,465.013306 416.893097,431.698090 436.420624,398.389069 
	C454.522156,367.512390 472.678528,336.667877 490.772339,305.786682 
	C495.570374,297.597809 500.227234,289.326263 504.948120,281.092224 
	C506.176544,278.949585 507.009613,275.937195 509.729004,275.764313 
	C512.569397,275.583801 512.780273,278.883148 513.887939,280.780487 
	C530.927246,309.967712 547.900146,339.193726 564.898865,368.404663 
	C588.096619,408.268188 611.280823,448.139648 634.512268,487.983521 
	C656.231506,525.233643 678.054138,562.423523 699.739197,599.693481 
	C718.579285,632.073608 737.221741,664.568787 756.081787,696.937317 
	C769.829468,720.531677 783.789673,744.002197 797.653137,767.529114 
	C800.317505,772.050598 799.770020,772.345032 794.796936,773.174377 
	C786.315063,774.588867 783.019592,769.148254 779.597656,763.208679 
	C767.545715,742.289734 755.439819,721.401611 743.271606,700.550110 
	C728.083984,674.524597 712.779968,648.566956 697.589233,622.543213 
	C680.228027,592.801086 662.934448,563.019531 645.620056,533.250122 
	C644.861389,531.945801 644.216064,530.563477 642.024536,530.171143 
	C641.513977,530.129517 641.185730,530.183716 641.026489,530.270386 
	C640.627869,530.507812 640.413574,530.688538 640.038147,531.086426 
	C639.699402,531.380615 639.546814,531.487427 639.132935,531.722534 
	C638.684021,531.913757 638.496277,531.976624 638.026184,532.134277 
	C636.714844,532.610413 636.083862,533.346069 635.713196,534.711548 
	C635.512451,535.214539 635.409058,535.406250 635.097168,535.847290 
	C634.017578,536.703430 633.274170,537.407227 632.963867,538.832031 
	C632.778931,539.364014 632.685303,539.573364 632.399292,540.075256 
	C632.044983,540.538818 631.882935,540.709900 631.432800,541.087036 
	C630.930664,541.388489 630.716553,541.483948 630.186401,541.728577 
	C622.083008,548.482971 616.560852,557.049500 610.141052,564.825989 
	C596.861267,580.912048 584.012451,597.349243 570.915161,613.583679 
	C567.737915,617.521851 567.266968,621.113770 569.597473,625.428833 
	C573.367188,632.408691 577.143311,639.385437 580.924316,646.730957 
	C581.610962,651.866089 584.952515,655.346252 587.013000,659.443604 
	C588.123657,661.652100 589.642456,663.656555 590.045166,666.556519 
	C590.418823,668.143372 591.831299,667.867493 592.611938,668.933533 
z"/>
<path fill="#0F5C35" opacity="1.000000" stroke="none" 
	d="
M763.139526,740.797729 
	C767.673523,745.343201 770.042480,750.804626 772.946655,756.273926 
	C773.909241,759.116028 771.939392,759.186218 770.457825,759.409180 
	C768.738220,759.668030 766.970703,759.583679 764.768860,760.033691 
	C751.713745,760.829651 739.124084,760.104675 726.068848,760.547852 
	C724.674988,760.389099 723.757629,760.219482 722.360229,760.398560 
	C717.906311,760.453186 713.909119,760.339905 709.459961,760.286743 
	C706.012085,759.402100 702.991638,759.431763 699.513794,760.049805 
	C695.721802,760.682800 692.352417,760.229736 688.550598,760.296631 
	C683.986511,759.203064 679.819275,759.447021 675.209106,759.796021 
	C674.179626,760.017090 673.595947,760.175110 672.557983,760.400879 
	C671.794312,760.431824 671.488647,760.409119 670.740906,760.267212 
	C664.763733,755.877563 663.077515,749.200989 659.991333,743.424011 
	C659.066162,741.692078 659.885559,739.836304 662.285156,738.743408 
	C672.538879,738.269653 682.362732,738.706970 692.635010,738.354736 
	C693.691528,738.229736 694.290283,738.128723 695.337769,737.988159 
	C696.392090,737.946411 696.989014,737.877991 698.019714,737.637085 
	C701.505249,737.616211 704.554077,737.579895 708.047913,737.788086 
	C717.533142,738.945984 726.582947,738.608582 736.086914,738.032104 
	C738.970032,737.190796 741.459229,737.864624 744.357788,737.692932 
	C747.413086,738.547852 750.090271,738.488708 753.209717,738.425781 
	C754.244751,738.372559 754.836487,738.342041 755.872681,738.286377 
	C758.814209,738.064575 761.041809,738.607788 763.139526,740.797729 
z"/>
<path fill="#1A0906" opacity="1.000000" stroke="none" 
	d="
M763.432251,740.595215 
	C761.320068,740.670776 759.095337,740.356323 756.453613,739.996460 
	C754.222961,737.747986 751.755859,736.291748 749.680298,734.405212 
	C740.692810,726.236633 732.294678,717.466125 724.973145,707.780945 
	C719.114319,700.030579 711.749207,693.741028 705.352905,686.508118 
	C694.791565,674.565247 684.000977,662.790588 673.198181,651.060059 
	C661.734558,638.612061 649.258057,626.990417 639.167114,613.274353 
	C637.094238,610.456848 634.301697,608.256470 631.903564,605.713684 
	C629.077759,602.717407 626.388184,602.914246 623.914551,605.984314 
	C619.227783,611.801025 614.373474,617.495789 609.761292,623.349731 
	C604.007446,630.652771 597.452515,637.312439 592.348145,645.151978 
	C590.303528,648.292175 590.410828,651.100586 592.305176,653.966797 
	C599.286621,664.530151 605.103882,675.778320 611.468811,686.698364 
	C617.991577,697.889038 624.085693,709.351074 630.580200,720.557129 
	C640.086426,736.959656 648.746887,753.836609 658.615173,770.028381 
	C659.489380,771.462708 660.545471,772.827820 659.176025,774.858521 
	C657.842224,775.049438 656.747620,774.978027 655.282104,774.705505 
	C630.921265,732.251343 606.931396,689.998291 582.826721,647.404053 
	C582.183655,645.831787 582.352783,644.610535 582.942505,643.062866 
	C583.237488,642.512268 583.353333,642.291321 583.632324,641.736267 
	C583.905151,641.182068 584.015015,640.962097 584.365356,640.466431 
	C591.671265,633.087769 597.261841,624.764221 603.679260,617.123840 
	C609.885071,609.735291 615.831055,602.133911 621.838196,594.582581 
	C625.495911,589.984741 628.399414,589.847229 632.630859,593.924561 
	C641.391296,602.365967 648.979553,611.892700 657.220764,620.818115 
	C665.454651,629.735596 673.542114,638.805481 681.692688,647.806396 
	C697.551819,665.320068 713.472900,682.778015 729.275513,700.343201 
	C730.502625,701.707214 731.758423,703.039795 733.450684,704.404785 
	C733.901306,704.729919 734.080811,704.856873 734.530396,705.161865 
	C734.966797,705.469666 735.133179,705.599487 735.526978,705.938782 
	C735.893921,706.292847 736.033447,706.437378 736.562927,707.015076 
	C737.080322,707.588623 737.207764,707.729004 737.691406,708.299072 
	C738.162415,708.872314 738.277222,709.015808 738.561707,709.374878 
	C738.842651,709.735596 738.953857,709.880554 739.226257,710.246582 
	C739.591003,710.766357 739.781799,711.072998 740.098145,711.616699 
	C740.428955,712.143188 740.646240,712.420715 741.096497,712.848755 
	C741.449646,713.125977 741.594116,713.233887 741.943848,713.517029 
	C742.275940,713.816956 742.402954,713.941711 742.713379,714.255981 
	C743.014038,714.572510 743.131470,714.699707 743.591309,715.203369 
	C744.047974,715.703125 744.162170,715.826233 744.626709,716.314453 
	C745.077026,716.820251 745.176880,716.960876 745.600159,717.525330 
	C746.029785,718.100037 746.135986,718.250916 746.558594,718.881104 
	C746.981873,719.527405 747.088806,719.694275 747.335388,720.132690 
	C747.564575,720.593262 747.654175,720.782227 747.890869,721.254883 
	C753.718567,725.856262 757.011963,732.159424 761.553223,737.862427 
	C761.731445,738.152100 761.743591,738.257263 761.787720,738.286499 
	C761.831848,738.315674 762.322632,738.344055 762.438232,738.561035 
	C762.809082,739.253723 763.064392,739.729492 763.432251,740.595215 
z"/>
<path fill="#1A0906" opacity="1.000000" stroke="none" 
	d="
M639.008911,529.185181 
	C639.639893,529.052307 640.000916,529.056946 640.632935,529.063721 
	C641.317200,529.068298 641.572083,529.270325 641.767334,529.934326 
	C641.865967,530.196594 641.876709,530.147949 641.855225,530.162964 
	C649.226624,544.664368 658.010132,558.356628 666.013855,572.494324 
	C669.937317,579.424866 673.960693,586.298828 678.108826,593.503296 
	C678.116455,594.251526 677.821838,594.580933 677.088745,594.914917 
	C676.538696,595.028320 676.313843,595.039551 675.758911,594.993835 
	C674.597839,594.679810 673.896545,594.175049 672.887756,593.598145 
	C672.450195,593.341675 672.280334,593.233521 671.868774,592.952515 
	C671.474304,592.659546 671.321716,592.539429 670.745300,592.045166 
	C670.190063,591.544495 670.058716,591.417908 669.555176,590.912476 
	C669.064392,590.408875 668.945740,590.284119 668.479858,589.791260 
	C668.132629,589.423279 667.788818,589.061218 667.443604,588.703369 
	C666.981628,588.226562 666.864868,588.107666 666.391174,587.628906 
	C665.912415,587.146606 665.790588,587.024048 665.295410,586.521484 
	C664.795227,586.008911 664.668396,585.876343 664.349731,585.536255 
	C664.031067,585.182312 663.904175,585.035889 663.596436,584.654053 
	C663.189636,584.080322 662.999329,583.722656 662.681274,583.076660 
	C660.918091,580.429138 658.768555,578.570557 656.417175,576.472839 
	C655.979675,576.174988 655.804504,576.058899 655.376831,575.763428 
	C654.966797,575.457092 654.809204,575.330261 654.434082,575.002563 
	C654.082642,574.664795 653.948608,574.527832 653.442444,573.984741 
	C652.948303,573.449951 652.826355,573.321289 652.346497,572.817261 
	C651.866211,572.321655 651.743896,572.201416 651.236450,571.731323 
	C650.720703,571.259705 650.590149,571.137878 650.039185,570.645081 
	C649.478333,570.136597 649.337952,569.999146 648.795410,569.395935 
	C648.269836,568.755615 648.146423,568.580933 647.837646,568.137451 
	C643.360046,562.810181 638.504944,558.305115 633.470093,553.523987 
	C633.024292,553.213440 632.846191,553.092346 632.407410,552.790344 
	C631.984192,552.480164 631.821716,552.350891 631.434204,552.015137 
	C631.069092,551.666321 630.928955,551.523865 630.394409,550.944336 
	C629.870544,550.359558 629.741150,550.211792 629.295532,549.562622 
	C628.913391,548.873779 628.847351,548.686401 628.655518,548.224121 
	C628.431519,547.768677 628.333374,547.588013 628.061584,547.145386 
	C627.490784,546.356689 627.116882,545.817078 626.905762,544.824402 
	C627.063110,542.652222 628.348511,541.599365 629.962280,540.395508 
	C630.281982,540.238464 630.193420,540.154785 630.152771,540.200134 
	C630.203735,539.889587 630.386475,539.589172 630.873535,539.178223 
	C631.086426,539.011963 631.044312,539.075928 631.076416,539.096802 
	C631.733521,537.741455 632.377808,536.378906 633.991455,535.386108 
	C634.297791,535.285278 634.135498,535.133423 634.227783,535.195312 
	C634.616394,533.078918 636.160645,531.781799 638.014709,530.381226 
	C638.334717,530.284851 638.216248,530.192993 638.171997,530.253540 
	C638.200623,529.902954 638.404358,529.572510 639.008911,529.185181 
z"/>
<path fill="#C63508" opacity="1.000000" stroke="none" 
	d="
M676.062866,593.784119 
	C676.835693,593.727356 677.250427,593.754211 677.971924,593.794617 
	C686.067993,606.968750 693.916992,620.094299 701.634521,633.296692 
	C720.956421,666.350464 740.223816,699.436096 759.489197,732.522949 
	C760.403076,734.092407 761.086731,735.795898 761.804565,737.794556 
	C755.431335,733.792053 751.356750,727.264709 745.897827,721.677246 
	C746.353271,719.885559 746.350525,718.565063 745.362183,717.147766 
	C736.893250,705.003479 729.925171,691.919128 722.566589,679.128845 
	C714.033691,664.297302 704.994324,649.759033 696.728699,634.763611 
	C690.718384,623.859802 684.268677,613.179932 677.853943,602.494019 
	C676.312561,599.926331 673.704651,597.408569 676.062866,593.784119 
z"/>
<path fill="#C63508" opacity="1.000000" stroke="none" 
	d="
M627.776917,544.554871 
	C628.759888,545.095886 629.385925,545.573975 630.100586,546.343872 
	C626.362671,555.122437 619.609070,561.463440 613.951355,568.588257 
	C603.725708,581.465637 593.315491,594.196655 583.135254,607.111633 
	C580.770142,610.112183 578.275452,613.008545 575.852722,615.962769 
	C573.943909,618.290405 573.816589,620.551575 574.824280,623.363892 
	C577.315247,630.315796 582.143860,635.990234 585.110718,643.041870 
	C584.494629,644.449646 583.809753,645.513794 582.918396,646.820435 
	C582.711914,647.062866 582.351868,647.047791 582.179077,646.996887 
	C575.369934,639.360474 571.600525,630.097656 567.111023,621.271057 
	C565.883545,618.857666 567.629395,616.770081 569.082703,614.986267 
	C584.743408,595.764709 599.966187,576.188843 615.847412,557.146240 
	C619.510071,552.754456 622.116333,547.386047 627.776917,544.554871 
z"/>
<path fill="#EBAF38" opacity="1.000000" stroke="none" 
	d="
M628.197754,544.328857 
	C620.040955,551.911377 614.154358,561.076294 607.277100,569.392090 
	C594.860718,584.405762 582.906189,599.801147 570.506958,614.829346 
	C567.567200,618.392395 567.413940,621.114563 569.811829,624.974487 
	C574.112366,631.897278 577.875793,639.153687 581.934937,646.608337 
	C581.833557,646.968079 581.660950,646.990173 581.229126,647.045166 
	C579.217224,646.477356 578.521790,644.908325 577.724304,643.464783 
	C574.271973,637.215332 570.831909,630.959045 567.419067,624.687927 
	C565.367676,620.918457 565.779419,617.472473 568.517212,614.075806 
	C586.012268,592.369873 603.354370,570.539673 620.984863,548.944824 
	C623.522034,545.837097 625.503296,541.930176 629.924683,540.232605 
	C629.608521,541.505615 628.935059,542.772766 628.197754,544.328857 
z"/>
<path fill="#1A0906" opacity="1.000000" stroke="none" 
	d="
M763.857666,758.586060 
	C766.833008,757.648804 769.786743,758.683350 772.685181,756.900513 
	C777.320618,762.035950 780.012451,768.501770 784.032593,774.526123 
	C782.738464,774.940186 781.338928,775.034363 779.517944,775.084961 
	C776.690857,773.062134 774.525330,770.983032 773.347839,767.910767 
	C772.258545,765.068604 770.145935,763.023560 766.981689,762.296204 
	C765.181396,761.882263 763.427124,761.283020 763.857666,758.586060 
z"/>
<path fill="#DBB342" opacity="1.000000" stroke="none" 
	d="
M592.688843,668.891846 
	C591.671631,668.717285 589.730896,669.647644 589.909668,667.155273 
	C591.163879,667.106201 592.250549,667.292053 592.688843,668.891846 
z"/>
<path fill="#C63508" opacity="1.000000" stroke="none" 
	d="
M762.534546,738.595032 
	C762.553772,738.777954 762.196045,738.876160 762.196045,738.876160 
	C762.196045,738.876160 761.881958,738.679138 761.856934,738.497437 
	C762.086975,738.158875 762.314819,738.190979 762.534546,738.595032 
z"/>
<path fill="#0A0B0A" opacity="1.000000" stroke="none" 
	d="
M763.630493,758.246704 
	C764.428162,758.686829 764.729736,759.369141 765.072327,759.390442 
	C774.439026,759.972046 776.020630,767.782959 779.045532,774.670776 
	C743.848328,775.108215 708.600281,775.177185 673.352173,775.239075 
	C668.862976,775.246948 664.373718,775.217163 659.410645,775.162842 
	C647.131226,754.503723 635.178101,733.969238 623.562561,713.245544 
	C612.506958,693.520752 601.556458,673.736267 589.681519,654.491516 
	C586.098755,648.685120 589.309448,644.476807 592.446289,640.543274 
	C602.279236,628.212952 612.298462,616.021851 622.563721,604.049683 
	C627.255432,598.577820 628.531982,598.668030 633.295776,603.854431 
	C646.897278,618.662415 659.923828,634.021118 673.958191,648.400208 
	C682.103149,656.745300 689.775085,665.472473 697.538879,674.125732 
	C711.188049,689.338745 725.391296,704.053772 738.365784,719.882751 
	C742.554810,724.993469 747.751526,729.275940 752.459412,733.965210 
	C753.977844,735.477600 755.768982,736.839722 756.002563,739.596680 
	C755.574036,739.980103 755.111511,740.009155 754.302612,740.007141 
	C751.209534,738.338379 748.356873,738.832153 745.261108,739.804749 
	C742.639587,740.080627 740.249756,740.107361 737.413940,740.090454 
	C736.082031,739.161438 734.957886,738.983032 733.784058,739.018616 
	C725.429932,739.271973 717.053772,738.389648 708.375061,739.771240 
	C704.980225,740.066467 701.926941,740.095032 698.417603,740.080139 
	C697.573730,739.473328 697.053467,739.355652 696.235657,739.805664 
	C695.577698,740.050842 695.115112,740.072754 694.306641,740.058350 
	C693.451233,739.594666 692.894714,739.145752 692.231079,739.146179 
	C682.379333,739.152344 672.517517,738.422119 662.336548,739.791870 
	C660.638916,742.728455 662.865356,744.396118 663.931030,746.220947 
	C666.159424,750.036316 667.609131,754.307678 670.828552,757.922913 
	C671.096924,758.145325 671.453979,758.405518 671.655640,758.315552 
	C672.352112,758.207153 672.846863,758.188660 673.711548,758.206421 
	C678.429016,759.624146 682.843201,759.007324 687.572144,758.501160 
	C691.322510,758.284668 694.748352,758.248291 698.636963,758.276978 
	C702.152222,758.981873 705.215393,759.318604 708.603271,758.498108 
	C712.981567,758.280518 717.069946,758.230652 721.625000,758.242432 
	C722.804199,758.793701 723.553467,759.017700 724.650635,758.460632 
	C737.659668,758.260132 750.406555,758.220459 763.630493,758.246704 
z"/>
<path fill="#0E6136" opacity="1.000000" stroke="none" 
	d="
M808.643188,782.693481 
	C808.850220,782.947876 808.968079,783.352966 808.993286,783.562378 
	C809.190002,784.067505 809.380859,784.350098 809.772217,784.801514 
	C809.950134,784.985718 810.064575,785.322876 810.090942,785.496704 
	C809.585083,791.937378 809.540344,791.989319 802.179138,791.989502 
	C680.050293,791.992798 557.921387,791.991699 435.792542,791.991699 
	C363.148346,791.991760 290.504181,791.992371 217.859985,791.990784 
	C216.027359,791.990784 214.185852,792.079346 212.363892,791.933838 
	C208.104416,791.593506 207.668686,789.875793 209.385712,785.974731 
	C212.286255,779.384888 217.478622,779.340515 223.621979,778.785583 
	C267.032501,774.864197 310.511688,778.032288 353.941467,777.046570 
	C363.049500,776.839783 372.069946,778.394714 381.257233,778.117554 
	C463.192200,775.645630 545.152710,777.587708 627.101440,777.083252 
	C633.886597,777.041504 640.678345,778.062866 647.467163,778.588745 
	C648.624573,778.678467 649.841248,779.036011 650.931580,778.804321 
	C665.946106,775.613708 681.151245,777.215820 696.267090,777.072327 
	C722.589905,776.822449 748.917786,776.873840 775.241333,777.083679 
	C783.195618,777.147156 791.136597,778.268555 799.095581,778.667114 
	C802.285278,778.826904 804.747864,780.373413 807.703369,781.892700 
	C808.061584,781.972046 808.012756,782.003235 808.007324,781.975342 
	C808.146606,782.111389 808.291382,782.275208 808.643188,782.693481 
z"/>
<path fill="#DBB342" opacity="1.000000" stroke="none" 
	d="
M366.264954,775.658569 
	C368.978668,768.156799 373.627441,761.452698 377.734131,754.448608 
	C393.282745,727.929993 408.997314,701.507874 424.379517,674.893433 
	C426.582916,671.081055 428.918304,670.303223 432.786926,671.217529 
	C436.655212,672.131775 440.616913,672.650696 445.632507,673.536255 
	C425.705444,707.344666 405.955048,740.853333 386.095825,774.688110 
	C379.616547,776.420593 373.166443,775.407715 366.264954,775.658569 
z"/>
<path fill="#21593B" opacity="1.000000" stroke="none" 
	d="
M808.761230,782.742065 
	C808.622925,782.761475 808.421753,782.550354 808.124268,782.130981 
	C808.278687,782.083069 808.502136,782.279297 808.761230,782.742065 
z"/>
<path fill="#21593B" opacity="1.000000" stroke="none" 
	d="
M809.846558,784.748352 
	C809.723328,784.732056 809.496521,784.478394 809.144043,783.998291 
	C809.260010,784.018188 809.501465,784.264587 809.846558,784.748352 
z"/>
<path fill="#125F35" opacity="1.000000" stroke="none" 
	d="
M269.052521,753.091736 
	C301.480133,698.151978 333.725922,643.532104 365.974060,588.913635 
	C366.566345,587.910461 367.166077,586.910583 367.797546,585.931946 
	C369.173828,583.799011 370.572479,583.742310 371.923279,585.954651 
	C374.265625,589.791077 376.564087,593.654663 378.935547,597.472900 
	C380.426514,599.873474 378.762512,601.651428 377.726135,603.422852 
	C367.049713,621.670654 356.306213,639.879211 345.577576,658.096436 
	C330.456146,683.772766 315.316071,709.438171 300.223083,735.131226 
	C297.617493,739.566772 297.940033,740.134277 303.077606,740.151855 
	C320.228973,740.210510 337.380676,740.167419 354.532135,740.207031 
	C360.288513,740.220276 360.445801,740.554688 357.659515,745.646484 
	C350.903778,757.992188 350.903809,758.005005 336.796051,758.024231 
	C315.148560,758.053711 293.500885,758.021179 271.853760,758.120605 
	C267.963715,758.138489 266.288605,757.252747 269.052521,753.091736 
z"/>
<path fill="#0F5C35" opacity="1.000000" stroke="none" 
	d="
M548.000000,758.050537 
	C507.680847,758.058411 467.861694,758.066406 428.042542,758.071838 
	C426.709900,758.072021 425.377258,758.047302 424.044617,758.032104 
	C421.592072,758.004028 421.126770,756.804138 422.262054,754.835876 
	C424.675232,750.652100 427.101166,746.474182 429.609680,742.347290 
	C431.332672,739.512756 434.269318,740.197021 436.853546,740.195435 
	C481.337738,740.167603 525.821899,740.179016 570.306091,740.180908 
	C575.637512,740.181152 580.969971,740.239624 586.299927,740.148987 
	C589.076904,740.101807 591.013794,741.035339 592.361572,743.598083 
	C594.142395,746.984009 596.173157,750.244019 598.199646,753.493774 
	C600.312317,756.881836 599.466064,758.139404 595.482971,758.112305 
	C579.822632,758.005615 564.161072,758.057251 548.000000,758.050537 
z"/>
<path fill="#EBAF38" opacity="1.000000" stroke="none" 
	d="
M510.645111,305.331116 
	C514.283386,305.586548 515.075500,308.643677 516.443359,310.987244 
	C531.209839,336.287384 545.935120,361.611725 560.604553,386.968323 
	C569.606812,402.529083 578.410889,418.204742 587.450745,433.743469 
	C600.171387,455.608948 612.954651,477.438782 625.853027,499.199738 
	C633.980164,512.911072 633.837952,512.629883 623.685913,524.997009 
	C609.756348,541.966003 596.438416,559.437073 582.511658,576.408447 
	C576.075928,584.251160 569.708069,592.146606 563.282776,599.996094 
	C558.558411,605.767517 555.764099,605.161926 551.626221,598.668640 
	C541.879456,583.373657 531.930176,568.207642 522.089355,552.972412 
	C516.488037,544.300598 510.985687,535.564514 505.346863,526.917358 
	C502.467102,522.501160 501.459961,522.369873 498.012756,526.464844 
	C489.230957,536.896729 480.625061,547.476562 471.933350,557.984497 
	C459.955292,572.465393 448.055847,587.013000 435.934082,601.372803 
	C430.613098,607.676270 428.585876,607.166870 424.101807,600.247742 
	C409.438721,577.621887 396.143433,554.161194 381.798004,531.345764 
	C378.878693,526.702759 378.814453,522.956726 381.750458,518.070923 
	C393.667664,498.239777 405.100128,478.117432 416.727600,458.111908 
	C426.178558,441.851044 435.618011,425.583344 445.124664,409.355072 
	C460.102753,383.786865 475.144287,358.255829 490.134796,332.694855 
	C495.188721,324.077240 500.066406,315.353760 505.270905,306.829041 
	C506.302917,305.138611 507.426849,301.615356 510.852478,304.792480 
	C494.352661,336.230713 475.661926,366.132782 458.073608,396.670959 
	C436.732880,433.724426 414.841156,470.457397 393.394470,507.449860 
	C391.059570,511.477234 389.047058,515.714050 386.240051,519.447021 
	C383.713165,522.807373 383.702362,525.779907 386.052429,529.449890 
	C389.989838,535.598816 394.063080,541.708191 397.246277,548.720886 
	C402.456116,558.947937 408.748505,568.127686 414.375732,577.699463 
	C418.237244,584.267700 422.390137,590.675476 426.347107,597.195862 
	C429.209808,601.913025 431.089325,601.972717 434.438690,597.720825 
	C446.327026,582.629089 458.866058,568.071594 471.049255,553.223572 
	C480.814667,541.322205 490.825623,529.616943 500.590271,517.272400 
	C501.374725,516.942261 501.854584,516.880371 502.699738,516.987122 
	C508.728027,523.221558 512.348938,530.773193 516.864929,537.693481 
	C524.939575,550.067200 533.046265,562.429321 540.806030,575.010925 
	C545.246277,582.210205 549.781494,589.354919 554.457336,596.404541 
	C557.169495,600.493652 558.496033,600.428894 561.465027,596.621338 
	C576.041138,577.928223 591.143860,559.659668 606.087158,541.262085 
	C608.792847,537.931030 611.829529,534.786438 613.776611,530.455078 
	C617.356018,525.627075 620.528625,520.935303 624.254822,516.663147 
	C626.828186,513.712830 627.202576,510.868256 625.047363,507.183350 
	C611.264648,483.618500 597.516418,460.032684 583.809631,436.423615 
	C569.935608,412.526489 556.146057,388.578247 542.119812,364.771484 
	C531.979492,347.560303 522.261108,330.108551 512.084961,312.920532 
	C510.760254,310.682922 508.808380,308.531006 510.645111,305.331116 
z"/>
<path fill="#EBAF38" opacity="1.000000" stroke="none" 
	d="
M637.961426,530.276489 
	C637.192932,531.852417 636.051147,533.419983 634.614746,535.122314 
	C633.861145,532.579895 634.910217,530.890564 637.961426,530.276489 
z"/>
<path fill="#EBAF38" opacity="1.000000" stroke="none" 
	d="
M633.932495,535.278564 
	C633.435425,536.487854 632.573059,537.690369 631.409607,539.005249 
	C630.941345,537.204895 631.432068,535.712769 633.932495,535.278564 
z"/>
<path fill="#E4B23D" opacity="1.000000" stroke="none" 
	d="
M641.889771,529.997925 
	C641.607605,529.981812 641.349243,529.767090 640.997437,529.309082 
	C641.577271,528.846741 641.857727,529.168396 641.889771,529.997925 
z"/>
<path fill="#EBAF38" opacity="1.000000" stroke="none" 
	d="
M630.876221,539.176270 
	C630.958130,539.374634 630.829895,539.737244 630.406860,540.172729 
	C630.296753,539.943848 630.481384,539.642212 630.876221,539.176270 
z"/>
<path fill="#EBAF38" opacity="1.000000" stroke="none" 
	d="
M639.036987,529.208862 
	C639.095886,529.410583 638.912903,529.773376 638.428833,530.225159 
	C638.350220,529.999390 638.572632,529.684692 639.036987,529.208862 
z"/>
<path fill="#1A0906" opacity="1.000000" stroke="none" 
	d="
M662.462097,740.097290 
	C662.684265,738.437256 664.058716,738.054016 665.647766,738.054626 
	C673.938843,738.057800 682.229858,738.054199 690.520935,738.067261 
	C691.707153,738.069153 692.843933,738.267029 693.778076,739.685486 
	C683.617493,740.057617 673.274170,740.093262 662.462097,740.097290 
z"/>
<path fill="#1A0906" opacity="1.000000" stroke="none" 
	d="
M708.497803,740.073181 
	C708.614868,738.626465 709.759644,738.077087 711.190247,738.078979 
	C718.971252,738.089355 726.752747,738.091736 734.532593,738.200500 
	C735.228271,738.210266 735.913574,738.960815 736.785767,739.707153 
	C727.632568,740.067383 718.297363,740.087891 708.497803,740.073181 
z"/>
<path fill="#1A0906" opacity="1.000000" stroke="none" 
	d="
M687.447693,758.251831 
	C683.526855,761.165222 679.016296,760.400024 674.278198,758.543457 
	C678.387207,758.222595 682.692932,758.202576 687.447693,758.251831 
z"/>
<path fill="#1A0906" opacity="1.000000" stroke="none" 
	d="
M708.455627,758.261475 
	C705.851440,761.252136 702.589783,759.798645 699.225586,758.576172 
	C702.072510,758.292358 705.045288,758.242493 708.455627,758.261475 
z"/>
<path fill="#1A0906" opacity="1.000000" stroke="none" 
	d="
M745.474854,740.087769 
	C747.653931,737.010559 750.563721,737.369202 753.782288,739.655273 
	C751.277649,740.024597 748.599060,740.073120 745.474854,740.087769 
z"/>
<path fill="#1A0906" opacity="1.000000" stroke="none" 
	d="
M724.562134,758.240417 
	C724.248718,759.613647 723.453613,760.185181 722.198853,758.532104 
	C722.798279,758.263000 723.504944,758.221985 724.562134,758.240417 
z"/>
<path fill="#1A0906" opacity="1.000000" stroke="none" 
	d="
M696.360046,740.058350 
	C696.424683,739.057251 696.819763,738.128235 697.887329,739.810486 
	C697.534363,740.053772 697.107117,740.070740 696.360046,740.058350 
z"/>
<path fill="#1A0906" opacity="1.000000" stroke="none" 
	d="
M671.668884,758.190063 
	C671.857361,758.225525 671.564636,758.308350 671.564636,758.308350 
	C671.564636,758.308350 671.268188,758.255066 671.182556,758.200195 
	C671.096924,758.145325 671.480408,758.154541 671.668884,758.190063 
z"/>
<path fill="#D52220" opacity="1.000000" stroke="none" 
	d="
M585.234497,643.324829 
	C579.344971,640.150940 577.771179,633.795837 574.468506,628.714722 
	C570.288574,622.284119 571.353760,617.041565 576.447083,610.967896 
	C593.221863,590.964233 609.313904,570.388000 625.662537,550.027222 
	C626.722534,548.707031 627.923462,547.583313 629.852783,546.786621 
	C630.189270,546.635559 630.276306,546.759888 630.223450,546.814331 
	C630.209595,547.208923 630.375366,547.468079 630.889404,547.731506 
	C631.111084,547.816833 631.177734,547.826599 631.175049,547.860168 
	C631.280457,548.094666 631.388489,548.295593 631.799072,548.656372 
	C632.101562,548.816223 632.177856,548.824829 632.176025,548.863159 
	C632.281494,549.099792 632.388794,549.298035 632.793457,549.657471 
	C633.090820,549.818542 633.166809,549.834167 633.161255,549.872559 
	C633.230469,550.241333 633.418579,550.483948 633.952942,550.678528 
	C639.417969,555.956787 644.649963,561.195312 650.035583,566.742188 
	C650.291748,567.199097 650.394165,567.347656 650.713684,567.657837 
	C650.930786,567.819519 651.126038,567.877625 651.152710,567.975952 
	C651.282593,568.212524 651.385864,568.350769 651.689453,568.653076 
	C651.889771,568.817078 652.107849,568.908997 652.145874,569.021057 
	C652.183960,569.133118 652.486389,569.486023 652.651917,569.649170 
	C652.817444,569.812256 653.072021,569.953125 653.130249,570.086426 
	C653.188538,570.219666 653.492188,570.492065 653.620972,570.650208 
	C653.749695,570.808350 654.035461,570.969543 654.113647,571.113770 
	C654.191772,571.257996 654.498108,571.498230 654.615845,571.653259 
	C654.733582,571.808289 655.028015,571.978149 655.111206,572.126343 
	C655.194397,572.274597 655.499268,572.499512 655.610107,572.653076 
	C655.721008,572.806702 656.022034,572.984253 656.109009,573.135864 
	C656.195984,573.287415 656.497070,573.497192 656.602417,573.647400 
	C659.399902,576.428894 662.091919,579.060242 664.952271,582.000610 
	C665.362244,582.672668 665.537598,583.065308 665.949219,583.605713 
	C666.251770,583.723938 666.274963,583.768005 666.256104,583.784302 
	C666.267761,584.155396 666.421631,584.444336 666.953979,584.702393 
	C667.208618,584.737549 667.211609,584.773865 667.227661,584.782349 
	C667.263733,585.151917 667.422363,585.440796 667.957275,585.701172 
	C668.214478,585.734680 668.204407,585.776917 668.225647,585.781433 
	C668.270020,586.146118 668.415222,586.443481 668.960083,586.699951 
	C669.218933,586.731628 669.200867,586.776733 669.224976,586.779541 
	C669.267456,587.145996 669.418701,587.441711 669.963013,587.699646 
	C670.223389,587.729675 670.189148,587.779419 670.219360,587.779175 
	C670.263611,588.146973 670.421997,588.441406 670.967651,588.700562 
	C671.229919,588.729126 671.153870,588.787842 671.201355,588.780518 
	C671.265564,589.143921 671.419128,589.444946 671.974731,589.703735 
	C672.239990,589.731384 672.078430,589.781738 672.162354,589.772583 
	C672.259827,590.140686 672.421631,590.442566 672.980957,590.707397 
	C673.249817,590.735657 673.270813,590.679688 673.299072,590.689453 
	C673.774719,591.967224 675.252686,592.364258 676.073608,593.660706 
	C676.385437,593.741333 676.409363,593.731934 676.415161,593.716248 
	C678.648132,601.506042 683.961670,607.674133 687.758728,614.632629 
	C695.865295,629.489014 704.712341,643.942139 713.290894,658.540039 
	C724.202087,677.107178 735.216553,695.614258 745.970764,714.271667 
	C747.034302,716.116699 750.807617,718.597595 746.129272,721.260315 
	C745.801392,721.362976 745.706665,721.244507 745.756104,721.187012 
	C745.781128,720.786438 745.621582,720.526184 745.105225,720.265991 
	C744.883606,720.183228 744.822144,720.168884 744.827393,720.137756 
	C744.722412,719.905151 744.612183,719.703735 744.201477,719.333862 
	C743.900940,719.165527 743.839539,719.155090 743.843140,719.124146 
	C743.732178,718.896484 743.617676,718.699707 743.209595,718.328613 
	C742.916077,718.154175 742.850464,718.145142 742.853516,718.112183 
	C742.739197,717.887451 742.621704,717.695679 742.219482,717.322998 
	C741.934875,717.142090 741.860901,717.130859 741.864685,717.093628 
	C741.751953,716.877319 741.635376,716.698242 741.256226,716.335449 
	C740.993591,716.151672 740.849548,716.146301 740.850159,716.074219 
	C740.739014,715.839844 740.627197,715.677612 740.272461,715.346863 
	C739.402893,714.592285 738.776245,714.006104 738.015869,713.123047 
	C737.491821,712.435364 737.515137,711.856689 736.987610,711.342346 
	C736.734436,711.271545 736.713806,711.220398 736.738525,711.208069 
	C736.730530,710.847839 736.585510,710.559143 736.064941,710.279663 
	C735.818481,710.221008 735.826538,710.186768 735.812622,710.176025 
	C735.783691,709.809631 735.625549,709.537109 735.091187,709.274170 
	C734.858154,709.200562 734.808838,709.182983 734.812378,709.157043 
	C734.771729,708.793945 734.607605,708.531921 734.099731,708.264099 
	C733.876038,708.183228 733.835205,708.160583 733.839966,708.137695 
	C733.784058,707.783569 733.606079,707.536743 733.085510,707.309875 
	C720.492371,693.774597 708.085144,680.340027 695.765869,666.825195 
	C674.583740,643.587219 653.482422,620.275513 632.286743,597.049927 
	C627.379578,591.672729 627.286255,591.790100 622.854797,597.276245 
	C610.833862,612.158142 598.795471,627.025940 586.479248,642.081543 
	C585.843079,642.260498 585.556458,642.395203 585.262207,642.901001 
	C585.189880,643.134338 585.289368,643.264160 585.234497,643.324829 
z"/>
<path fill="#C63508" opacity="1.000000" stroke="none" 
	d="
M736.758179,711.533020 
	C737.079834,711.627258 737.425232,711.982971 737.826416,712.582397 
	C737.515381,712.482300 737.148621,712.138367 736.758179,711.533020 
z"/>
<path fill="#C63508" opacity="1.000000" stroke="none" 
	d="
M742.970215,718.393921 
	C743.179077,718.300903 743.406128,718.490662 743.721985,718.908325 
	C743.480652,719.104614 743.206543,718.951416 742.970215,718.393921 
z"/>
<path fill="#C63508" opacity="1.000000" stroke="none" 
	d="
M743.951355,719.408264 
	C744.166931,719.309387 744.395325,719.498718 744.709351,719.920044 
	C744.461243,720.126892 744.184265,719.975037 743.951355,719.408264 
z"/>
<path fill="#C63508" opacity="1.000000" stroke="none" 
	d="
M744.927612,720.429565 
	C745.153076,720.322449 745.381348,720.511353 745.686951,720.939758 
	C745.527527,720.978333 745.249573,720.827148 744.927612,720.429565 
z"/>
<path fill="#C63508" opacity="1.000000" stroke="none" 
	d="
M741.991333,717.378235 
	C742.194519,717.290527 742.418823,717.480652 742.732300,717.895752 
	C742.496460,718.081726 742.226807,717.926819 741.991333,717.378235 
z"/>
<path fill="#C63508" opacity="1.000000" stroke="none" 
	d="
M585.431519,643.094177 
	C585.343079,642.867065 585.544434,642.643127 585.994202,642.363037 
	C586.141541,642.606750 585.967834,642.870178 585.431519,643.094177 
z"/>
<path fill="#C63508" opacity="1.000000" stroke="none" 
	d="
M732.941162,707.469482 
	C733.140625,707.357239 733.380310,707.526978 733.711914,707.934570 
	C733.491089,708.129333 733.216919,707.989014 732.941162,707.469482 
z"/>
<path fill="#C63508" opacity="1.000000" stroke="none" 
	d="
M733.930969,708.425049 
	C734.147827,708.323547 734.379456,708.513000 734.693420,708.941284 
	C734.446594,709.141968 734.169922,708.987244 733.930969,708.425049 
z"/>
<path fill="#C63508" opacity="1.000000" stroke="none" 
	d="
M734.908691,709.447021 
	C735.134521,709.340393 735.368103,709.532166 735.678833,709.970581 
	C735.518860,710.007996 735.239014,709.850708 734.908691,709.447021 
z"/>
<path fill="#C63508" opacity="1.000000" stroke="none" 
	d="
M735.866211,710.471558 
	C736.103027,710.354492 736.340393,710.546265 736.646851,710.996094 
	C736.480103,711.037903 736.197021,710.880066 735.866211,710.471558 
z"/>
<path fill="#C63508" opacity="1.000000" stroke="none" 
	d="
M740.086792,715.381897 
	C740.267273,715.299744 740.469910,715.464294 740.744141,715.837097 
	C740.544312,715.983276 740.308777,715.844360 740.086792,715.381897 
z"/>
<path fill="#C63508" opacity="1.000000" stroke="none" 
	d="
M741.053833,716.372559 
	C741.243958,716.291870 741.457886,716.474731 741.751953,716.878418 
	C741.531311,717.041565 741.279846,716.887207 741.053833,716.372559 
z"/>
<path fill="#C63508" opacity="1.000000" stroke="none" 
	d="
M676.302673,593.424927 
	C675.011719,593.428467 674.031677,592.641968 673.406982,591.015625 
	C674.713745,590.995422 675.491272,592.022644 676.302673,593.424927 
z"/>
<path fill="#C63508" opacity="1.000000" stroke="none" 
	d="
M666.227600,583.475708 
	C665.911316,583.404358 665.570923,583.084778 665.175537,582.537476 
	C665.481506,582.615601 665.842468,582.921509 666.227600,583.475708 
z"/>
<path fill="#C63508" opacity="1.000000" stroke="none" 
	d="
M667.159546,584.486328 
	C666.916870,584.620728 666.672241,584.440002 666.356018,583.998047 
	C666.528381,583.945435 666.819397,584.090271 667.159546,584.486328 
z"/>
<path fill="#C63508" opacity="1.000000" stroke="none" 
	d="
M631.064819,547.568726 
	C630.837830,547.678345 630.605652,547.489441 630.292542,547.059387 
	C630.453247,547.019348 630.735840,547.169983 631.064819,547.568726 
z"/>
<path fill="#C63508" opacity="1.000000" stroke="none" 
	d="
M632.053528,548.574707 
	C631.832764,548.682068 631.603333,548.498596 631.292908,548.079712 
	C631.539978,547.869934 631.817688,548.016479 632.053528,548.574707 
z"/>
<path fill="#C63508" opacity="1.000000" stroke="none" 
	d="
M633.042969,549.579773 
	C632.825195,549.684509 632.598816,549.501892 632.292847,549.086060 
	C632.538086,548.879517 632.811707,549.026001 633.042969,549.579773 
z"/>
<path fill="#C63508" opacity="1.000000" stroke="none" 
	d="
M634.092285,550.499878 
	C633.894531,550.633118 633.643738,550.480835 633.294678,550.086182 
	C633.506531,549.875610 633.787537,549.999084 634.092285,550.499878 
z"/>
<path fill="#C63508" opacity="1.000000" stroke="none" 
	d="
M650.886597,567.627441 
	C650.711792,567.706116 650.526489,567.552246 650.282043,567.204224 
	C650.477844,567.058594 650.695557,567.186890 650.886597,567.627441 
z"/>
<path fill="#C63508" opacity="1.000000" stroke="none" 
	d="
M651.853333,568.628906 
	C651.679016,568.707947 651.501099,568.559509 651.267700,568.223022 
	C651.462402,568.073914 651.674927,568.195984 651.853333,568.628906 
z"/>
<path fill="#C63508" opacity="1.000000" stroke="none" 
	d="
M652.794678,569.636841 
	C652.626343,569.713074 652.466431,569.577332 652.260864,569.269043 
	C652.448669,569.119751 652.644653,569.229248 652.794678,569.636841 
z"/>
<path fill="#C63508" opacity="1.000000" stroke="none" 
	d="
M653.737061,570.649292 
	C653.579590,570.725159 653.437378,570.608093 653.255798,570.338379 
	C653.430420,570.184998 653.609009,570.275146 653.737061,570.649292 
z"/>
<path fill="#C63508" opacity="1.000000" stroke="none" 
	d="
M654.723877,571.654419 
	C654.569458,571.733521 654.432068,571.624939 654.256592,571.370300 
	C654.426147,571.209534 654.600281,571.290405 654.723877,571.654419 
z"/>
<path fill="#C63508" opacity="1.000000" stroke="none" 
	d="
M655.713379,572.656189 
	C655.560974,572.735413 655.427124,572.630737 655.256958,572.383667 
	C655.423645,572.221985 655.594055,572.299011 655.713379,572.656189 
z"/>
<path fill="#C63508" opacity="1.000000" stroke="none" 
	d="
M656.701416,573.651245 
	C656.707825,573.797607 656.316101,573.498718 656.256042,573.393066 
	C656.418640,573.231323 656.584961,573.303833 656.701416,573.651245 
z"/>
<path fill="#C63508" opacity="1.000000" stroke="none" 
	d="
M668.165894,585.482910 
	C667.921509,585.617432 667.676636,585.435425 667.361816,584.989807 
	C667.534912,584.937622 667.826111,585.084351 668.165894,585.482910 
z"/>
<path fill="#C63508" opacity="1.000000" stroke="none" 
	d="
M669.170288,586.479492 
	C668.924744,586.615112 668.679199,586.433044 668.364624,585.985718 
	C668.538452,585.933105 668.830017,586.080200 669.170288,586.479492 
z"/>
<path fill="#C63508" opacity="1.000000" stroke="none" 
	d="
M670.174194,587.477173 
	C669.928040,587.613831 669.681702,587.431641 669.366821,586.982788 
	C669.541077,586.929749 669.833008,587.077209 670.174194,587.477173 
z"/>
<path fill="#C63508" opacity="1.000000" stroke="none" 
	d="
M671.178955,588.476196 
	C670.932556,588.613770 670.684692,588.431213 670.367920,587.980164 
	C670.542358,587.927002 670.835205,588.075195 671.178955,588.476196 
z"/>
<path fill="#C63508" opacity="1.000000" stroke="none" 
	d="
M672.186340,589.477295 
	C671.939331,589.615601 671.688721,589.431641 671.368469,588.976379 
	C671.543457,588.923157 671.838074,589.073242 672.186340,589.477295 
z"/>
<path fill="#C63508" opacity="1.000000" stroke="none" 
	d="
M673.194092,590.479248 
	C672.945374,590.617798 672.691528,590.431152 672.367310,589.969482 
	C672.543579,589.916504 672.841003,590.069641 673.194092,590.479248 
z"/>
<path fill="#F9BB10" opacity="1.000000" stroke="none" 
	d="
M415.939148,718.881531 
	C406.600281,735.035889 397.399078,750.848083 388.218506,766.672241 
	C385.570190,771.237061 381.968506,773.668396 376.378754,773.166809 
	C372.414001,772.811035 371.109375,771.417053 373.023285,767.825073 
	C375.603882,762.982056 378.216583,758.150085 381.000824,753.422546 
	C394.414917,730.645996 407.886688,707.903381 421.353180,685.157715 
	C422.623901,683.011475 424.284790,681.051392 425.268311,678.789185 
	C427.359802,673.978760 430.791626,673.247986 435.447906,674.474121 
	C440.566284,675.821960 440.857544,676.373535 438.046783,681.140259 
	C430.702881,693.594482 423.402466,706.074341 415.939148,718.881531 
z"/>
<path fill="#0E0A09" opacity="1.000000" stroke="none" 
	d="
M510.933960,305.049255 
	C519.709412,322.036316 529.697632,338.341309 539.287048,354.869568 
	C568.838684,405.804779 598.478027,456.689423 628.253052,507.494232 
	C630.504578,511.335999 630.374207,513.885132 627.373169,516.999207 
	C623.229736,521.298767 620.229004,526.601379 615.577026,530.923950 
	C614.888550,531.203979 614.410645,531.215088 613.593323,531.098389 
	C606.813049,526.690491 601.770752,520.853821 596.732422,515.152405 
	C588.338989,505.654419 578.922180,497.197632 570.221741,488.025604 
	C567.819031,485.492676 565.752869,485.702301 563.626221,488.407227 
	C557.153076,496.640564 550.238770,504.517639 543.768311,512.750854 
	C538.953186,518.877747 534.991272,518.237305 530.715576,512.785889 
	C515.329163,493.168549 499.467224,473.923859 483.696594,454.610168 
	C479.759216,449.788239 479.117462,449.681671 475.216522,454.621216 
	C458.317078,476.019989 441.257202,497.291504 424.405762,518.728149 
	C416.904907,528.270020 409.239960,537.683228 401.938507,547.381165 
	C401.219208,548.336548 400.334564,549.057739 399.018250,549.843628 
	C398.040924,550.382874 397.331757,550.397888 396.267029,550.113159 
	C391.187134,542.360046 386.477509,534.722534 381.681152,527.139893 
	C380.641907,525.497009 380.422882,524.388855 381.573944,522.428650 
	C413.395630,468.236237 445.099976,413.974884 476.799408,359.710724 
	C486.778137,342.628815 496.644592,325.481049 506.708405,308.449677 
	C507.515198,307.084381 507.419098,304.256409 510.638672,304.972260 
	C510.923309,305.105560 510.974915,305.032593 510.933960,305.049255 
z"/>
<path fill="#D92020" opacity="1.000000" stroke="none" 
	d="
M397.845184,549.354370 
	C408.909821,533.509094 421.173889,519.024597 432.869568,504.099762 
	C446.936005,486.149719 461.151489,468.316345 475.328644,450.453278 
	C479.404053,445.318329 479.374146,445.408936 483.408081,450.398560 
	C500.256134,471.237885 517.203064,491.997620 533.971680,512.900452 
	C536.468140,516.012451 538.000305,515.935486 540.408630,512.932983 
	C547.906921,503.584503 555.704529,494.475159 563.151062,485.086700 
	C565.658142,481.925873 567.237549,481.295319 570.356384,484.567627 
	C584.712036,499.629761 599.318665,514.452576 613.968384,529.672363 
	C613.926025,532.888306 611.798035,534.745300 610.161743,536.725830 
	C593.998840,556.289673 578.068909,576.041199 562.232605,595.868774 
	C558.587036,600.433105 557.067810,600.467041 553.741333,595.526062 
	C543.560791,580.404175 534.167175,564.774109 524.185608,549.526367 
	C518.101501,540.232422 512.536865,530.602661 506.069946,521.555725 
	C505.284485,520.456848 504.457672,519.461487 503.130493,518.408447 
	C502.486420,518.217957 502.145020,518.227661 501.547485,518.234741 
	C494.894073,522.934631 490.762451,529.691895 485.774017,535.636108 
	C472.228607,551.776978 459.137238,568.294678 445.373352,584.260498 
	C441.482056,588.774353 437.954865,593.632202 434.144409,598.232910 
	C431.391541,601.556580 428.875854,601.441528 426.552734,597.808228 
	C416.824615,582.593750 407.605530,567.064697 398.304382,551.587280 
	C397.959595,551.013550 397.727600,550.392151 397.845184,549.354370 
z"/>
<path fill="#C63508" opacity="1.000000" stroke="none" 
	d="
M502.930695,518.527893 
	C504.970581,518.168396 506.024261,519.656982 507.118561,521.174316 
	C514.997192,532.099121 521.801819,543.715576 529.040466,555.053772 
	C537.525330,568.343933 546.230042,581.493530 554.767090,594.750732 
	C556.883301,598.036926 558.784729,598.188660 561.261414,595.118591 
	C578.676147,573.531311 596.143799,551.986694 613.848022,530.205933 
	C614.429016,530.199951 614.756592,530.416443 615.225037,530.902771 
	C610.047485,539.878906 602.949402,547.205627 596.663940,555.157410 
	C584.790283,570.178711 572.601868,584.950989 560.672058,599.928528 
	C558.253967,602.964417 556.908386,603.264160 554.642212,599.687561 
	C537.531494,572.682495 520.256958,545.781250 502.930695,518.527893 
z"/>
<path fill="#C63508" opacity="1.000000" stroke="none" 
	d="
M397.676086,549.080444 
	C405.677002,561.767761 413.382751,574.545227 421.153778,587.282959 
	C422.879822,590.112183 424.790802,592.832703 426.697113,595.546814 
	C429.566345,599.631958 431.181335,599.811218 434.378021,596.046143 
	C439.637054,589.851990 444.707458,583.497925 449.882385,577.231995 
	C465.079529,558.830994 480.269836,540.424255 495.526764,522.072876 
	C496.869629,520.457642 498.235962,518.638184 500.936523,518.234253 
	C492.554565,530.384583 482.484131,541.460876 473.089294,553.082031 
	C460.341644,568.850403 447.300629,584.382080 434.346191,599.982666 
	C429.965881,605.257751 429.644073,605.282532 426.098236,599.543030 
	C416.052551,583.282654 406.119324,566.952881 396.034851,550.314148 
	C396.420044,549.704041 396.912231,549.430176 397.676086,549.080444 
z"/>
<path fill="#CF2222" opacity="1.000000" stroke="none" 
	d="
M510.774902,392.584290 
	C522.361877,391.523315 530.757141,396.415955 534.711731,406.218628 
	C538.257751,415.008240 535.718689,424.798492 528.267944,431.064728 
	C521.144592,437.055603 510.549408,437.748779 502.684357,432.437439 
	C494.696381,427.043182 491.776459,419.239624 493.128510,409.881226 
	C494.368103,401.301392 500.993561,394.867493 510.774902,392.584290 
z"/>
</svg>