<svg version="1.1" id="Layer_1" xmlns="http://www.w3.org/2000/svg" xmlns:xlink="http://www.w3.org/1999/xlink" x="0px" y="0px"
	 width="100%" viewBox="0 0 1024 1024" enable-background="new 0 0 1024 1024" xml:space="preserve">
<path fill="#000000" opacity="1.000000" stroke="none" 
	d="
M673.000000,1025.000000 
	C448.666656,1025.000000 224.833328,1025.000000 1.000000,1025.000000 
	C1.000000,683.666687 1.000000,342.333344 1.000000,1.000000 
	C342.333344,1.000000 683.666687,1.000000 1025.000000,1.000000 
	C1025.000000,342.333344 1025.000000,683.666687 1025.000000,1025.000000 
	C907.833313,1025.000000 790.666687,1025.000000 673.000000,1025.000000 
M497.277649,368.187042 
	C494.832153,372.105743 492.386627,376.024445 489.285400,380.199036 
	C488.451111,381.360107 487.562653,382.486389 486.791351,383.687897 
	C481.822784,391.427765 476.879852,399.184082 471.306396,407.158173 
	C470.847656,408.083069 470.388885,409.007935 469.278442,410.185181 
	C463.643402,416.441284 463.809601,417.345581 466.878052,424.838593 
	C470.262482,433.103027 473.135010,441.592896 475.857666,450.103851 
	C476.789398,453.016357 478.219208,454.107239 481.073273,454.082458 
	C491.696716,453.990234 502.320709,453.967773 513.889343,454.009827 
	C523.991516,454.016388 534.093994,454.061005 544.195496,453.981903 
	C545.475464,453.971863 546.750305,453.313507 548.589600,452.522736 
	C551.074097,445.229431 552.641663,437.438538 556.264404,430.762939 
	C561.322571,421.442261 559.495789,414.157623 553.758362,406.008484 
	C542.044983,389.371704 531.123718,372.178802 519.718201,355.321838 
	C518.244751,353.144043 515.833862,351.600433 514.326172,349.315674 
	C513.767273,348.327881 513.208435,347.340088 511.930878,345.082062 
	C508.910492,350.325439 506.426727,354.637177 503.290192,359.188263 
	C501.503510,362.103027 499.716858,365.017822 497.277649,368.187042 
M651.980530,463.029633 
	C651.980530,463.029633 652.062866,463.035553 651.646362,462.258087 
	C649.991089,462.169586 648.335815,462.004639 646.680542,462.004150 
	C624.525208,461.997559 602.369873,462.012756 580.214539,462.024780 
	C512.067444,462.061768 443.920380,462.097351 375.773346,462.174500 
	C375.162933,462.175201 374.553162,462.737030 374.022125,463.025421 
	C374.022125,463.025421 374.021149,462.945587 373.282349,463.405182 
	C373.202087,482.954376 373.111786,502.503601 373.083313,522.052856 
	C373.082306,522.736816 373.696503,523.421692 374.085571,524.776917 
	C374.512939,525.253357 374.881897,525.803650 375.376648,526.194824 
	C380.341492,530.120239 385.593964,533.729553 390.236328,538.002747 
	C395.550964,542.894653 400.303162,548.395020 405.371368,553.560669 
	C406.030731,554.232727 407.204651,554.368958 407.987701,554.956726 
	C409.968414,556.443237 412.556976,557.657349 413.678467,559.664307 
	C421.037689,572.834106 428.275909,586.082275 435.086853,599.541016 
	C437.071411,603.462585 438.011902,608.092102 438.586365,612.506958 
	C439.517303,619.660889 439.438568,626.946472 440.376617,634.098999 
	C441.128845,639.834412 442.870331,645.433899 443.928802,651.138977 
	C444.251190,652.876648 443.563416,654.777710 443.681519,656.581482 
	C444.152374,663.774048 444.594360,670.975525 445.375092,678.138000 
	C445.859589,682.582886 447.203766,686.935242 447.667267,691.380737 
	C448.126953,695.789368 447.799500,700.274353 448.110107,704.705322 
	C448.895813,715.913147 452.354950,726.795288 452.134735,738.152039 
	C452.071716,741.402344 452.734924,744.680725 453.214600,747.924133 
	C453.869629,752.353577 454.685638,756.758972 455.398102,761.180237 
	C455.884460,764.198303 456.504242,767.211792 456.727234,770.252075 
	C457.264984,777.583740 456.665405,785.144043 458.276062,792.213013 
	C460.059418,800.039917 460.183075,807.873596 461.069000,815.706604 
	C461.869385,822.783447 463.511993,829.761292 464.618011,836.808716 
	C465.200897,840.522583 465.526215,844.284912 465.799713,848.037598 
	C466.333588,855.362610 466.611694,862.708435 467.266296,870.021423 
	C467.648621,874.292175 468.749329,878.496765 469.173706,882.766174 
	C469.661224,887.670959 469.487854,892.652771 470.176239,897.519836 
	C470.407837,899.157471 472.130554,900.941772 473.641510,901.966064 
	C476.730316,904.059998 480.262146,905.493530 483.390045,907.537964 
	C492.549835,913.524658 501.565979,919.731384 510.743713,925.689758 
	C511.763092,926.351501 513.825562,926.562073 514.782288,925.972473 
	C520.041565,922.731628 525.165649,919.259277 530.213562,915.692810 
	C532.595520,914.009827 534.479431,911.542480 536.982849,910.127258 
	C542.244629,907.152710 547.973572,904.972656 553.097534,901.799316 
	C555.794922,900.128662 557.736450,897.187317 555.582153,893.378174 
	C555.078979,892.488525 555.568176,890.905273 555.881165,889.714844 
	C556.464722,887.495178 557.376221,885.360107 557.932861,883.135193 
	C559.186218,878.125183 554.389709,872.376770 559.757690,867.791870 
	C559.913940,867.658447 559.120667,866.661926 559.139893,866.080078 
	C559.292175,861.480713 559.531799,856.884155 559.765259,852.287842 
	C559.770508,852.185242 560.099854,852.123108 560.145569,851.994934 
	C560.775635,850.225464 561.857666,848.457092 561.893555,846.669800 
	C561.962646,843.227173 560.966492,839.729431 561.278015,836.333984 
	C561.660339,832.166443 563.042053,828.100220 563.778015,823.952271 
	C564.332642,820.825745 564.506958,817.633789 564.929199,814.481445 
	C565.536499,809.947571 566.198425,805.420715 566.877014,800.896912 
	C567.022888,799.924500 567.869446,798.563232 567.494446,798.083252 
	C563.724304,793.257629 569.346069,789.170898 568.399292,784.283447 
	C567.602661,780.170532 569.419189,775.585938 569.861816,771.188232 
	C570.251587,767.315552 570.157166,763.391052 570.609863,759.528503 
	C571.150330,754.916443 572.249451,750.367126 572.727905,745.751404 
	C573.179321,741.395874 572.850098,736.952759 573.400146,732.616150 
	C573.909058,728.604126 575.545532,724.722107 575.929016,720.710510 
	C576.413574,715.641174 575.825562,710.472778 576.251221,705.393311 
	C576.930054,697.291016 578.024353,689.221985 579.022217,681.148682 
	C579.467468,677.546509 579.983704,673.943848 580.692871,670.386353 
	C581.292297,667.379517 582.525330,664.479126 582.932983,661.458130 
	C583.790588,655.103271 584.324402,648.703186 584.923828,642.315369 
	C585.258850,638.744690 585.442139,635.159973 585.724365,631.584045 
	C586.050049,627.457214 586.304993,623.320923 586.781433,619.210876 
	C587.340210,614.389954 588.088013,609.590393 588.789673,604.786865 
	C588.987854,603.430054 589.007080,601.929688 589.624146,600.769531 
	C596.768311,587.336609 604.025269,573.963806 611.217834,560.556519 
	C612.800781,557.605896 613.460571,553.704712 618.409668,554.811035 
	C619.058044,554.955994 620.067810,553.546509 620.890686,552.834412 
	C622.049683,551.831299 623.190552,550.807251 624.338928,549.791870 
	C627.430725,547.058105 630.576904,544.382263 633.583740,541.557922 
	C634.594604,540.608337 635.047485,539.032166 636.103882,538.168884 
	C641.085022,534.098450 646.212585,530.207397 651.209412,526.155457 
	C651.745056,525.721069 651.770630,524.657715 652.769897,523.472595 
	C652.849731,503.963898 652.939880,484.455231 652.965576,464.946472 
	C652.966431,464.280487 652.320068,463.613678 651.980530,463.029633 
M575.061157,453.997375 
	C584.001770,453.998383 592.942749,454.037659 601.882507,453.951630 
	C602.989380,453.940979 604.089844,453.263672 605.777649,452.575195 
	C611.338440,448.358643 616.977173,444.239868 622.434082,439.892914 
	C626.391235,436.740692 631.158691,433.947723 633.740173,429.846130 
	C642.562866,415.828644 650.613098,401.323181 658.880005,386.959015 
	C660.983154,383.304840 662.797913,379.484680 664.745178,375.740814 
	C664.333740,375.290649 663.922363,374.840485 663.510925,374.390320 
	C652.198792,380.292633 640.886658,386.194916 629.574524,392.097229 
	C630.317627,389.227722 631.769043,387.206024 633.292786,385.240387 
	C637.205933,380.192444 641.151123,375.169373 645.874084,369.726135 
	C645.934998,357.834595 646.011536,345.943024 646.016418,334.051453 
	C646.016663,333.367767 645.432739,332.683777 644.918701,331.250732 
	C642.591614,325.551941 640.249512,319.859161 637.940308,314.153168 
	C631.939697,299.325348 626.045227,284.453735 619.922729,269.676514 
	C616.861938,262.289032 613.395508,255.069626 609.451721,246.305984 
	C602.239136,268.274994 595.466309,288.904602 588.201355,311.033051 
	C587.582825,307.778412 586.975403,305.975830 586.942749,304.162842 
	C586.819885,297.332794 587.095154,290.489502 586.777100,283.671906 
	C586.644470,280.828278 586.004639,277.671234 584.562927,275.278961 
	C572.812744,255.781693 560.746460,236.475082 548.956421,217.001465 
	C546.513733,212.966934 544.502075,208.675919 546.823303,203.545715 
	C548.074463,200.780457 548.341980,197.557892 548.968140,194.524078 
	C552.906372,175.443909 556.847595,156.364273 560.729736,137.272659 
	C562.313538,129.483719 563.752258,121.665260 565.363892,113.305626 
	C563.670410,113.935951 562.637024,114.092674 561.883423,114.636887 
	C555.589294,119.182510 549.352783,123.807701 543.087463,128.393326 
	C519.484314,145.668762 495.841797,162.890976 472.335388,180.297028 
	C470.391571,181.736404 468.890961,184.222504 467.983856,186.535736 
	C464.163818,196.276855 460.664948,206.143555 457.015350,215.951950 
	C452.055359,229.282257 447.368408,242.724792 442.006866,255.892227 
	C436.017700,270.601105 430.687134,285.332001 432.030457,301.599426 
	C432.147705,303.019257 431.816498,304.476166 431.693634,305.915833 
	C431.301544,305.903778 430.909454,305.891693 430.517365,305.879639 
	C423.898132,283.726166 417.278931,261.572662 410.500671,238.886917 
	C407.560577,244.018051 404.790741,248.566330 402.295746,253.260651 
	C395.255280,266.507263 388.372589,279.837769 381.336548,293.086792 
	C377.829285,299.691010 375.571930,306.338654 375.946411,314.140778 
	C376.552948,326.776367 376.396149,339.470459 376.013824,352.123322 
	C375.787384,359.617950 376.491974,366.464691 381.960785,372.154114 
	C383.625977,373.886536 384.972595,375.936310 386.384674,377.898590 
	C389.594299,382.358948 392.753967,386.855194 395.933960,391.336853 
	C395.656250,391.573090 395.378571,391.809357 395.100861,392.045624 
	C384.109833,386.266510 373.118805,380.487427 362.127777,374.708313 
	C361.797577,375.096954 361.467377,375.485596 361.137146,375.874268 
	C361.503784,377.011963 361.694244,378.247559 362.263641,379.272644 
	C370.123749,393.423859 378.013550,407.558716 385.952301,421.665985 
	C387.775757,424.906372 389.194305,428.729065 391.862244,431.074585 
	C400.490784,438.660400 409.614197,445.683258 419.045746,453.725861 
	C429.648499,453.768158 440.251251,453.810425 451.798431,453.981812 
	C456.126862,453.979950 460.455322,453.991028 464.783661,453.971405 
	C467.359772,453.959686 468.509186,452.827118 467.615295,450.195038 
	C464.392090,440.704071 461.776794,430.941010 457.703156,421.830078 
	C455.399414,416.677612 456.555542,413.280029 459.206940,409.278748 
	C476.069977,383.830292 492.906982,358.364288 509.639801,332.830231 
	C511.760651,329.593842 512.921631,329.188812 515.255310,332.713684 
	C532.666199,359.011322 550.250122,385.194336 567.721497,411.452057 
	C569.428955,414.018158 569.839417,416.662628 568.652649,419.938416 
	C565.139465,429.635834 562.379333,439.607544 558.813782,449.283691 
	C557.299988,453.391876 558.819031,454.021423 562.183167,453.984802 
	C566.176514,453.941315 570.169800,453.902710 575.061157,453.997375 
z"/>
<path fill="#D4221F" opacity="1.000000" stroke="none" 
	d="
M645.083496,370.136353 
	C641.151123,375.169373 637.205933,380.192444 633.292786,385.240387 
	C631.769043,387.206024 630.317627,389.227722 629.574524,392.097229 
	C640.886658,386.194916 652.198792,380.292633 663.510925,374.390320 
	C663.922363,374.840485 664.333740,375.290649 664.745178,375.740814 
	C662.797913,379.484680 660.983154,383.304840 658.880005,386.959015 
	C650.613098,401.323181 642.562866,415.828644 633.740173,429.846130 
	C631.158691,433.947723 626.391235,436.740692 622.434082,439.892914 
	C616.977173,444.239868 611.338440,448.358643 605.003296,452.704865 
	C594.567566,452.846130 584.906189,452.857727 575.351318,452.572815 
	C584.765686,442.749115 594.156799,433.300629 603.306274,423.623688 
	C604.995850,421.836761 606.567383,419.186249 606.731628,416.832336 
	C607.722168,402.635956 608.258545,388.408386 609.003662,374.194214 
	C609.591919,362.970703 610.411316,351.757172 610.842285,340.528259 
	C611.124084,333.183868 610.895447,325.819885 610.895447,317.968414 
	C598.261230,329.949188 585.793640,341.771851 572.948303,353.952789 
	C571.665771,351.961426 570.815247,350.775726 570.102417,349.512268 
	C565.034790,340.529938 560.001282,331.528381 554.945740,322.539276 
	C541.817932,299.197174 528.641663,275.882111 515.618469,252.481857 
	C514.299622,250.112198 512.993774,247.156250 513.221863,244.610352 
	C513.990662,236.027954 515.517395,227.516022 516.633118,218.961365 
	C517.543030,211.985291 518.279419,204.986588 519.092834,197.997940 
	C518.707275,197.837997 518.321716,197.678055 517.936157,197.518112 
	C511.924835,205.984634 505.913513,214.451141 499.611389,223.078613 
	C492.987946,231.577209 486.604645,239.877350 480.371979,248.289124 
	C479.323822,249.703781 478.708313,251.544846 478.261810,253.283630 
	C470.953857,281.742188 463.709015,310.216980 456.437408,338.684875 
	C455.724213,341.477051 454.928558,344.248108 454.046173,347.488007 
	C452.396362,346.435730 451.428406,345.852203 450.495026,345.217834 
	C441.023743,338.780731 431.558075,332.335297 421.921997,325.605347 
	C418.093872,322.641846 414.434601,319.965149 409.652191,316.466919 
	C410.529572,325.649536 411.335144,333.229065 411.964569,340.823181 
	C414.076874,366.308258 416.106384,391.800201 418.255249,417.282135 
	C418.370911,418.653625 418.953186,420.284424 419.886353,421.239288 
	C425.463928,426.946503 431.208374,432.490692 436.987701,438.413696 
	C441.404938,443.481995 445.731293,448.226135 449.584473,453.006561 
	C438.923157,453.002899 428.735046,452.962982 418.546936,452.923035 
	C409.614197,445.683258 400.490784,438.660400 391.862244,431.074585 
	C389.194305,428.729065 387.775757,424.906372 385.952301,421.665985 
	C378.013550,407.558716 370.123749,393.423859 362.263641,379.272644 
	C361.694244,378.247559 361.503784,377.011963 361.137146,375.874268 
	C361.467377,375.485596 361.797577,375.096954 362.127777,374.708313 
	C373.118805,380.487427 384.109833,386.266510 395.100861,392.045624 
	C395.378571,391.809357 395.656250,391.573090 395.933960,391.336853 
	C392.753967,386.855194 389.594299,382.358948 386.384674,377.898590 
	C384.972595,375.936310 383.625977,373.886536 381.960785,372.154114 
	C376.491974,366.464691 375.787384,359.617950 376.013824,352.123322 
	C376.396149,339.470459 376.552948,326.776367 375.946411,314.140778 
	C375.571930,306.338654 377.829285,299.691010 381.336548,293.086792 
	C388.372589,279.837769 395.255280,266.507263 402.295746,253.260651 
	C404.790741,248.566330 407.560577,244.018051 410.500671,238.886917 
	C417.278931,261.572662 423.898132,283.726166 430.517365,305.879639 
	C430.909454,305.891693 431.301544,305.903778 431.693634,305.915833 
	C431.816498,304.476166 432.147705,303.019257 432.030457,301.599426 
	C430.687134,285.332001 436.017700,270.601105 442.006866,255.892227 
	C447.368408,242.724792 452.055359,229.282257 457.015350,215.951950 
	C460.664948,206.143555 464.163818,196.276855 467.983856,186.535736 
	C468.890961,184.222504 470.391571,181.736404 472.335388,180.297028 
	C495.841797,162.890976 519.484314,145.668762 543.087463,128.393326 
	C549.352783,123.807701 555.589294,119.182510 561.883423,114.636887 
	C562.637024,114.092674 563.670410,113.935951 565.363892,113.305626 
	C563.752258,121.665260 562.313538,129.483719 560.729736,137.272659 
	C556.847595,156.364273 552.906372,175.443909 548.968140,194.524078 
	C548.341980,197.557892 548.074463,200.780457 546.823303,203.545715 
	C544.502075,208.675919 546.513733,212.966934 548.956421,217.001465 
	C560.746460,236.475082 572.812744,255.781693 584.562927,275.278961 
	C586.004639,277.671234 586.644470,280.828278 586.777100,283.671906 
	C587.095154,290.489502 586.819885,297.332794 586.942749,304.162842 
	C586.975403,305.975830 587.582825,307.778412 588.201355,311.033051 
	C595.466309,288.904602 602.239136,268.274994 609.451721,246.305984 
	C613.395508,255.069626 616.861938,262.289032 619.922729,269.676514 
	C626.045227,284.453735 631.939697,299.325348 637.940308,314.153168 
	C640.249512,319.859161 642.591614,325.551941 644.974487,332.092438 
	C645.048035,345.334869 645.065735,357.735626 645.083496,370.136353 
z"/>
<path fill="#0A0A09" opacity="1.000000" stroke="none" 
	d="
M652.032837,523.886108 
	C651.770630,524.657715 651.745056,525.721069 651.209412,526.155457 
	C646.212585,530.207397 641.085022,534.098450 636.103882,538.168884 
	C635.047485,539.032166 634.594604,540.608337 633.583740,541.557922 
	C630.576904,544.382263 627.430725,547.058105 624.338928,549.791870 
	C623.190552,550.807251 622.049683,551.831299 620.890686,552.834412 
	C620.067810,553.546509 619.058044,554.955994 618.409668,554.811035 
	C613.460571,553.704712 612.800781,557.605896 611.217834,560.556519 
	C604.025269,573.963806 596.768311,587.336609 589.624146,600.769531 
	C589.007080,601.929688 588.987854,603.430054 588.789673,604.786865 
	C588.088013,609.590393 587.340210,614.389954 586.781433,619.210876 
	C586.304993,623.320923 586.050049,627.457214 585.724365,631.584045 
	C585.442139,635.159973 585.258850,638.744690 584.923828,642.315369 
	C584.324402,648.703186 583.790588,655.103271 582.932983,661.458130 
	C582.525330,664.479126 581.292297,667.379517 580.692871,670.386353 
	C579.983704,673.943848 579.467468,677.546509 579.022217,681.148682 
	C578.024353,689.221985 576.930054,697.291016 576.251221,705.393311 
	C575.825562,710.472778 576.413574,715.641174 575.929016,720.710510 
	C575.545532,724.722107 573.909058,728.604126 573.400146,732.616150 
	C572.850098,736.952759 573.179321,741.395874 572.727905,745.751404 
	C572.249451,750.367126 571.150330,754.916443 570.609863,759.528503 
	C570.157166,763.391052 570.251587,767.315552 569.861816,771.188232 
	C569.419189,775.585938 567.602661,780.170532 568.399292,784.283447 
	C569.346069,789.170898 563.724304,793.257629 567.494446,798.083252 
	C567.869446,798.563232 567.022888,799.924500 566.877014,800.896912 
	C566.198425,805.420715 565.536499,809.947571 564.929199,814.481445 
	C564.506958,817.633789 564.332642,820.825745 563.778015,823.952271 
	C563.042053,828.100220 561.660339,832.166443 561.278015,836.333984 
	C560.966492,839.729431 561.962646,843.227173 561.893555,846.669800 
	C561.857666,848.457092 560.775635,850.225464 560.145569,851.994934 
	C560.099854,852.123108 559.770508,852.185242 559.765259,852.287842 
	C559.531799,856.884155 559.292175,861.480713 559.139893,866.080078 
	C559.120667,866.661926 559.913940,867.658447 559.757690,867.791870 
	C554.389709,872.376770 559.186218,878.125183 557.932861,883.135193 
	C557.376221,885.360107 556.464722,887.495178 555.881165,889.714844 
	C555.568176,890.905273 555.078979,892.488525 555.582153,893.378174 
	C557.736450,897.187317 555.794922,900.128662 553.097534,901.799316 
	C547.973572,904.972656 542.244629,907.152710 536.982849,910.127258 
	C534.479431,911.542480 532.595520,914.009827 530.213562,915.692810 
	C525.165649,919.259277 520.041565,922.731628 514.782288,925.972473 
	C513.825562,926.562073 511.763092,926.351501 510.743713,925.689758 
	C501.565979,919.731384 492.549835,913.524658 483.390045,907.537964 
	C480.262146,905.493530 476.730316,904.059998 473.641510,901.966064 
	C472.130554,900.941772 470.407837,899.157471 470.176239,897.519836 
	C469.487854,892.652771 469.661224,887.670959 469.173706,882.766174 
	C468.749329,878.496765 467.648621,874.292175 467.266296,870.021423 
	C466.611694,862.708435 466.333588,855.362610 465.799713,848.037598 
	C465.526215,844.284912 465.200897,840.522583 464.618011,836.808716 
	C463.511993,829.761292 461.869385,822.783447 461.069000,815.706604 
	C460.183075,807.873596 460.059418,800.039917 458.276062,792.213013 
	C456.665405,785.144043 457.264984,777.583740 456.727234,770.252075 
	C456.504242,767.211792 455.884460,764.198303 455.398102,761.180237 
	C454.685638,756.758972 453.869629,752.353577 453.214600,747.924133 
	C452.734924,744.680725 452.071716,741.402344 452.134735,738.152039 
	C452.354950,726.795288 448.895813,715.913147 448.110107,704.705322 
	C447.799500,700.274353 448.126953,695.789368 447.667267,691.380737 
	C447.203766,686.935242 445.859589,682.582886 445.375092,678.138000 
	C444.594360,670.975525 444.152374,663.774048 443.681519,656.581482 
	C443.563416,654.777710 444.251190,652.876648 443.928802,651.138977 
	C442.870331,645.433899 441.128845,639.834412 440.376617,634.098999 
	C439.438568,626.946472 439.517303,619.660889 438.586365,612.506958 
	C438.011902,608.092102 437.071411,603.462585 435.086853,599.541016 
	C428.275909,586.082275 421.037689,572.834106 413.678467,559.664307 
	C412.556976,557.657349 409.968414,556.443237 407.987701,554.956726 
	C407.204651,554.368958 406.030731,554.232727 405.371368,553.560669 
	C400.303162,548.395020 395.550964,542.894653 390.236328,538.002747 
	C385.593964,533.729553 380.341492,530.120239 375.376648,526.194824 
	C374.881897,525.803650 374.512939,525.253357 374.028900,523.964294 
	C373.988525,503.082977 374.004822,483.014282 374.021118,462.945587 
	C374.021149,462.945587 374.022125,463.025421 374.456787,463.020569 
	C378.710602,463.005005 382.529755,462.984406 386.348877,462.985077 
	C474.920197,463.000488 563.491516,463.018219 652.062866,463.035553 
	C652.062866,463.035553 651.980530,463.029633 651.989014,463.460510 
	C652.009216,483.889648 652.020996,503.887878 652.032837,523.886108 
M633.023193,481.960907 
	C633.023193,481.960907 633.018066,482.034546 632.638062,481.251953 
	C609.526062,481.182587 586.414062,481.069122 563.302002,481.052673 
	C507.910095,481.013306 452.518188,481.011322 397.126312,481.055145 
	C395.754059,481.056244 394.382385,481.767853 392.999237,482.987396 
	C393.006256,493.547791 392.925232,504.109863 393.125092,514.666565 
	C393.151855,516.079895 394.334717,517.734619 395.435516,518.816223 
	C399.149323,522.465332 403.013550,525.968018 406.928101,529.403748 
	C409.201752,531.399231 411.681702,533.159729 414.362793,535.851135 
	C414.858398,535.901123 415.353973,535.994934 415.849579,535.994995 
	C480.104889,536.002197 544.360168,536.007690 608.615479,535.961304 
	C609.746094,535.960510 610.876343,535.332825 612.775879,534.974426 
	C614.591980,533.404785 616.471558,531.902100 618.212097,530.252686 
	C623.163269,525.560669 628.057739,520.808777 633.799316,515.741272 
	C633.880981,505.109680 633.981689,494.478149 633.997070,483.846436 
	C633.997986,483.212433 633.315918,482.577423 633.023193,481.960907 
M491.735931,890.255920 
	C492.043793,890.445801 492.351654,890.635742 492.659515,890.825623 
	C492.487610,890.518921 492.315704,890.212219 492.264343,889.182800 
	C493.278168,887.354919 493.324554,884.049683 496.864716,885.964661 
	C498.333374,886.759155 499.637085,887.858643 501.015808,888.819397 
	C499.276093,890.292480 497.536346,891.765503 495.805786,893.230774 
	C500.226562,896.075500 505.319733,899.127563 510.154419,902.545227 
	C513.229126,904.718689 515.173035,903.964844 517.561035,900.765320 
	C520.719360,899.094727 524.413879,897.990417 526.913086,895.623962 
	C530.889038,891.859070 538.093628,891.276794 538.705933,884.166077 
	C538.854980,882.435425 538.268860,880.609253 538.580688,878.931030 
	C539.411987,874.458313 540.548157,870.042297 541.748718,864.792358 
	C522.442749,864.792358 503.438782,864.792358 484.138214,864.792358 
	C485.115753,867.875061 486.061371,870.857178 486.319519,874.208069 
	C486.841553,878.114685 487.002106,882.122803 488.057129,885.879761 
	C488.502106,887.464478 490.832733,888.519714 491.735931,890.255920 
M434.030823,556.125610 
	C434.154083,556.936768 434.079529,557.847717 434.430878,558.543762 
	C438.458740,566.523193 442.275513,574.629089 446.737885,582.361206 
	C449.129669,586.505493 452.140686,589.556702 458.367889,589.250000 
	C473.715607,588.494080 489.125610,589.004395 504.510590,589.004700 
	C528.216736,589.005188 551.922852,589.004883 575.543945,589.004883 
	C580.993042,578.401245 586.508362,567.668579 592.732544,556.582031 
	C593.410400,552.273621 589.982056,554.122620 588.501526,554.119141 
	C538.111267,554.002319 487.720673,554.015015 437.330139,554.017639 
	C436.170288,554.017700 435.010437,554.115967 433.850616,554.168396 
	C433.904999,554.581116 433.959381,554.993774 434.030823,556.125610 
M542.969727,844.319824 
	C544.314453,833.323059 545.711304,822.332336 546.984863,811.327332 
	C547.783508,804.426270 548.217896,797.479248 549.159363,790.599915 
	C549.745605,786.315857 551.357544,782.161194 551.822449,777.873962 
	C552.528137,771.367371 552.512695,764.785706 553.062073,758.257568 
	C553.275208,755.724670 554.486755,753.278320 554.722168,750.744141 
	C555.111511,746.551453 554.813049,742.289062 555.293274,738.112244 
	C555.841858,733.340881 557.197937,728.659485 557.696838,723.886169 
	C558.169067,719.367554 557.711914,714.753906 558.151428,710.229370 
	C558.900574,702.518005 559.951172,694.832092 561.053528,687.161133 
	C561.367920,684.973145 562.697571,682.903931 562.862732,680.727173 
	C563.193420,676.369202 562.816528,671.957581 563.145447,667.599304 
	C563.566101,662.025574 564.362488,656.478699 565.058594,650.927979 
	C565.597412,646.631592 566.124939,642.328857 566.858582,638.063599 
	C567.374939,635.061890 569.106628,632.008972 568.753296,629.170959 
	C567.965942,622.845947 569.356689,617.002136 570.902832,611.059937 
	C571.052856,610.483337 570.260925,609.661621 569.825928,608.141907 
	C568.662292,607.765869 567.499146,607.062805 566.335022,607.061218 
	C530.887634,607.013489 495.440155,607.015259 459.993042,607.123718 
	C458.715240,607.127625 457.440979,608.287964 455.568085,609.380127 
	C455.890747,613.075623 456.128510,616.781067 456.557617,620.464172 
	C457.093384,625.062561 457.882385,629.632263 458.382599,634.233765 
	C458.805145,638.121338 457.910889,642.527954 459.448517,645.848694 
	C464.279510,656.281799 462.306061,667.227722 462.936401,677.955566 
	C463.185760,682.199463 466.885345,686.108459 464.153839,690.608582 
	C464.094208,690.706787 464.176147,690.975525 464.278900,691.075500 
	C468.726440,695.405029 467.594452,701.137024 467.916534,706.396057 
	C468.265717,712.098145 467.975159,717.838074 468.025940,723.560974 
	C468.034515,724.526611 468.056488,725.719238 468.586670,726.415039 
	C471.290527,729.963196 467.094299,735.349670 471.793152,738.347900 
	C471.854736,738.387207 471.182068,739.399231 471.024963,740.002319 
	C470.805420,740.844849 470.523956,741.766479 470.658173,742.590881 
	C471.731171,749.181580 473.264374,755.720032 473.935791,762.347473 
	C474.706268,769.953186 474.295258,777.688049 475.224487,785.265381 
	C476.029388,791.828918 477.995941,798.249329 479.433014,804.736511 
	C479.608704,805.529663 480.091003,806.700012 479.745148,807.095276 
	C475.954132,811.428589 480.715851,815.799438 479.539429,820.548584 
	C478.369720,825.270630 480.502014,830.815552 481.222809,835.994507 
	C481.308228,836.608093 481.642761,837.183838 481.829620,837.787109 
	C482.562958,840.155029 483.283386,842.526978 483.772888,845.487793 
	C484.372284,845.656189 484.971588,845.971191 485.571075,845.971558 
	C503.593536,845.983215 521.616089,845.977295 539.638367,845.916260 
	C540.727234,845.912537 541.814514,845.430908 542.969727,844.319824 
z"/>
<path fill="#D4221F" opacity="1.000000" stroke="none" 
	d="
M513.857300,349.763062 
	C515.833862,351.600433 518.244751,353.144043 519.718201,355.321838 
	C531.123718,372.178802 542.044983,389.371704 553.758362,406.008484 
	C559.495789,414.157623 561.322571,421.442261 556.264404,430.762939 
	C552.641663,437.438538 551.074097,445.229431 547.838379,452.736023 
	C535.752380,452.954498 524.417664,452.959656 513.007080,452.503510 
	C512.899231,419.298676 512.854980,386.555115 512.878601,353.811615 
	C512.879578,352.461884 513.516602,351.112579 513.857300,349.763062 
z"/>
<path fill="#F2B53D" opacity="1.000000" stroke="none" 
	d="
M499.902191,222.917664 
	C505.913513,214.451141 511.924835,205.984634 517.936157,197.518112 
	C518.321716,197.678055 518.707275,197.837997 519.092834,197.997940 
	C518.279419,204.986588 517.543030,211.985291 516.633118,218.961365 
	C515.517395,227.516022 513.990662,236.027954 513.221863,244.610352 
	C512.993774,247.156250 514.299622,250.112198 515.618469,252.481857 
	C528.641663,275.882111 541.817932,299.197174 554.945740,322.539276 
	C560.001282,331.528381 565.034790,340.529938 570.102417,349.512268 
	C570.815247,350.775726 571.665771,351.961426 572.948303,353.952789 
	C585.793640,341.771851 598.261230,329.949188 610.895447,317.968414 
	C610.895447,325.819885 611.124084,333.183868 610.842285,340.528259 
	C610.411316,351.757172 609.591919,362.970703 609.003662,374.194214 
	C608.258545,388.408386 607.722168,402.635956 606.731628,416.832336 
	C606.567383,419.186249 604.995850,421.836761 603.306274,423.623688 
	C594.156799,433.300629 584.765686,442.749115 575.126343,452.691833 
	C574.584290,453.358887 574.373718,453.610443 574.163147,453.862000 
	C570.169800,453.902710 566.176514,453.941315 562.183167,453.984802 
	C558.819031,454.021423 557.299988,453.391876 558.813782,449.283691 
	C562.379333,439.607544 565.139465,429.635834 568.652649,419.938416 
	C569.839417,416.662628 569.428955,414.018158 567.721497,411.452057 
	C550.250122,385.194336 532.666199,359.011322 515.255310,332.713684 
	C512.921631,329.188812 511.760651,329.593842 509.639801,332.830231 
	C492.906982,358.364288 476.069977,383.830292 459.206940,409.278748 
	C456.555542,413.280029 455.399414,416.677612 457.703156,421.830078 
	C461.776794,430.941010 464.392090,440.704071 467.615295,450.195038 
	C468.509186,452.827118 467.359772,453.959686 464.783661,453.971405 
	C460.455322,453.991028 456.126862,453.979950 451.246155,453.730194 
	C450.508850,453.275299 450.296783,453.105865 450.057648,452.970276 
	C445.731293,448.226135 441.404938,443.481995 437.030457,438.375763 
	C436.982330,438.013702 437.066498,437.936493 437.408630,437.991394 
	C440.947632,440.655273 444.538849,442.912140 447.253357,445.951904 
	C451.861267,451.112122 457.403534,451.428497 464.330902,450.588226 
	C461.908905,443.640900 459.417725,437.191254 457.409424,430.594604 
	C452.695160,415.109619 449.507233,417.867432 460.440704,402.610107 
	C472.968353,385.128174 484.307587,366.793304 496.116119,348.798126 
	C499.934082,342.979919 503.265076,336.809998 507.432678,331.262085 
	C511.938110,325.264496 514.038086,325.748322 517.958374,331.891113 
	C526.780701,345.715149 535.676819,359.495514 544.772705,373.140503 
	C553.421387,386.114563 562.491516,398.809082 571.037903,411.848297 
	C572.354370,413.856781 572.701477,417.293549 572.039185,419.662170 
	C569.766479,427.789398 566.798218,435.719971 564.187256,443.755432 
	C562.207947,449.846832 564.340454,452.254700 570.542908,450.570190 
	C573.114319,449.871826 575.847656,448.524536 577.708862,446.670685 
	C586.071411,438.340820 594.216309,429.787323 602.259094,421.146423 
	C603.624573,419.679413 604.783508,417.428101 604.891113,415.475952 
	C605.758484,399.741577 606.268250,383.987885 607.060059,368.248779 
	C607.509155,359.323212 608.426270,350.420868 608.859070,341.494843 
	C609.135132,335.801147 608.910767,330.083252 608.910767,323.465912 
	C607.107239,324.786652 606.259827,325.274139 605.573425,325.930054 
	C597.158264,333.971436 588.781189,342.052734 580.353760,350.081268 
	C579.040527,351.332367 577.508423,352.351074 576.108032,353.514069 
	C572.901611,356.176941 570.710205,354.931610 568.908386,351.753784 
	C563.457886,342.140808 557.945312,332.562958 552.509277,322.941772 
	C540.696716,302.034607 528.774048,281.187286 517.223511,260.135986 
	C514.336487,254.874298 510.139984,249.826294 511.067444,243.093857 
	C512.329895,233.929901 513.690308,224.778763 514.861145,215.603302 
	C515.161011,213.253098 514.906128,210.832108 514.906128,208.443634 
	C514.472046,208.307800 514.037964,208.171982 513.603943,208.036148 
	C512.619202,209.216995 511.677307,210.436951 510.641937,211.571609 
	C507.133179,215.417007 503.591248,219.232178 500.022400,223.023193 
	C499.982819,222.987457 499.902191,222.917664 499.902191,222.917664 
z"/>
<path fill="#E8C657" opacity="1.000000" stroke="none" 
	d="
M514.091736,349.539368 
	C513.516602,351.112579 512.879578,352.461884 512.878601,353.811615 
	C512.854980,386.555115 512.899231,419.298676 512.970703,452.741699 
	C513.010193,453.441193 512.944519,453.919128 512.944519,453.919128 
	C502.320709,453.967773 491.696716,453.990234 481.073273,454.082458 
	C478.219208,454.107239 476.789398,453.016357 475.857666,450.103851 
	C473.135010,441.592896 470.262482,433.103027 466.878052,424.838593 
	C463.809601,417.345581 463.643402,416.441284 469.658447,410.109619 
	C470.038422,410.034027 470.147217,410.134705 470.100220,410.517029 
	C467.054443,415.922424 467.713196,420.890778 469.805206,426.101807 
	C472.645477,433.176636 475.220154,440.369141 477.597504,447.613281 
	C478.514923,450.408875 480.062866,451.145691 482.729034,451.112335 
	C490.725311,451.012329 498.728271,450.907959 506.718842,451.141205 
	C510.415802,451.249115 511.219696,449.709290 511.127319,446.409302 
	C510.973633,440.920654 511.226593,435.421661 511.249298,429.926788 
	C511.284851,421.336639 511.226257,412.745911 511.290436,404.156067 
	C511.361145,394.688324 511.560852,385.221558 511.637573,375.753845 
	C511.695740,368.574585 511.649078,361.394531 511.649078,352.812164 
	C508.415710,355.522858 506.271790,357.320221 504.081665,359.075317 
	C504.035522,359.033081 503.942963,358.948883 503.942993,358.948914 
	C506.426727,354.637177 508.910492,350.325439 511.930878,345.082062 
	C513.208435,347.340088 513.767273,348.327881 514.091736,349.539368 
z"/>
<path fill="#B3B3B3" opacity="1.000000" stroke="none" 
	d="
M651.854614,462.646820 
	C563.491516,463.018219 474.920197,463.000488 386.348877,462.985077 
	C382.529755,462.984406 378.710602,463.005005 374.417297,463.026306 
	C374.553162,462.737030 375.162933,462.175201 375.773346,462.174500 
	C443.920380,462.097351 512.067444,462.061768 580.214539,462.024780 
	C602.369873,462.012756 624.525208,461.997559 646.680542,462.004150 
	C648.335815,462.004639 649.991089,462.169586 651.854614,462.646820 
z"/>
<path fill="#E8C657" opacity="1.000000" stroke="none" 
	d="
M471.928467,406.934998 
	C476.879852,399.184082 481.822784,391.427765 486.791351,383.687897 
	C487.562653,382.486389 488.451111,381.360107 489.661041,380.116028 
	C490.036682,380.033020 490.132629,380.122498 490.093384,380.484009 
	C486.247375,387.420502 482.620514,394.109985 478.544800,400.513794 
	C476.929352,403.052032 474.317108,404.955902 472.101257,407.095123 
	C472.043762,407.041626 471.928436,406.934967 471.928467,406.934998 
z"/>
<path fill="#838384" opacity="1.000000" stroke="none" 
	d="
M652.401367,523.679321 
	C652.020996,503.887878 652.009216,483.889648 651.986389,463.419342 
	C652.320068,463.613678 652.966431,464.280487 652.965576,464.946472 
	C652.939880,484.455231 652.849731,503.963898 652.401367,523.679321 
z"/>
<path fill="#838384" opacity="1.000000" stroke="none" 
	d="
M373.651733,463.175385 
	C374.004822,483.014282 373.988525,503.082977 373.998108,523.628906 
	C373.696503,523.421692 373.082306,522.736816 373.083313,522.052856 
	C373.111786,502.503601 373.202087,482.954376 373.651733,463.175385 
z"/>
<path fill="#838384" opacity="1.000000" stroke="none" 
	d="
M645.478760,369.931244 
	C645.065735,357.735626 645.048035,345.334869 645.075500,332.467041 
	C645.432739,332.683777 646.016663,333.367767 646.016418,334.051453 
	C646.011536,345.943024 645.934998,357.834595 645.478760,369.931244 
z"/>
<path fill="#B3B3B3" opacity="1.000000" stroke="none" 
	d="
M513.416931,453.964478 
	C512.944519,453.919128 513.010193,453.441193 513.046509,453.203003 
	C524.417664,452.959656 535.752380,452.954498 547.557373,452.952423 
	C546.750305,453.313507 545.475464,453.971863 544.195496,453.981903 
	C534.093994,454.061005 523.991516,454.016388 513.416931,453.964478 
z"/>
<path fill="#B3B3B3" opacity="1.000000" stroke="none" 
	d="
M449.584473,453.006561 
	C450.296783,453.105865 450.508850,453.275299 450.773956,453.665649 
	C440.251251,453.810425 429.648499,453.768158 418.796326,453.324463 
	C428.735046,452.962982 438.923157,453.002899 449.584473,453.006561 
z"/>
<path fill="#B3B3B3" opacity="1.000000" stroke="none" 
	d="
M574.612183,453.929688 
	C574.373718,453.610443 574.584290,453.358887 575.019775,452.988342 
	C584.906189,452.857727 594.567566,452.846130 604.711121,452.864929 
	C604.089844,453.263672 602.989380,453.940979 601.882507,453.951630 
	C592.942749,454.037659 584.001770,453.998383 574.612183,453.929688 
z"/>
<path fill="#E8C657" opacity="1.000000" stroke="none" 
	d="
M489.988892,379.988098 
	C492.386627,376.024445 494.832153,372.105743 497.660858,368.113586 
	C498.044067,368.040161 498.158295,368.147369 498.113098,368.505646 
	C495.422821,372.616791 492.777740,376.369659 490.132629,380.122498 
	C490.132629,380.122498 490.036682,380.033020 489.988892,379.988098 
z"/>
<path fill="#E8C657" opacity="1.000000" stroke="none" 
	d="
M497.987122,367.986389 
	C499.716858,365.017822 501.503510,362.103027 503.616577,359.068573 
	C503.942963,358.948883 504.035522,359.033081 504.044067,359.437195 
	C502.087830,362.609955 500.123047,365.378662 498.158264,368.147339 
	C498.158295,368.147369 498.044067,368.040161 497.987122,367.986389 
z"/>
<path fill="#E8C657" opacity="1.000000" stroke="none" 
	d="
M469.984253,409.983429 
	C470.388885,409.007935 470.847656,408.083069 471.617432,407.046570 
	C471.928436,406.934967 472.043762,407.041626 472.058807,407.426239 
	C471.431641,408.585480 470.789429,409.360107 470.147217,410.134705 
	C470.147217,410.134705 470.038422,410.034027 469.984253,409.983429 
z"/>
<path fill="#F2B53D" opacity="1.000000" stroke="none" 
	d="
M422.090851,325.892212 
	C431.558075,332.335297 441.023743,338.780731 450.495026,345.217834 
	C451.428406,345.852203 452.396362,346.435730 454.046173,347.488007 
	C454.928558,344.248108 455.724213,341.477051 456.437408,338.684875 
	C463.709015,310.216980 470.953857,281.742188 478.261810,253.283630 
	C478.708313,251.544846 479.323822,249.703781 480.371979,248.289124 
	C486.604645,239.877350 492.987946,231.577209 499.611389,223.078613 
	C499.902191,222.917664 499.982819,222.987457 499.999451,223.385132 
	C496.283630,229.408813 492.599792,235.067902 488.802582,240.649841 
	C486.014862,244.747772 481.849731,248.361221 480.446045,252.860565 
	C476.704285,264.854340 474.121307,277.209717 471.079132,289.421692 
	C466.554688,307.583832 462.098755,325.763397 457.466888,343.898102 
	C456.068970,349.371368 454.095398,350.186340 449.270782,347.012268 
	C442.488495,342.550293 435.930084,337.735077 429.422699,332.874390 
	C426.733276,330.865540 424.424164,328.347443 421.979736,326.019165 
	C422.017365,325.977356 422.090851,325.892212 422.090851,325.892212 
z"/>
<path fill="#F2B53D" opacity="1.000000" stroke="none" 
	d="
M436.939575,438.051636 
	C431.208374,432.490692 425.463928,426.946503 419.886353,421.239288 
	C418.953186,420.284424 418.370911,418.653625 418.255249,417.282135 
	C416.106384,391.800201 414.076874,366.308258 411.964569,340.823181 
	C411.335144,333.229065 410.529572,325.649536 409.652191,316.466919 
	C414.434601,319.965149 418.093872,322.641846 421.921997,325.605347 
	C422.090851,325.892212 422.017365,325.977356 421.605560,325.995300 
	C418.698456,325.034851 416.203125,324.056427 412.746887,322.701172 
	C413.594971,335.421509 414.253326,347.255829 415.205322,359.066498 
	C416.331696,373.041443 417.978729,386.978455 418.895966,400.964966 
	C419.614990,411.929565 420.571167,422.494293 430.800995,429.403778 
	C432.422516,430.499023 433.811676,432.060211 434.997955,433.639130 
	C435.934662,434.885834 436.394745,436.490692 437.066498,437.936493 
	C437.066498,437.936493 436.982330,438.013702 436.939575,438.051636 
z"/>
<path fill="#000000" opacity="1.000000" stroke="none" 
	d="
M569.906250,608.953674 
	C570.260925,609.661621 571.052856,610.483337 570.902832,611.059937 
	C569.356689,617.002136 567.965942,622.845947 568.753296,629.170959 
	C569.106628,632.008972 567.374939,635.061890 566.858582,638.063599 
	C566.124939,642.328857 565.597412,646.631592 565.058594,650.927979 
	C564.362488,656.478699 563.566101,662.025574 563.145447,667.599304 
	C562.816528,671.957581 563.193420,676.369202 562.862732,680.727173 
	C562.697571,682.903931 561.367920,684.973145 561.053528,687.161133 
	C559.951172,694.832092 558.900574,702.518005 558.151428,710.229370 
	C557.711914,714.753906 558.169067,719.367554 557.696838,723.886169 
	C557.197937,728.659485 555.841858,733.340881 555.293274,738.112244 
	C554.813049,742.289062 555.111511,746.551453 554.722168,750.744141 
	C554.486755,753.278320 553.275208,755.724670 553.062073,758.257568 
	C552.512695,764.785706 552.528137,771.367371 551.822449,777.873962 
	C551.357544,782.161194 549.745605,786.315857 549.159363,790.599915 
	C548.217896,797.479248 547.783508,804.426270 546.984863,811.327332 
	C545.711304,822.332336 544.314453,833.323059 542.479126,844.701660 
	C522.661926,845.021423 503.335297,844.959412 484.008667,844.897339 
	C483.283386,842.526978 482.562958,840.155029 481.829620,837.787109 
	C481.642761,837.183838 481.308228,836.608093 481.222809,835.994507 
	C480.502014,830.815552 478.369720,825.270630 479.539429,820.548584 
	C480.715851,815.799438 475.954132,811.428589 479.745148,807.095276 
	C480.091003,806.700012 479.608704,805.529663 479.433014,804.736511 
	C477.995941,798.249329 476.029388,791.828918 475.224487,785.265381 
	C474.295258,777.688049 474.706268,769.953186 473.935791,762.347473 
	C473.264374,755.720032 471.731171,749.181580 470.658173,742.590881 
	C470.523956,741.766479 470.805420,740.844849 471.024963,740.002319 
	C471.182068,739.399231 471.854736,738.387207 471.793152,738.347900 
	C467.094299,735.349670 471.290527,729.963196 468.586670,726.415039 
	C468.056488,725.719238 468.034515,724.526611 468.025940,723.560974 
	C467.975159,717.838074 468.265717,712.098145 467.916534,706.396057 
	C467.594452,701.137024 468.726440,695.405029 464.278900,691.075500 
	C464.176147,690.975525 464.094208,690.706787 464.153839,690.608582 
	C466.885345,686.108459 463.185760,682.199463 462.936401,677.955566 
	C462.306061,667.227722 464.279510,656.281799 459.448517,645.848694 
	C457.910889,642.527954 458.805145,638.121338 458.382599,634.233765 
	C457.882385,629.632263 457.093384,625.062561 456.557617,620.464172 
	C456.128510,616.781067 455.890747,613.075623 456.268982,609.118896 
	C459.245422,608.567688 461.522919,608.010803 463.796112,608.027832 
	C499.166473,608.292664 534.536316,608.631714 569.906250,608.953674 
M512.119446,616.942139 
	C498.631287,616.946289 485.142944,616.917114 471.655273,617.000793 
	C470.135864,617.010193 468.620392,617.657227 467.049835,618.908142 
	C467.700623,625.080872 468.341522,631.254700 469.004517,637.426147 
	C470.037903,647.045288 471.043793,656.667725 472.139648,666.279846 
	C473.363586,677.015503 474.712616,687.737000 475.934692,698.472839 
	C476.730530,705.464355 477.336578,712.477478 478.135468,719.468628 
	C479.360596,730.190125 480.729340,740.895325 481.939392,751.618469 
	C482.764008,758.925720 483.303955,766.265991 484.182800,773.566040 
	C485.354187,783.295654 486.813354,792.990540 487.995850,802.718994 
	C489.100861,811.809937 490.005951,820.925110 490.285187,830.207703 
	C490.285187,832.666016 490.285187,835.124268 490.285187,837.330627 
	C492.953552,837.178833 494.699524,836.996338 496.445770,836.993591 
	C508.394104,836.974915 520.342590,837.008240 532.290710,836.950623 
	C532.792297,836.948242 533.290283,836.211975 533.920715,834.961731 
	C535.229126,824.101318 536.537537,813.240906 537.955811,801.468872 
	C537.948914,801.473999 539.589661,800.827454 539.597473,800.161743 
	C539.648560,795.803528 539.991455,791.305420 539.673767,787.146240 
	C539.422363,783.853638 539.260925,781.650696 541.017029,779.341431 
	C540.821045,776.972778 541.276550,774.704407 541.521118,772.413513 
	C541.952271,768.374390 543.213135,764.108337 542.372253,760.327454 
	C541.282776,755.428650 546.433350,751.333191 543.370911,746.558472 
	C543.268494,746.398865 543.992615,745.811890 544.156494,745.360596 
	C544.807373,743.567993 545.819275,741.768677 545.898010,739.937561 
	C546.025391,736.977417 545.140137,733.960022 545.372131,731.021179 
	C545.750122,726.231445 547.693115,721.356934 547.106873,716.756348 
	C546.487427,711.895569 551.830750,707.810974 548.268921,702.924133 
	C548.106506,702.701294 549.206177,701.669922 549.555054,700.937561 
	C550.106384,699.780273 550.899780,698.565979 550.927795,697.360413 
	C551.077637,690.918884 550.707092,684.451111 551.145447,678.035400 
	C551.447144,673.620789 552.772095,669.276062 553.807190,664.055054 
	C551.546204,661.655762 552.879639,658.879883 554.916199,657.401184 
	C555.258301,650.989197 555.542358,645.624146 555.846619,640.260254 
	C555.852783,640.152710 556.141418,640.086426 556.223206,639.954407 
	C558.732666,635.906738 559.456665,631.714722 557.066589,626.926880 
	C562.693665,624.637024 558.402161,621.154907 557.424683,617.395142 
	C542.637939,617.255676 527.851135,617.116272 512.119446,616.942139 
z"/>
<path fill="#000000" opacity="1.000000" stroke="none" 
	d="
M414.068817,535.025940 
	C411.681702,533.159729 409.201752,531.399231 406.928101,529.403748 
	C403.013550,525.968018 399.149323,522.465332 395.435516,518.816223 
	C394.334717,517.734619 393.151855,516.079895 393.125092,514.666565 
	C392.925232,504.109863 393.006256,493.547791 393.470703,482.520386 
	C473.634155,482.047119 553.326111,482.040833 633.018066,482.034546 
	C633.018066,482.034546 633.023193,481.960907 633.005005,482.424713 
	C632.982727,493.952515 632.978638,505.016510 632.974609,516.080505 
	C628.057739,520.808777 623.163269,525.560669 618.212097,530.252686 
	C616.471558,531.902100 614.591980,533.404785 611.922241,534.986755 
	C545.402039,535.008057 479.735413,535.017029 414.068817,535.025940 
M513.874939,526.997192 
	C544.284119,527.012512 574.693359,527.040588 605.102478,526.999390 
	C606.400513,526.997620 607.697571,526.355042 609.383728,525.466003 
	C614.039185,521.277832 618.694641,517.089661 623.592590,512.683350 
	C623.089539,505.858459 622.548828,498.521973 622.794495,491.017853 
	C623.010803,490.738007 623.227173,490.458191 623.443481,490.178345 
	C623.310181,490.129944 623.177979,490.043274 623.043396,490.039398 
	C622.214417,490.015625 621.384888,490.000641 620.555542,490.000610 
	C587.865356,489.998932 555.175232,489.989471 522.485107,490.040009 
	C521.354309,490.041779 520.224426,490.645660 518.215637,490.983948 
	C516.452271,490.999817 514.688904,491.015686 512.187500,491.002716 
	C511.449005,491.004639 510.710541,491.006561 509.662354,490.181152 
	C478.422394,490.121399 447.182465,490.055725 415.942474,490.043610 
	C415.306274,490.043365 414.669769,490.666138 413.103363,490.984192 
	C409.532837,490.984192 405.962311,490.984192 402.029663,490.984192 
	C402.029663,495.671906 402.490448,499.546021 401.930756,503.266632 
	C400.867401,510.335327 403.622406,515.398621 409.009613,519.519470 
	C411.758972,521.622559 414.404816,523.861023 417.481018,526.803528 
	C449.301727,526.812622 481.122406,526.821716 513.874939,526.997192 
z"/>
<path fill="#000000" opacity="1.000000" stroke="none" 
	d="
M592.023743,556.935913 
	C586.508362,567.668579 580.993042,578.401245 575.543945,589.004883 
	C551.922852,589.004883 528.216736,589.005188 504.510590,589.004700 
	C489.125610,589.004395 473.715607,588.494080 458.367889,589.250000 
	C452.140686,589.556702 449.129669,586.505493 446.737885,582.361206 
	C442.275513,574.629089 438.458740,566.523193 434.430878,558.543762 
	C434.079529,557.847717 434.154083,556.936768 434.470703,555.617188 
	C486.025726,555.076599 537.140869,555.030579 588.255859,555.092651 
	C589.512573,555.094177 590.767822,556.294617 592.023743,556.935913 
M513.917603,579.965881 
	C531.063354,579.959839 548.209167,579.975891 565.354736,579.910034 
	C566.889771,579.904175 568.422852,579.368164 570.246094,578.429932 
	C572.514282,573.984863 574.782471,569.539795 577.310059,564.497986 
	C576.046265,564.325134 574.782593,564.003357 573.518616,564.001709 
	C553.352539,563.975403 533.186523,563.989929 512.079651,563.967102 
	C491.392670,564.009216 470.705688,564.051392 449.402832,564.471313 
	C449.943176,570.617371 453.397278,575.316467 457.992279,580.006348 
	C476.322174,579.963318 494.652039,579.920227 513.917603,579.965881 
z"/>
<path fill="#000000" opacity="1.000000" stroke="none" 
	d="
M487.006989,873.839233 
	C486.061371,870.857178 485.115753,867.875061 484.138214,864.792358 
	C503.438782,864.792358 522.442749,864.792358 541.748718,864.792358 
	C540.548157,870.042297 539.411987,874.458313 538.580688,878.931030 
	C538.268860,880.609253 538.854980,882.435425 538.705933,884.166077 
	C538.093628,891.276794 530.889038,891.859070 526.913086,895.623962 
	C524.413879,897.990417 520.719360,899.094727 516.831726,900.883911 
	C515.343262,900.789062 514.493347,900.724792 513.844360,900.330078 
	C512.600403,899.573730 511.470520,898.629578 510.293274,897.763367 
	C511.309692,896.832153 512.299316,895.869324 513.349548,894.977966 
	C514.545349,893.963257 515.795288,893.012329 516.985596,892.031311 
	C516.949463,892.028931 516.971252,892.098389 517.256897,892.024841 
	C517.728882,891.620300 517.915222,891.289246 518.037476,890.962891 
	C517.973328,890.967468 517.969360,891.095947 518.245056,891.030334 
	C518.674744,890.645020 518.828796,890.325256 519.302917,889.867615 
	C524.158325,887.952698 527.438232,885.016907 529.720032,880.544189 
	C531.460999,877.131531 530.792542,875.517212 527.285034,875.105591 
	C522.570068,874.552124 517.815369,874.336731 512.794922,873.764160 
	C507.233276,873.816589 501.954437,874.081116 496.202972,874.369385 
	C496.127655,875.875366 496.056488,877.298279 495.609558,878.846802 
	C494.814178,878.280151 494.246704,877.636536 494.000031,876.887329 
	C492.807831,873.266479 491.086548,872.895081 488.916809,876.174683 
	C488.134796,875.218384 487.570892,874.528809 487.006989,873.839233 
z"/>
<path fill="#FFFFFF" opacity="1.000000" stroke="none" 
	d="
M486.663269,874.023682 
	C487.570892,874.528809 488.134796,875.218384 488.916809,876.174683 
	C491.086548,872.895081 492.807831,873.266479 494.000031,876.887329 
	C494.246704,877.636536 494.814178,878.280151 495.865051,879.124146 
	C497.209412,880.856079 497.491119,883.056152 498.712433,883.906006 
	C503.297668,887.096680 508.189514,889.846741 513.357178,892.762390 
	C514.839111,892.519836 515.930420,892.276733 517.021729,892.033691 
	C515.795288,893.012329 514.545349,893.963257 513.349548,894.977966 
	C512.299316,895.869324 511.309692,896.832153 510.293274,897.763367 
	C511.470520,898.629578 512.600403,899.573730 513.844360,900.330078 
	C514.493347,900.724792 515.343262,900.789062 516.489441,901.026672 
	C515.173035,903.964844 513.229126,904.718689 510.154419,902.545227 
	C505.319733,899.127563 500.226562,896.075500 495.805786,893.230774 
	C497.536346,891.765503 499.276093,890.292480 501.015808,888.819397 
	C499.637085,887.858643 498.333374,886.759155 496.864716,885.964661 
	C493.324554,884.049683 493.278168,887.354919 492.242950,889.518555 
	C492.221558,889.854309 492.306244,889.815613 492.306274,889.815613 
	C490.832733,888.519714 488.502106,887.464478 488.057129,885.879761 
	C487.002106,882.122803 486.841553,878.114685 486.663269,874.023682 
z"/>
<path fill="#717171" opacity="1.000000" stroke="none" 
	d="
M632.828064,481.643250 
	C553.326111,482.040833 473.634155,482.047119 393.476318,482.100739 
	C394.382385,481.767853 395.754059,481.056244 397.126312,481.055145 
	C452.518188,481.011322 507.910095,481.013306 563.302002,481.052673 
	C586.414062,481.069122 609.526062,481.182587 632.828064,481.643250 
z"/>
<path fill="#FFFFFF" opacity="1.000000" stroke="none" 
	d="
M414.215820,535.438538 
	C479.735413,535.017029 545.402039,535.008057 611.537720,534.998352 
	C610.876343,535.332825 609.746094,535.960510 608.615479,535.961304 
	C544.360168,536.007690 480.104889,536.002197 415.849579,535.994995 
	C415.353973,535.994934 414.858398,535.901123 414.215820,535.438538 
z"/>
<path fill="#636362" opacity="1.000000" stroke="none" 
	d="
M592.378174,556.758972 
	C590.767822,556.294617 589.512573,555.094177 588.255859,555.092651 
	C537.140869,555.030579 486.025726,555.076599 434.462189,555.257690 
	C433.959381,554.993774 433.904999,554.581116 433.850586,554.168396 
	C435.010437,554.115967 436.170288,554.017700 437.330139,554.017639 
	C487.720673,554.015015 538.111267,554.002319 588.501526,554.119141 
	C589.982056,554.122620 593.410400,552.273621 592.378174,556.758972 
z"/>
<path fill="#474746" opacity="1.000000" stroke="none" 
	d="
M569.866089,608.547791 
	C534.536316,608.631714 499.166473,608.292664 463.796112,608.027832 
	C461.522919,608.010803 459.245422,608.567688 456.567505,608.883484 
	C457.440979,608.287964 458.715240,607.127625 459.993042,607.123718 
	C495.440155,607.015259 530.887634,607.013489 566.335022,607.061218 
	C567.499146,607.062805 568.662292,607.765869 569.866089,608.547791 
z"/>
<path fill="#474746" opacity="1.000000" stroke="none" 
	d="
M483.890778,845.192566 
	C503.335297,844.959412 522.661926,845.021423 542.445557,845.127502 
	C541.814514,845.430908 540.727234,845.912537 539.638367,845.916260 
	C521.616089,845.977295 503.593536,845.983215 485.571075,845.971558 
	C484.971588,845.971191 484.372284,845.656189 483.890778,845.192566 
z"/>
<path fill="#B3B3B3" opacity="1.000000" stroke="none" 
	d="
M633.386963,515.910889 
	C632.978638,505.016510 632.982727,493.952515 632.969238,482.415710 
	C633.315918,482.577423 633.997986,483.212433 633.997070,483.846436 
	C633.981689,494.478149 633.880981,505.109680 633.386963,515.910889 
z"/>
<path fill="#FFFFFF" opacity="1.000000" stroke="none" 
	d="
M492.182678,889.879883 
	C492.315704,890.212219 492.487610,890.518921 492.659515,890.825623 
	C492.351654,890.635742 492.043793,890.445801 492.021088,890.035767 
	C492.306244,889.815613 492.221558,889.854309 492.182678,889.879883 
z"/>
<path fill="#FCBD11" opacity="1.000000" stroke="none" 
	d="
M437.408630,437.991394 
	C436.394745,436.490692 435.934662,434.885834 434.997955,433.639130 
	C433.811676,432.060211 432.422516,430.499023 430.800995,429.403778 
	C420.571167,422.494293 419.614990,411.929565 418.895966,400.964966 
	C417.978729,386.978455 416.331696,373.041443 415.205322,359.066498 
	C414.253326,347.255829 413.594971,335.421509 412.746887,322.701172 
	C416.203125,324.056427 418.698456,325.034851 421.567932,326.037109 
	C424.424164,328.347443 426.733276,330.865540 429.422699,332.874390 
	C435.930084,337.735077 442.488495,342.550293 449.270782,347.012268 
	C454.095398,350.186340 456.068970,349.371368 457.466888,343.898102 
	C462.098755,325.763397 466.554688,307.583832 471.079132,289.421692 
	C474.121307,277.209717 476.704285,264.854340 480.446045,252.860565 
	C481.849731,248.361221 486.014862,244.747772 488.802582,240.649841 
	C492.599792,235.067902 496.283630,229.408813 500.039032,223.420853 
	C503.591248,219.232178 507.133179,215.417007 510.641937,211.571609 
	C511.677307,210.436951 512.619202,209.216995 513.603943,208.036148 
	C514.037964,208.171982 514.472046,208.307800 514.906128,208.443634 
	C514.906128,210.832108 515.161011,213.253098 514.861145,215.603302 
	C513.690308,224.778763 512.329895,233.929901 511.067444,243.093857 
	C510.139984,249.826294 514.336487,254.874298 517.223511,260.135986 
	C528.774048,281.187286 540.696716,302.034607 552.509277,322.941772 
	C557.945312,332.562958 563.457886,342.140808 568.908386,351.753784 
	C570.710205,354.931610 572.901611,356.176941 576.108032,353.514069 
	C577.508423,352.351074 579.040527,351.332367 580.353760,350.081268 
	C588.781189,342.052734 597.158264,333.971436 605.573425,325.930054 
	C606.259827,325.274139 607.107239,324.786652 608.910767,323.465912 
	C608.910767,330.083252 609.135132,335.801147 608.859070,341.494843 
	C608.426270,350.420868 607.509155,359.323212 607.060059,368.248779 
	C606.268250,383.987885 605.758484,399.741577 604.891113,415.475952 
	C604.783508,417.428101 603.624573,419.679413 602.259094,421.146423 
	C594.216309,429.787323 586.071411,438.340820 577.708862,446.670685 
	C575.847656,448.524536 573.114319,449.871826 570.542908,450.570190 
	C564.340454,452.254700 562.207947,449.846832 564.187256,443.755432 
	C566.798218,435.719971 569.766479,427.789398 572.039185,419.662170 
	C572.701477,417.293549 572.354370,413.856781 571.037903,411.848297 
	C562.491516,398.809082 553.421387,386.114563 544.772705,373.140503 
	C535.676819,359.495514 526.780701,345.715149 517.958374,331.891113 
	C514.038086,325.748322 511.938110,325.264496 507.432678,331.262085 
	C503.265076,336.809998 499.934082,342.979919 496.116119,348.798126 
	C484.307587,366.793304 472.968353,385.128174 460.440704,402.610107 
	C449.507233,417.867432 452.695160,415.109619 457.409424,430.594604 
	C459.417725,437.191254 461.908905,443.640900 464.330902,450.588226 
	C457.403534,451.428497 451.861267,451.112122 447.253357,445.951904 
	C444.538849,442.912140 440.947632,440.655273 437.408630,437.991394 
z"/>
<path fill="#FCBC12" opacity="1.000000" stroke="none" 
	d="
M470.100220,410.517029 
	C470.789429,409.360107 471.431641,408.585480 472.116272,407.479736 
	C474.317108,404.955902 476.929352,403.052032 478.544800,400.513794 
	C482.620514,394.109985 486.247375,387.420502 490.093384,380.484009 
	C492.777740,376.369659 495.422821,372.616791 498.113098,368.505615 
	C500.123047,365.378662 502.087830,362.609955 504.090240,359.479431 
	C506.271790,357.320221 508.415710,355.522858 511.649078,352.812164 
	C511.649078,361.394531 511.695740,368.574585 511.637573,375.753845 
	C511.560852,385.221558 511.361145,394.688324 511.290436,404.156067 
	C511.226257,412.745911 511.284851,421.336639 511.249298,429.926788 
	C511.226593,435.421661 510.973633,440.920654 511.127319,446.409302 
	C511.219696,449.709290 510.415802,451.249115 506.718842,451.141205 
	C498.728271,450.907959 490.725311,451.012329 482.729034,451.112335 
	C480.062866,451.145691 478.514923,450.408875 477.597504,447.613281 
	C475.220154,440.369141 472.645477,433.176636 469.805206,426.101807 
	C467.713196,420.890778 467.054443,415.922424 470.100220,410.517029 
z"/>
<path fill="#116538" opacity="1.000000" stroke="none" 
	d="
M490.999084,830.029663 
	C490.005951,820.925110 489.100861,811.809937 487.995850,802.718994 
	C486.813354,792.990540 485.354187,783.295654 484.182800,773.566040 
	C483.303955,766.265991 482.764008,758.925720 481.939392,751.618469 
	C480.729340,740.895325 479.360596,730.190125 478.135468,719.468628 
	C477.336578,712.477478 476.730530,705.464355 475.934692,698.472839 
	C474.712616,687.737000 473.363586,677.015503 472.139648,666.279846 
	C471.043793,656.667725 470.037903,647.045288 469.004517,637.426147 
	C468.341522,631.254700 467.700623,625.080872 467.535522,618.455627 
	C483.022766,618.005981 498.024292,618.008850 513.013672,618.479614 
	C512.983215,691.228699 512.964966,763.509949 512.491272,835.870483 
	C505.319061,835.949707 498.602264,835.949707 491.688904,835.949707 
	C491.417084,833.617004 491.208069,831.823364 490.999084,830.029663 
z"/>
<path fill="#090B08" opacity="1.000000" stroke="none" 
	d="
M512.946716,835.791260 
	C512.964966,763.509949 512.983215,691.228699 513.073853,618.486694 
	C513.146240,618.025940 513.266785,618.039551 513.711548,618.025269 
	C528.772095,618.008057 543.387817,618.005127 558.003601,618.002197 
	C558.402161,621.154907 562.693665,624.637024 557.066589,626.926880 
	C559.456665,631.714722 558.732666,635.906738 556.223206,639.954407 
	C556.141418,640.086426 555.852783,640.152710 555.846619,640.260254 
	C555.542358,645.624146 555.258301,650.989197 554.916199,657.401184 
	C552.879639,658.879883 551.546204,661.655762 553.807190,664.055054 
	C552.772095,669.276062 551.447144,673.620789 551.145447,678.035400 
	C550.707092,684.451111 551.077637,690.918884 550.927795,697.360413 
	C550.899780,698.565979 550.106384,699.780273 549.555054,700.937561 
	C549.206177,701.669922 548.106506,702.701294 548.268921,702.924133 
	C551.830750,707.810974 546.487427,711.895569 547.106873,716.756348 
	C547.693115,721.356934 545.750122,726.231445 545.372131,731.021179 
	C545.140137,733.960022 546.025391,736.977417 545.898010,739.937561 
	C545.819275,741.768677 544.807373,743.567993 544.156494,745.360596 
	C543.992615,745.811890 543.268494,746.398865 543.370911,746.558472 
	C546.433350,751.333191 541.282776,755.428650 542.372253,760.327454 
	C543.213135,764.108337 541.952271,768.374390 541.521118,772.413513 
	C541.276550,774.704407 540.821045,776.972778 541.017029,779.341431 
	C539.260925,781.650696 539.422363,783.853638 539.673767,787.146240 
	C539.991455,791.305420 539.648560,795.803528 539.597473,800.161743 
	C539.589661,800.827454 537.948914,801.473999 537.955811,801.468872 
	C536.537537,813.240906 535.229126,824.101318 533.471130,835.463623 
	C526.329956,835.907410 519.638306,835.849365 512.946716,835.791260 
z"/>
<path fill="#FFFFFF" opacity="1.000000" stroke="none" 
	d="
M512.491272,835.870483 
	C519.638306,835.849365 526.329956,835.907410 533.405762,835.891541 
	C533.290283,836.211975 532.792297,836.948242 532.290710,836.950623 
	C520.342590,837.008240 508.394104,836.974915 496.445770,836.993591 
	C494.699524,836.996338 492.953552,837.178833 490.285187,837.330627 
	C490.285187,835.124268 490.285187,832.666016 490.642120,830.118652 
	C491.208069,831.823364 491.417084,833.617004 491.688904,835.949707 
	C498.602264,835.949707 505.319061,835.949707 512.491272,835.870483 
z"/>
<path fill="#474746" opacity="1.000000" stroke="none" 
	d="
M513.086060,618.018860 
	C498.024292,618.008850 483.022766,618.005981 467.562164,618.005859 
	C468.620392,617.657227 470.135864,617.010193 471.655273,617.000793 
	C485.142944,616.917114 498.631287,616.946289 512.646606,617.224365 
	C513.204712,617.684265 513.235718,617.861877 513.266785,618.039551 
	C513.266785,618.039551 513.146240,618.025940 513.086060,618.018860 
z"/>
<path fill="#0A0A09" opacity="1.000000" stroke="none" 
	d="
M513.711548,618.025269 
	C513.235718,617.861877 513.204712,617.684265 513.119019,617.241760 
	C527.851135,617.116272 542.637939,617.255676 557.714111,617.698669 
	C543.387817,618.005127 528.772095,618.008057 513.711548,618.025269 
z"/>
<path fill="#116538" opacity="1.000000" stroke="none" 
	d="
M417.097443,526.038269 
	C414.404816,523.861023 411.758972,521.622559 409.009613,519.519470 
	C403.622406,515.398621 400.867401,510.335327 401.930756,503.266632 
	C402.490448,499.546021 402.029663,495.671906 402.029663,490.984192 
	C405.962311,490.984192 409.532837,490.984192 414.034393,491.011719 
	C446.634308,491.028961 478.303162,491.018707 509.972046,491.008484 
	C510.710541,491.006561 511.449005,491.004639 512.577637,491.482361 
	C512.986816,503.284332 513.005920,514.606628 512.557922,525.981812 
	C480.426392,526.035828 448.761932,526.037048 417.097443,526.038269 
z"/>
<path fill="#0A0A09" opacity="1.000000" stroke="none" 
	d="
M513.024963,525.928955 
	C513.005920,514.606628 512.986816,503.284332 512.946655,491.496765 
	C514.688904,491.015686 516.452271,490.999817 519.117065,490.997192 
	C554.015076,491.068817 588.011597,491.127167 622.008118,491.185516 
	C622.548828,498.521973 623.089539,505.858459 623.592590,512.683350 
	C618.694641,517.089661 614.039185,521.277832 608.721924,525.706909 
	C576.361694,526.002808 544.663269,526.057861 512.982422,526.067749 
	C513.000000,526.022522 513.024963,525.928955 513.024963,525.928955 
z"/>
<path fill="#FFFFFF" opacity="1.000000" stroke="none" 
	d="
M622.401306,491.101685 
	C588.011597,491.127167 554.015076,491.068817 519.556335,490.989685 
	C520.224426,490.645660 521.354309,490.041779 522.485107,490.040009 
	C555.175232,489.989471 587.865356,489.998932 620.555542,490.000610 
	C621.384888,490.000641 622.214417,490.015625 623.043396,490.039398 
	C623.177979,490.043274 623.310181,490.129944 623.443481,490.178345 
	C623.227173,490.458191 623.010803,490.738007 622.401306,491.101685 
z"/>
<path fill="#B3B3B3" opacity="1.000000" stroke="none" 
	d="
M417.289246,526.420898 
	C448.761932,526.037048 480.426392,526.035828 512.557922,525.981812 
	C513.024963,525.928955 513.000000,526.022522 512.972412,526.247070 
	C512.944885,526.471558 512.943115,526.830872 512.943115,526.830872 
	C481.122406,526.821716 449.301727,526.812622 417.289246,526.420898 
z"/>
<path fill="#838384" opacity="1.000000" stroke="none" 
	d="
M513.409058,526.914062 
	C512.943115,526.830872 512.944885,526.471558 512.954834,526.292236 
	C544.663269,526.057861 576.361694,526.002808 608.527649,525.979370 
	C607.697571,526.355042 606.400513,526.997620 605.102478,526.999390 
	C574.693359,527.040588 544.284119,527.012512 513.409058,526.914062 
z"/>
<path fill="#FFFFFF" opacity="1.000000" stroke="none" 
	d="
M509.817200,490.594818 
	C478.303162,491.018707 446.634308,491.028961 414.499420,491.018738 
	C414.669769,490.666138 415.306274,490.043365 415.942474,490.043610 
	C447.182465,490.055725 478.422394,490.121399 509.817200,490.594818 
z"/>
<path fill="#116538" opacity="1.000000" stroke="none" 
	d="
M457.068573,579.907593 
	C453.397278,575.316467 449.943176,570.617371 450.016479,564.557922 
	C452.277985,564.752991 453.925720,564.952881 455.573822,564.955994 
	C474.708435,564.991821 493.843079,564.997925 513.043579,564.993896 
	C513.109436,564.975830 513.245422,564.963745 513.157715,565.421387 
	C513.045837,570.186035 513.021729,574.493042 512.997803,578.892334 
	C512.998047,578.984680 512.997253,579.169312 512.534851,579.086182 
	C495.126678,579.000549 478.180878,578.976685 461.235291,579.034973 
	C459.845398,579.039734 458.457428,579.603577 457.068573,579.907593 
z"/>
<path fill="#090B08" opacity="1.000000" stroke="none" 
	d="
M512.997559,578.800049 
	C513.021729,574.493042 513.045837,570.186035 513.601685,565.435120 
	C535.105774,565.025696 556.078186,565.060242 577.050659,565.094727 
	C574.782471,569.539795 572.514282,573.984863 569.636230,578.741821 
	C550.350098,578.969177 531.673828,578.884644 512.997559,578.800049 
z"/>
<path fill="#0A0A09" opacity="1.000000" stroke="none" 
	d="
M577.180359,564.796387 
	C556.078186,565.060242 535.105774,565.025696 513.689331,564.977478 
	C513.245422,564.963745 513.109436,564.975830 513.085205,564.740906 
	C513.047363,564.335754 513.033875,564.165466 513.020447,563.995239 
	C533.186523,563.989929 553.352539,563.975403 573.518616,564.001709 
	C574.782593,564.003357 576.046265,564.325134 577.180359,564.796387 
z"/>
<path fill="#474746" opacity="1.000000" stroke="none" 
	d="
M512.550049,563.981201 
	C513.033875,564.165466 513.047363,564.335754 513.019287,564.758911 
	C493.843079,564.997925 474.708435,564.991821 455.573822,564.955994 
	C453.925720,564.952881 452.277985,564.752991 450.324402,564.369019 
	C470.705688,564.051392 491.392670,564.009216 512.550049,563.981201 
z"/>
<path fill="#636362" opacity="1.000000" stroke="none" 
	d="
M512.997803,578.892334 
	C531.673828,578.884644 550.350098,578.969177 569.491577,579.066040 
	C568.422852,579.368164 566.889771,579.904175 565.354736,579.910034 
	C548.209167,579.975891 531.063354,579.959839 513.458008,579.744690 
	C512.998352,579.523499 512.997253,579.169312 512.997253,579.169312 
	C512.997253,579.169312 512.998047,578.984680 512.997803,578.892334 
z"/>
<path fill="#717171" opacity="1.000000" stroke="none" 
	d="
M512.534851,579.086182 
	C512.997253,579.169312 512.998352,579.523499 512.990112,579.700317 
	C494.652039,579.920227 476.322174,579.963318 457.530426,579.956970 
	C458.457428,579.603577 459.845398,579.039734 461.235291,579.034973 
	C478.180878,578.976685 495.126678,579.000549 512.534851,579.086182 
z"/>
<path fill="#0A0A09" opacity="1.000000" stroke="none" 
	d="
M516.985596,892.031250 
	C515.930420,892.276733 514.839111,892.519836 513.364258,892.310059 
	C513.013062,885.896851 513.045410,879.936584 513.077759,873.976257 
	C517.815369,874.336731 522.570068,874.552124 527.285034,875.105591 
	C530.792542,875.517212 531.460999,877.131531 529.720032,880.544189 
	C527.438232,885.016907 524.158325,887.952698 518.932861,889.862671 
	C518.151550,890.362488 518.060486,890.729187 517.969360,891.095947 
	C517.969360,891.095947 517.973328,890.967468 517.607971,890.826538 
	C517.152161,891.156555 517.061707,891.627502 516.971252,892.098389 
	C516.971252,892.098389 516.949463,892.028931 516.985596,892.031250 
z"/>
<path fill="#116538" opacity="1.000000" stroke="none" 
	d="
M512.794922,873.764160 
	C513.045410,879.936584 513.013062,885.896851 512.973633,892.309570 
	C508.189514,889.846741 503.297668,887.096680 498.712433,883.906006 
	C497.491119,883.056152 497.209412,880.856079 496.240814,878.998535 
	C496.056488,877.298279 496.127655,875.875366 496.202972,874.369385 
	C501.954437,874.081116 507.233276,873.816589 512.794922,873.764160 
z"/>
<path fill="#FFFFFF" opacity="1.000000" stroke="none" 
	d="
M518.245056,891.030334 
	C518.060486,890.729187 518.151550,890.362488 518.612671,890.000610 
	C518.828796,890.325256 518.674744,890.645020 518.245056,891.030334 
z"/>
<path fill="#FFFFFF" opacity="1.000000" stroke="none" 
	d="
M517.256897,892.024841 
	C517.061707,891.627502 517.152161,891.156555 517.672119,890.821960 
	C517.915222,891.289246 517.728882,891.620300 517.256897,892.024841 
z"/>
</svg>